<?xml version="1.0" encoding="UTF-8"?><svg id="a" xmlns="http://www.w3.org/2000/svg" viewBox="0 0 29.97 25"><defs><style>.b{fill:none;stroke:#313131;stroke-linecap:round;stroke-linejoin:round;stroke-width:1px;}</style></defs><rect class="b" x=".5" y="2.14" width="28.97" height="22.36"/><line class="b" x1="5.55" y1="4.44" x2="5.55" y2=".5"/><line class="b" x1="24.42" y1="4.44" x2="24.42" y2=".5"/><line class="b" x1="5.46" y1="8.79" x2="5.46" y2="9.52"/><line class="b" x1="10.22" y1="8.79" x2="10.22" y2="9.52"/><line class="b" x1="14.98" y1="8.79" x2="14.98" y2="9.52"/><line class="b" x1="19.75" y1="8.79" x2="19.75" y2="9.52"/><line class="b" x1="24.51" y1="8.79" x2="24.51" y2="9.52"/><line class="b" x1="5.46" y1="12.63" x2="5.46" y2="13.37"/><line class="b" x1="10.22" y1="12.63" x2="10.22" y2="13.37"/><line class="b" x1="14.98" y1="12.63" x2="14.98" y2="13.37"/><line class="b" x1="19.75" y1="12.63" x2="19.75" y2="13.37"/><line class="b" x1="24.51" y1="12.63" x2="24.51" y2="13.37"/><line class="b" x1="5.46" y1="16.48" x2="5.46" y2="17.21"/><line class="b" x1="10.22" y1="16.48" x2="10.22" y2="17.21"/><line class="b" x1="14.98" y1="16.48" x2="14.98" y2="17.21"/><line class="b" x1="19.75" y1="16.48" x2="19.75" y2="17.21"/><line class="b" x1="24.51" y1="16.48" x2="24.51" y2="17.21"/><line class="b" x1="5.46" y1="20.32" x2="5.46" y2="21.06"/><line class="b" x1="10.22" y1="20.32" x2="10.22" y2="21.06"/><line class="b" x1="14.98" y1="20.32" x2="14.98" y2="21.06"/></svg>