<?xml version="1.0" encoding="utf-8"?>
<!-- Generator: Adobe Illustrator 26.3.1, SVG Export Plug-In . SVG Version: 6.00 Build 0)  -->
<svg version="1.1" id="Warstwa_1" xmlns="http://www.w3.org/2000/svg" xmlns:xlink="http://www.w3.org/1999/xlink" x="0px" y="0px"
	 viewBox="0 0 26.9 35" style="enable-background:new 0 0 26.9 35;" xml:space="preserve">
<style type="text/css">
	.st0{fill:none;stroke:#323232;stroke-width:0.79;stroke-linecap:round;stroke-linejoin:round;stroke-miterlimit:10;}
</style>
<g>
	<line class="st0" x1="7.6" y1="26.6" x2="7.6" y2="29.5"/>
	<path class="st0" d="M12.9,16c0.2,0,0.3,0.1,0.5,0.1c0.2,0,0.4,0,0.5-0.1"/>
	<path class="st0" d="M11.4,13.9c0,0.1,0,0.1-0.1,0.1c-0.1,0-0.1,0-0.1-0.1c0-0.1,0-0.1,0.1-0.1C11.3,13.8,11.4,13.8,11.4,13.9z"/>
	<path class="st0" d="M9.9,12.5c0,0,0.3-0.4,1-0.5"/>
	<path class="st0" d="M12,18c0,0,0.4,0.4,1.4,0.4c1,0,1.4-0.4,1.4-0.4"/>
	<path class="st0" d="M7.6,13.1L7.5,13c-0.3-0.2-0.7,0.1-0.8,0.4c-0.1,0.7,0,1.8,1.2,2.3c0.8,2.6,3,5.1,5.5,5.1
		c2.5,0,4.7-2.5,5.5-5.1c1.2-0.6,1.3-1.6,1.2-2.3c0-0.4-0.4-0.6-0.8-0.4l-0.1,0.1"/>
	<path class="st0" d="M15.5,13.9c0,0.1,0,0.1,0.1,0.1c0.1,0,0.1,0,0.1-0.1c0-0.1,0-0.1-0.1-0.1C15.6,13.8,15.5,13.8,15.5,13.9z"/>
	<path class="st0" d="M17,12.5c0,0-0.3-0.4-1-0.5"/>
	<line class="st0" x1="3.9" y1="27.5" x2="3.9" y2="29.5"/>
	<path class="st0" d="M7.6,27.3H3.7c0,0-1-5.6,5.6-6.4c0,0,1,2,4.1,2"/>
	<path class="st0" d="M9.4,21.1c0,0,0.7-0.3,0.8-1.6"/>
	<path class="st0" d="M19.8,12.9c0,0,0.4-7.3-6.3-7.3c-6.7,0-6.3,7.3-6.3,7.3"/>
	<path class="st0" d="M19.2,13c-0.5-0.5-0.8-1.1-0.9-1.7c-0.1-0.5-0.4-1.2-0.8-1.8c-2.5,1.6-7.2-1.2-8.1,0c-0.4,0.6-0.7,1.3-0.8,1.8
		c-0.2,0.7-0.5,1.3-0.9,1.7"/>
	<line class="st0" x1="19.3" y1="26.6" x2="19.3" y2="29.5"/>
	<line class="st0" x1="23" y1="27.5" x2="23" y2="29.5"/>
	<path class="st0" d="M19.3,27.3h3.9c0,0,1-5.6-5.6-6.4c0,0-1,2-4.1,2"/>
	<path class="st0" d="M17.5,21.1c0,0-0.7-0.3-0.8-1.6"/>
</g>
</svg>
