<svg width="244" height="72" viewBox="0 0 244 72" fill="none" xmlns="http://www.w3.org/2000/svg">
<g clip-path="url(#clip0_7_18)">
<path d="M197.645 1.80597C182.156 1.74503 173.662 2.39035 164.672 3.08305C153.577 3.93342 140.987 4.89827 112.383 4.79311C90.8891 4.70502 81.4415 3.95519 70.4918 3.07585C62.4989 2.43667 53.4483 1.71828 38.2838 1.17648C29.74 0.871015 21.5531 4.05347 15.2251 10.1377C8.67482 16.4354 4.90784 25.2219 4.86608 34.2591L4.86108 36.4504C4.81976 46.9548 9.78813 57.0182 18.1609 63.3667C18.7487 63.8203 19.3834 64.2567 20.0877 64.7145C25.4622 68.2078 31.6625 69.9717 38.015 69.7951C45.1216 69.5959 51.4565 69.3363 57.9343 68.9668C62.6409 68.6984 66.6067 68.4137 70.4367 68.1361C76.1402 67.7286 81.536 67.3357 88.4867 67.0827C93.0059 66.9192 97.648 66.8235 102.693 66.787C105.802 66.7563 108.881 66.7537 112.129 66.7658C116.056 66.7783 119.685 66.811 123.041 66.8579C144.161 67.1556 154.931 68.0731 164.44 68.8749C173.427 69.6356 181.907 70.3524 197.382 70.4162C208.957 70.4617 219.396 64.4378 225.396 55.2064C227.952 51.274 229.705 46.7603 230.392 41.8872C230.602 40.4258 230.712 38.899 230.727 37.3345L230.738 35.1348C230.738 33.7036 230.657 32.2677 230.472 30.883C230.24 29.0745 229.858 27.24 229.31 25.4047C228.713 23.4784 227.968 21.6342 227.08 19.936C227.057 19.8974 227.04 19.8505 227.009 19.8064C221.291 8.73111 210.055 1.83342 197.642 1.79213L197.645 1.80597ZM223.677 21.135C223.677 21.135 223.725 21.226 223.756 21.27C224.494 22.7037 225.119 24.2552 225.612 25.8638C226.091 27.4392 226.717 30.422 226.912 31.9924C227.059 33.1972 226.847 33.0471 226.842 34.2843L227.133 37.8728C227.13 39.2181 227.029 40.5478 226.841 41.8093C224.834 55.9618 211.148 66.8887 196.846 66.8361C181.56 66.7756 173.544 66.0978 164.263 65.3128C154.687 64.5034 144.675 64.1263 123.394 63.8194C120.024 63.7754 116.387 63.7373 112.437 63.7223C109.172 63.6993 106.066 63.7077 102.943 63.7413C97.8621 63.7783 93.1702 63.8773 88.6066 64.0358C81.5783 64.298 76.1465 64.6913 70.4069 65.0993C66.5907 65.374 62.6471 65.6612 57.9682 65.9237C51.5264 66.2927 45.2415 66.549 38.1847 66.7449C32.7361 66.8888 26.5823 64.833 21.954 61.8247C21.342 61.4269 20.7995 61.0505 20.2985 60.6652C13.0199 55.1471 8.40868 45.0297 8.44668 35.9066L8.45712 33.7069C8.4805 28.0927 10.1611 22.5896 13.2075 17.9026C14.4173 16.0412 15.8368 14.3161 17.4524 12.7662C22.9026 7.51873 30.4913 3.93551 37.8252 4.19405C52.8925 4.72034 61.9016 5.44753 69.8416 6.07623C80.8772 6.9518 90.4083 7.72007 112.069 7.809C140.847 7.92045 153.528 6.94344 164.71 6.08929C173.999 5.37646 182.869 5.30924 198.169 5.36683C208.962 5.4048 218.735 11.4347 223.671 21.1073L223.677 21.135Z" fill="white"/>
<path d="M53.8159 43.0447C54.124 44.7359 55.7485 45.8514 57.4397 45.5432C59.1308 45.2351 60.2463 43.6106 59.9382 41.9194C59.63 40.2283 58.0055 39.1128 56.3144 39.4209C54.6232 39.7291 53.5077 41.3536 53.8159 43.0447Z" fill="white"/>
<path d="M66.2675 43.0993C66.5757 44.7904 68.2002 45.9059 69.8913 45.5978C71.5825 45.2896 72.698 43.6651 72.3898 41.974C72.0817 40.2828 70.4572 39.1673 68.766 39.4755C67.0749 39.7836 65.9594 41.4081 66.2675 43.0993V43.0993Z" fill="white"/>
<path d="M66.3227 29.2527C66.6309 30.9438 68.2554 32.0593 69.9465 31.7512C71.6376 31.443 72.7532 29.8185 72.445 28.1274C72.1368 26.4362 70.5123 25.3207 68.8212 25.6289C67.1301 25.937 66.0145 27.5615 66.3227 29.2527Z" fill="white"/>
<path d="M78.725 43.1456C79.0332 44.8367 80.6577 45.9522 82.3488 45.6441C84.04 45.3359 85.1555 43.7114 84.8473 42.0203C84.5392 40.3291 82.9147 39.2136 81.2236 39.5218C79.5324 39.8299 78.4169 41.4544 78.725 43.1456Z" fill="white"/>
<path d="M78.7744 29.3072C79.0825 30.9983 80.707 32.1138 82.3982 31.8057C84.0893 31.4975 85.2048 29.873 84.8967 28.1819C84.5885 26.4907 82.964 25.3752 81.2729 25.6834C79.5817 25.9915 78.4662 27.616 78.7744 29.3072V29.3072Z" fill="white"/>
<path d="M59.9933 28.0724C59.6852 26.3813 58.0607 25.2658 56.3695 25.5739C54.6784 25.8821 53.5629 27.5066 53.871 29.1977C54.1792 30.8889 55.8037 32.0044 57.4948 31.6962C59.186 31.3881 60.3015 29.7636 59.9933 28.0724Z" fill="white"/>
<path d="M150.686 43.4282C150.994 45.1193 152.619 46.2349 154.31 45.9267C156.001 45.6185 157.116 43.994 156.808 42.3029C156.5 40.6118 154.876 39.4962 153.184 39.8044C151.493 40.1126 150.378 41.7371 150.686 43.4282Z" fill="white"/>
<path d="M163.143 43.4745C163.451 45.1657 165.076 46.2812 166.767 45.973C168.458 45.6649 169.573 44.0404 169.265 42.3492C168.957 40.6581 167.333 39.5426 165.642 39.8507C163.95 40.1589 162.835 41.7834 163.143 43.4745Z" fill="white"/>
<path d="M163.193 29.6361C163.501 31.3272 165.125 32.4427 166.817 32.1346C168.508 31.8264 169.623 30.2019 169.315 28.5108C169.007 26.8197 167.382 25.7041 165.691 26.0123C164 26.3204 162.885 27.9449 163.193 29.6361Z" fill="white"/>
<path d="M175.6 43.5208C175.908 45.212 177.533 46.3275 179.224 46.0193C180.915 45.7112 182.031 44.0867 181.722 42.3955C181.414 40.7044 179.79 39.5889 178.099 39.897C176.407 40.2052 175.292 41.8297 175.6 43.5208Z" fill="white"/>
<path d="M175.65 29.6824C175.958 31.3735 177.583 32.4891 179.274 32.1809C180.965 31.8728 182.08 30.2483 181.772 28.5571C181.464 26.866 179.839 25.7505 178.148 26.0586C176.457 26.3668 175.342 27.9913 175.65 29.6824Z" fill="white"/>
<path d="M156.863 28.4563C156.555 26.7651 154.93 25.6496 153.239 25.9578C151.548 26.2659 150.433 27.8904 150.741 29.5816C151.049 31.2727 152.673 32.3882 154.364 32.0801C156.056 31.7719 157.171 30.1474 156.863 28.4563Z" fill="white"/>
</g>
<defs>
<clipPath id="clip0_7_18">
<rect width="244" height="72" fill="white"/>
</clipPath>
</defs>
</svg>
