<?xml version="1.0" encoding="UTF-8"?><svg id="Layer_1" xmlns="http://www.w3.org/2000/svg" xmlns:xlink="http://www.w3.org/1999/xlink" viewBox="0 0 107.12 46.91"><defs><style>.cls-1{fill:url(#linear-gradient);fill-rule:evenodd;}.cls-2{fill:#3d3d3c;}</style><linearGradient id="linear-gradient" x1="-.02" y1="34.77" x2="40.05" y2="11.63" gradientTransform="matrix(1, 0, 0, 1, 0, 0)" gradientUnits="userSpaceOnUse"><stop offset="0" stop-color="#b11e46"/><stop offset=".02" stop-color="#b11e46"/><stop offset=".15" stop-color="#b11e46"/><stop offset=".2" stop-color="#be213e"/><stop offset=".29" stop-color="#cf2634"/><stop offset=".41" stop-color="#db292d"/><stop offset=".56" stop-color="#e22b2a"/><stop offset="1" stop-color="#e42c29"/></linearGradient></defs><path class="cls-1" d="M19.48,.12L.99,10.2l20.52,11.93c.19,.11,.4,.33,.4,.56v17.58c0,.25-.22,.41-.24,.43l-1.22,.68c-.19,.11-.47,.12-.75-.04l-1.09-.6c-.16-.09-.3-.3-.3-.53v-15.55c0-.27-.3-.4-.5-.52L0,13.77v20.8c0,.46,.44,.99,.82,1.21l18.51,10.92c.59,.35,.95,.29,1.77-.12l18.29-10.79c.43-.25,.84-.72,.84-1.24V13.76l-12.27,7.17c-.15,.09-.43,.12-.59,.03l-1.11-.64c-.22-.13-.42-.38-.43-.65l-.02-1.3c0-.19,.13-.45,.3-.55l13.12-7.64L20.74,.12c-.29-.16-.96-.16-1.26,0h0Z"/><g><path class="cls-2" d="M69.5,34.51V10.05h-4.57v8.02c-.43-.25-2.3-.58-3.77-.54-4.89,.14-8.53,4-8.43,8.71,.13,6.17,3.77,8.76,9.47,9.12,2.92,.19,6.43-.7,7.3-.84h0Zm-4.56-3.31c-.3,.07-2.28,.28-3.02,.16-3.01-.49-4.46-2.03-4.5-4.71-.03-2.86,1.16-4.93,4.69-5.08,.6-.02,2.57,.33,2.82,.55l.02,9.09h0Z"/><path class="cls-2" d="M107.12,34.51V10.05h-4.57v8.02c-.43-.25-2.3-.58-3.77-.54-4.89,.14-8.53,4-8.43,8.71,.13,6.17,3.77,8.76,9.47,9.12,2.92,.19,6.43-.7,7.3-.84h0Zm-4.56-3.31c-.3,.07-2.28,.28-3.02,.16-3.01-.49-4.46-2.03-4.5-4.71-.03-2.86,1.16-4.93,4.69-5.08,.6-.02,2.57,.33,2.82,.55l.02,9.09h0Z"/><path class="cls-2" d="M72.07,18.96v22.97h4.63l-.02-19.98c.3-.07,2.27-.33,3.02-.29,3.05,.18,4.44,1.88,4.51,4.57,.05,1.72-.53,3.14-1.65,4.03-.84,.67-2.02,1.02-3.38,1.05v4.02c2.14,.06,4.3-.39,6.01-1.49,2.22-1.43,3.79-4.6,3.7-7.61-.16-5.45-3.22-8.55-9.47-8.68-2.93-.06-6.48,.96-7.36,1.41h0Z"/></g></svg>