<?xml version="1.0" encoding="utf-8"?>
<!-- Generator: Adobe Illustrator 26.3.1, SVG Export Plug-In . SVG Version: 6.00 Build 0)  -->
<svg version="1.1" id="Warstwa_1" xmlns="http://www.w3.org/2000/svg" xmlns:xlink="http://www.w3.org/1999/xlink" x="0px" y="0px"
	 viewBox="0 0 47.9 35" style="enable-background:new 0 0 47.9 35;" xml:space="preserve">
<style type="text/css">
	.st0{fill:none;stroke:#323232;stroke-width:0.79;stroke-linecap:round;stroke-linejoin:round;stroke-miterlimit:10;}
	.st1{fill:none;stroke:#323232;stroke-width:0.7901;stroke-linecap:round;stroke-linejoin:round;stroke-miterlimit:10;}
</style>
<g>
	<g>
		<line class="st0" x1="8.7" y1="26.6" x2="8.7" y2="29.5"/>
		<path class="st0" d="M14,16c0.2,0,0.3,0.1,0.5,0.1c0.2,0,0.4,0,0.5-0.1"/>
		<path class="st0" d="M12.5,13.9c0,0.1,0,0.1-0.1,0.1c-0.1,0-0.1,0-0.1-0.1c0-0.1,0-0.1,0.1-0.1C12.4,13.8,12.5,13.8,12.5,13.9z"/>
		<path class="st0" d="M11,12.5c0,0,0.3-0.4,1-0.5"/>
		<path class="st0" d="M13.1,18c0,0,0.4,0.4,1.4,0.4c1,0,1.4-0.4,1.4-0.4"/>
		<path class="st0" d="M8.7,13.1L8.6,13c-0.3-0.2-0.7,0.1-0.8,0.4c-0.1,0.7,0,1.8,1.2,2.3c0.8,2.6,3,5.1,5.5,5.1
			c2.5,0,4.7-2.5,5.5-5.1c1.2-0.6,1.3-1.6,1.2-2.3c0-0.4-0.4-0.6-0.8-0.4l-0.1,0.1"/>
		<path class="st0" d="M16.6,13.9c0,0.1,0,0.1,0.1,0.1c0.1,0,0.1,0,0.1-0.1c0-0.1,0-0.1-0.1-0.1C16.7,13.8,16.6,13.8,16.6,13.9z"/>
		<path class="st0" d="M18.1,12.5c0,0-0.3-0.4-1-0.5"/>
		<line class="st0" x1="5" y1="27.5" x2="5" y2="29.5"/>
		<path class="st0" d="M8.7,27.3H4.8c0,0-1-5.6,5.6-6.4c0,0,1,2,4.1,2"/>
		<path class="st0" d="M10.5,21.1c0,0,0.7-0.3,0.8-1.6"/>
		<path class="st0" d="M20.9,12.9c0,0,0.4-7.3-6.3-7.3c-6.7,0-6.3,7.3-6.3,7.3"/>
		<path class="st0" d="M20.3,13c-0.5-0.5-0.8-1.1-0.9-1.7c-0.1-0.5-0.4-1.2-0.8-1.8c-2.5,1.6-7.2-1.2-8.1,0
			c-0.4,0.6-0.7,1.3-0.8,1.8c-0.2,0.7-0.5,1.3-0.9,1.7"/>
		<line class="st0" x1="20.4" y1="26.6" x2="20.4" y2="29.5"/>
		<line class="st0" x1="24.1" y1="27.5" x2="24.1" y2="29.5"/>
		<path class="st0" d="M20.4,27.3h3.9c0,0,1-5.6-5.6-6.4c0,0-1,2-4.1,2"/>
		<path class="st0" d="M18.6,21.1c0,0-0.7-0.3-0.8-1.6"/>
	</g>
	<g>
		<line class="st1" x1="28" y1="28" x2="28" y2="29.5"/>
		<path class="st1" d="M39.2,29.5v-0.6c0,0,1.7-0.2,3.7-1.5c0.2-0.1,0.2-0.4,0.1-0.5c-0.1-0.1-0.2-0.2-0.3-0.4
			c-0.2-0.2-0.3-0.5-0.4-0.8c-0.2-0.6-1-2.2-3.8-2.7c0,0-0.6,1.7-2.6,2.3c-0.3,0.1-0.6,0.1-0.9,0.1v0c-0.3,0-0.6,0-0.9-0.1
			c-2-0.6-2.6-2.3-2.6-2.3c-2.8,0.6-3.6,2.1-3.8,2.7c-0.1,0.3-0.2,0.5-0.4,0.8c-0.1,0.2-0.2,0.3-0.3,0.4c-0.2,0.2-0.1,0.4,0.1,0.5
			c2,1.3,3.7,1.5,3.7,1.5v0.6"/>
		<path class="st1" d="M33.1,16.5C33.1,16.6,33.1,16.6,33.1,16.5c-0.2,0.1-0.2,0.1-0.2,0C32.9,16.5,32.9,16.4,33.1,16.5
			C33.1,16.4,33.1,16.5,33.1,16.5z"/>
		<path class="st1" d="M37,16.5C37,16.6,37,16.6,37,16.5c0.2,0.1,0.2,0.1,0.2,0C37.2,16.4,37.1,16.4,37,16.5
			C37,16.4,37,16.4,37,16.5z"/>
		<path class="st1" d="M34.4,20.5c0,0,0.2,0.2,0.8,0.2c0.6,0,0.8-0.2,0.8-0.2"/>
		<path class="st1" d="M35.3,10"/>
		<path class="st1" d="M29.6,15.2c-0.2,0-0.5,0.1-0.5,0.4c-0.1,0.6-0.1,1.7,1.2,2.2c0.7,2.4,2.6,4.7,4.9,4.7s4.2-2.3,4.9-4.7
			c1.3-0.5,1.3-1.6,1.2-2.2c0-0.2-0.3-0.4-0.5-0.4"/>
		<path class="st1" d="M34.9,18.7c0.1,0,0.1,0,0.2,0c0.1,0,0.1,0,0.2,0"/>
		<path class="st1" d="M29.6,15.1c0,0,4.8,0.4,6.5-2.5c0,0,1.4,2,4.4,2.5"/>
		<path class="st1" d="M33.7,9.9c-2.3,0.6-4,2.8-4,5.2"/>
		<path class="st1" d="M40.6,15.1c0-1.3-0.5-2.6-1.4-3.6"/>
		<path class="st1" d="M36.2,8.5c0,0-0.5-3.3,3-2.9c0,0,0.4,1.7-1.3,3.4"/>
		<path class="st1" d="M32.7,21.6c0,0-0.2,0.9-1,1.5"/>
		<path class="st1" d="M37.5,21.6c0,0,0.2,0.9,1,1.5"/>
		<line class="st1" x1="42.2" y1="28" x2="42.2" y2="29.5"/>
		<path class="st1" d="M39.7,9.1c-1.1-0.4-2-0.1-2.4,0.1l0,0C37.2,9.1,37.1,9.1,37,9c-0.1,0-0.3,0-0.4,0c-0.2-0.4-0.8-1.1-2-1.3
			c-0.8-0.1-1.3,1.8-1,2.1c0.3,0.3,1.2,0.7,2.3,0.4l0-0.1c0.1,0.2,0.3,0.4,0.6,0.5c0.3,0.1,0.6,0,0.8-0.2l0,0.1
			c0.8,0.8,1.8,0.9,2.2,0.8C39.9,11.3,40.5,9.4,39.7,9.1z"/>
		<path class="st1" d="M37.7,15.2c-0.2-0.1-0.4-0.2-0.7-0.3"/>
	</g>
</g>
</svg>
