<?xml version="1.0" encoding="utf-8"?>
<!-- Generator: Adobe Illustrator 26.3.1, SVG Export Plug-In . SVG Version: 6.00 Build 0)  -->
<svg version="1.1" id="Warstwa_1" xmlns="http://www.w3.org/2000/svg" xmlns:xlink="http://www.w3.org/1999/xlink" x="0px" y="0px"
	 viewBox="0 0 26.9 35" style="enable-background:new 0 0 26.9 35;" xml:space="preserve">
<style type="text/css">
	.st0{fill:none;stroke:#323232;stroke-width:0.7901;stroke-linecap:round;stroke-linejoin:round;stroke-miterlimit:10;}
</style>
<g>
	<line class="st0" x1="6.4" y1="28" x2="6.4" y2="29.5"/>
	<path class="st0" d="M17.6,29.5v-0.6c0,0,1.7-0.2,3.7-1.5c0.2-0.1,0.2-0.4,0.1-0.5c-0.1-0.1-0.2-0.2-0.3-0.4
		c-0.2-0.2-0.3-0.5-0.4-0.8c-0.2-0.6-1-2.2-3.8-2.7c0,0-0.6,1.7-2.6,2.3c-0.3,0.1-0.6,0.1-0.9,0.1v0c-0.3,0-0.6,0-0.9-0.1
		C10.6,24.7,10,23,10,23c-2.8,0.6-3.6,2.1-3.8,2.7C6.1,26,6,26.3,5.8,26.5c-0.1,0.2-0.2,0.3-0.3,0.4c-0.2,0.2-0.1,0.4,0.1,0.5
		c2,1.3,3.7,1.5,3.7,1.5v0.6"/>
	<path class="st0" d="M11.4,16.5C11.4,16.6,11.4,16.6,11.4,16.5c-0.2,0.1-0.2,0.1-0.2,0C11.3,16.5,11.3,16.4,11.4,16.5
		C11.4,16.4,11.4,16.5,11.4,16.5z"/>
	<path class="st0" d="M15.3,16.5C15.3,16.6,15.4,16.6,15.3,16.5c0.2,0.1,0.2,0.1,0.2,0C15.5,16.4,15.5,16.4,15.3,16.5
		C15.4,16.4,15.3,16.4,15.3,16.5z"/>
	<path class="st0" d="M12.7,20.5c0,0,0.2,0.2,0.8,0.2c0.6,0,0.8-0.2,0.8-0.2"/>
	<path class="st0" d="M13.6,10"/>
	<path class="st0" d="M7.9,15.2c-0.2,0-0.5,0.1-0.5,0.4c-0.1,0.6-0.1,1.7,1.2,2.2c0.7,2.4,2.6,4.7,4.9,4.7s4.2-2.3,4.9-4.7
		c1.3-0.5,1.3-1.6,1.2-2.2c0-0.2-0.3-0.4-0.5-0.4"/>
	<path class="st0" d="M13.3,18.7c0.1,0,0.1,0,0.2,0c0.1,0,0.1,0,0.2,0"/>
	<path class="st0" d="M8,15.1c0,0,4.8,0.4,6.5-2.5c0,0,1.4,2,4.4,2.5"/>
	<path class="st0" d="M12,9.9c-2.3,0.6-4,2.8-4,5.2"/>
	<path class="st0" d="M19,15.1c0-1.3-0.5-2.6-1.4-3.6"/>
	<path class="st0" d="M14.5,8.5c0,0-0.5-3.3,3-2.9c0,0,0.4,1.7-1.3,3.4"/>
	<path class="st0" d="M11.1,21.6c0,0-0.2,0.9-1,1.5"/>
	<path class="st0" d="M15.9,21.6c0,0,0.2,0.9,1,1.5"/>
	<line class="st0" x1="20.5" y1="28" x2="20.5" y2="29.5"/>
	<path class="st0" d="M18,9.1c-1.1-0.4-2-0.1-2.4,0.1l0,0c-0.1-0.1-0.2-0.1-0.3-0.2c-0.1,0-0.3,0-0.4,0c-0.2-0.4-0.8-1.1-2-1.3
		c-0.8-0.1-1.3,1.8-1,2.1c0.3,0.3,1.2,0.7,2.3,0.4l0-0.1c0.1,0.2,0.3,0.4,0.6,0.5c0.3,0.1,0.6,0,0.8-0.2l0,0.1
		c0.8,0.8,1.8,0.9,2.2,0.8C18.2,11.3,18.8,9.4,18,9.1z"/>
	<path class="st0" d="M16.1,15.2c-0.2-0.1-0.4-0.2-0.7-0.3"/>
</g>
</svg>
