<svg width="301" height="301" viewBox="0 0 301 301" fill="none" xmlns="http://www.w3.org/2000/svg">
<path d="M59.73 76.82H84.87V85.82H69.38V102.2H80.53V111.2H69.38V129.88H84.87V139.26H59.73V76.82ZM97.62 76.82L103.38 113.82C104.083 118.118 104.437 122.465 104.44 126.82V127.97C104.534 123.234 104.888 118.507 105.5 113.81L111.08 76.81H120.55L109.49 139.31H99.39L88.24 76.82H97.62ZM126.31 76.82H151.45V85.82H135.96V102.2H147.11V111.2H135.96V129.88H151.45V139.26H126.31V76.82ZM168.45 139.36H158.8V76.82H172.96C183.41 76.82 187.96 82.04 187.96 94.88C187.96 102.32 186.37 107.1 181.85 110.29L188.94 139.29H178.94L173.01 113H168.41L168.45 139.36ZM168.45 104.04H172.25C176.95 104.04 178.19 101.47 178.19 94.57C178.19 87.93 176.59 85.89 171.9 85.89H168.45V104.04ZM199.52 76.82L205.8 101.82H206.42L212.35 76.82H222.18L210.94 113.42V139.36H201.29V114.57L189.8 76.82H199.52ZM69.04 155.66L73.29 192.66C73.6848 195.922 73.8918 199.204 73.91 202.49V203.73C74.26 197.27 74.44 193.19 74.7 191.42L79.48 155.66H87.72L92.85 192.66C93.3143 196.331 93.5215 200.03 93.47 203.73C93.74 198.5 93.91 194.43 94.27 191.42L98.27 155.66H107.39L97.65 218.16H89.6L84.26 181.82C83.8105 178.148 83.6067 174.449 83.65 170.75C83.29 177.57 83.03 181.64 82.85 183.06L77.71 218.12H69.66L59.8 155.66H69.04ZM122.51 155.66V181.15H132.16V155.66H141.8V218.16H132.15V190.16H122.5V218.16H112.94V155.66H122.51ZM151.73 155.66H176.87V164.66H161.38V181.03H172.53V190.03H161.38V208.82H176.87V218.21H151.73V155.66ZM193.87 218.16H184.22V155.66H198.38C208.83 155.66 213.43 160.88 213.43 173.72C213.43 181.15 211.84 185.93 207.32 189.12L214.41 218.12H204.41L198.47 191.82H193.87V218.16ZM193.87 182.83H197.68C202.37 182.83 203.61 180.27 203.61 173.36C203.61 166.72 202.01 164.69 197.32 164.69H193.87V182.83ZM221.22 155.66H246.37V164.66H230.87V181.03H242.03V190.03H230.87V208.82H246.37V218.21H221.22V155.66ZM230.85 76.96H239.35V79.54H236.47V94.82H233.71V79.54H230.85V76.96ZM240.59 76.96H244.25L246.05 86.84C246.207 87.7245 246.284 88.6215 246.28 89.52C246.286 88.6311 246.37 87.7444 246.53 86.87L248.25 76.96H251.97V94.82H249.39V83.53C249.39 83.03 249.39 81.99 249.59 80.42C249.39 81.63 249.26 82.47 249.16 82.95L246.91 94.82H245.54L243.39 82.96C243.14 81.52 243.01 80.66 242.97 80.43C243.09 81.77 243.14 82.81 243.14 83.54V94.82H240.59V76.96Z" fill="#212121"/>
<rect x="1.5" y="1.5" width="297.89" height="297.89" stroke="#212121" stroke-width="3"/>
</svg>
