<?xml version="1.0" encoding="utf-8"?>
<!-- Generator: Adobe Illustrator 26.3.1, SVG Export Plug-In . SVG Version: 6.00 Build 0)  -->
<svg version="1.1" id="Warstwa_1" xmlns="http://www.w3.org/2000/svg" xmlns:xlink="http://www.w3.org/1999/xlink" x="0px" y="0px"
	 viewBox="0 0 26.9 35" style="enable-background:new 0 0 26.9 35;" xml:space="preserve">
<style type="text/css">
	.st0{fill:none;stroke:#323232;stroke-width:1.0341;stroke-linecap:round;stroke-linejoin:round;stroke-miterlimit:10;}
</style>
<g>
	<path class="st0" d="M25.8,34.5v-3.8c0-1.7-0.9-3.8-2.4-4.7c-1.3-0.8-3.6-0.9-4.6-1.3c0,0-1.1,5.6-5.3,5.6c-4.2,0-5.3-5.6-5.3-5.6
		c-1,0.4-3.3,0.5-4.6,1.3c-1.5,0.9-2.4,3-2.4,4.7v3.8"/>
	<line class="st0" x1="7.2" y1="34.5" x2="7.2" y2="33.2"/>
	<circle class="st0" cx="10" cy="12.5" r="0.2"/>
	<circle class="st0" cx="16.8" cy="12.5" r="0.2"/>
	<path class="st0" d="M12.1,18.5c0,0,0.3,0.4,1.4,0.4s1.4-0.4,1.4-0.4"/>
	<path class="st0" d="M3.4,12.7c0.2,0.7,0.8,1.4,1.9,1.9c1.2,4.1,4.4,7.9,8.2,7.9c3.8,0,7-3.8,8.2-7.9c2.2-0.9,2.2-2.6,2-3.6
		c-0.1-0.4-0.5-0.7-0.9-0.6l-0.6,0.1"/>
	<path class="st0" d="M3.4,12.7c-0.2-0.6-0.2-1.3-0.1-1.8c0.1-0.4,0.5-0.7,0.9-0.6l0.6,0.1c0,0,7.1,2.3,11.3-5.6
		c0,0,0.9,4.1,6.1,5.6"/>
	<path class="st0" d="M13.2,15.1c0.1,0,0.2,0,0.3,0c0.1,0,0.2,0,0.3,0"/>
	<path class="st0" d="M13.6,0.6c0,0,6.4-0.9,9,6c0.5,1.2,0.8,2.5,0.9,3.7"/>
	<path class="st0" d="M3.6,13.1c0.1,0.5,0.2,1.4,0.3,1.9c0.4,2.1,1.1,5.2-0.7,6.9c0,0,2.9,0.9,6.1,0.5l0.2,0"/>
	<path class="st0" d="M13.5,0.6c0,0-6.4-0.9-9,6C4,7.8,3.7,9,3.6,10.3"/>
	<path class="st0" d="M9.8,21.3c-0.2,0.9-0.4,2.6-1.3,3.2c-0.1,0.1-0.2,0.1-0.3,0.2"/>
	<line class="st0" x1="19.7" y1="34.5" x2="19.7" y2="33.2"/>
	<path class="st0" d="M17.1,21.3c0.2,0.9,0.4,2.6,1.3,3.2c0.1,0.1,0.2,0.1,0.3,0.2"/>
	<path class="st0" d="M17.9,10.7c-0.2-0.2-0.5-0.3-0.9-0.4"/>
	<path class="st0" d="M23.5,13.1c-0.1,0.5-0.2,1.4-0.3,1.9c-0.4,2.1-1.1,5.2,0.7,6.9c0,0-2.9,0.9-6.1,0.5l-0.2,0"/>
</g>
</svg>
