<?xml version="1.0" encoding="utf-8"?>
<!-- Generator: Adobe Illustrator 26.3.1, SVG Export Plug-In . SVG Version: 6.00 Build 0)  -->
<svg version="1.1" id="Warstwa_1" xmlns="http://www.w3.org/2000/svg" xmlns:xlink="http://www.w3.org/1999/xlink" x="0px" y="0px"
	 viewBox="0 0 26.9 35" style="enable-background:new 0 0 26.9 35;" xml:space="preserve">
<style type="text/css">
	.st0{fill:none;stroke:#323232;stroke-width:1.0341;stroke-linecap:round;stroke-linejoin:round;stroke-miterlimit:10;}
</style>
<g>
	<path class="st0" d="M12.5,14.8c0.3,0.1,0.6,0.1,1,0.1s0.7,0,1-0.1"/>
	<circle class="st0" cx="10.8" cy="12.6" r="0.1"/>
	<path class="st0" d="M9.3,10.3c0,0,0.5-0.4,1.4-0.3"/>
	<path class="st0" d="M11.2,17c0,0,0.7,0.7,2.3,0.7s2.3-0.7,2.3-0.7"/>
	<path class="st0" d="M6.3,11.6l-0.1-0.1c-0.4-0.2-0.9,0.1-1,0.5C5,13,5.2,14.3,6.7,15c1,3.3,3.7,6.8,6.8,6.8c3.1,0,5.8-3.5,6.8-6.8
		c1.5-0.7,1.7-2,1.5-2.9c-0.1-0.5-0.6-0.7-1-0.5l-0.1,0.1"/>
	<circle class="st0" cx="16.2" cy="12.6" r="0.1"/>
	<path class="st0" d="M20.6,11.6c-0.6-0.6-1-1.4-1.1-2.2c-0.2-0.7-0.5-1.5-1-2.3c-3.1,2-8.9-1.5-10,0c-0.5,0.8-0.8,1.6-1,2.3
		c-0.2,0.8-0.6,1.5-1.1,2.2"/>
	<line class="st0" x1="13.2" y1="19.5" x2="13.6" y2="19.5"/>
	<path class="st0" d="M7,22.5c-2.1,0.4-5.2,1.7-6.2,5.6c-0.2,0.8-0.3,1.6-0.3,2.4v3.4"/>
	<path class="st0" d="M8.9,19.3L8.9,19.3c0,0.6-0.1,1.8-0.5,2.5"/>
	<line class="st0" x1="5.5" y1="30.2" x2="5.5" y2="33.9"/>
	<path class="st0" d="M17.7,10.3c0,0-0.5-0.4-1.4-0.3"/>
	<path class="st0" d="M13.5,25c-3.5,0-5.2-3.6-5.2-3.6S8.1,21.3,7,21.8c0,0,0.1,4,3.9,5.4c0,0,1.1-1.6,2.6-2"/>
	<polyline class="st0" points="11.2,27 12.4,28 13.5,28 	"/>
	<polyline class="st0" points="12.7,28 11.6,32.3 13.4,34.5 	"/>
	<path class="st0" d="M5.6,11.5c0,0-1.3-6.5,2.2-8.1l0,0c0.4-1,1.3-1.9,2.4-2.3c0.9-0.3,2-0.6,3.3-0.6"/>
	<path class="st0" d="M21.4,11.5c0,0,1.3-6.5-2.2-8.1l0,0c-0.4-1-1.3-1.9-2.4-2.3c-0.9-0.3-2-0.6-3.3-0.6"/>
	<path class="st0" d="M19.9,22.5c2.1,0.4,5.2,1.7,6.2,5.6c0.2,0.8,0.3,1.6,0.3,2.4v3.4"/>
	<path class="st0" d="M18,19.3L18,19.3c0,0.6,0.1,1.8,0.5,2.5"/>
	<line class="st0" x1="21.4" y1="30.2" x2="21.4" y2="33.9"/>
	<path class="st0" d="M13.5,25c3.5,0,5.2-3.6,5.2-3.6s0.2-0.2,1.3,0.3c0,0-0.1,4-3.9,5.4c0,0-1.1-1.6-2.6-2"/>
	<polyline class="st0" points="15.7,27 14.6,28 13.5,28 	"/>
	<polyline class="st0" points="14.2,28 15.3,32.3 13.5,34.5 	"/>
</g>
</svg>
