<?xml version="1.0" encoding="UTF-8"?><svg id="a" xmlns="http://www.w3.org/2000/svg" viewBox="0 0 551.6 517.48"><defs><style>.b,.c{fill:#2a2523;}.c{fill-rule:evenodd;}</style></defs><path class="b" d="M329.01,72.04c61.39,0,117.07,24.98,157.4,65.32,40.33,40.21,65.19,95.88,65.19,157.4s-24.86,117.2-65.19,157.4c-40.33,40.33-96.01,65.32-157.4,65.32-17.25,0-34.12-2.03-50.22-5.71h46.92c3.81,0,6.72-3.04,6.72-6.72h0v-1.01c56.44-1.01,107.43-24.22,144.46-61.26,37.92-37.93,61.26-90.18,61.26-148.02s-23.34-110.09-61.26-148.01c-37.8-37.8-90.18-61.26-147.89-61.26s-110.09,23.46-148.01,61.26c-36.66,36.65-59.74,86.88-61.26,142.43h0c-.25,3.55-3.3,6.21-6.85,6.09-3.42-.13-6.34-2.92-6.47-6.34,1.52-59.23,26.13-112.63,65.07-151.57,40.33-40.34,96.01-65.32,157.52-65.32h0Zm-50.48,425.78l1.9,.51h-2.03l.13-.51Z"/><rect class="b" x="322.29" y="44.9" width="13.44" height="38.81"/><path class="b" d="M299.33,0h59.23c4.19,0,7.87,1.65,10.66,4.44,2.66,2.66,4.44,6.47,4.44,10.65v23.46c0,4.19-1.78,7.99-4.44,10.65h0c-2.79,2.79-6.6,4.44-10.66,4.44h-59.23c-4.06,0-7.87-1.65-10.53-4.44h-.12c-2.67-2.67-4.44-6.47-4.44-10.65V15.09c0-4.19,1.77-7.87,4.44-10.65h0c2.79-2.79,6.59-4.44,10.65-4.44h0Zm59.23,13.44h-59.23c-.38,0-.76,.13-1.14,.51h0c-.25,.25-.51,.63-.51,1.14v23.46c0,.51,.25,.89,.51,1.27h0c.25,.25,.76,.38,1.14,.38h59.23c.51,0,.89-.13,1.14-.38h0c.38-.38,.51-.76,.51-1.27V15.09c0-.51-.12-.89-.51-1.14-.25-.38-.76-.51-1.14-.51h0Z"/><path class="b" d="M431.49,44.14l38.05,20.42c2.41,1.27,4.05,3.55,4.82,5.96v.13h.13c.63,2.41,.51,5.2-.76,7.61l-8.75,16.23c-1.27,2.41-3.55,4.19-5.96,4.95h-.12c-2.41,.76-5.2,.51-7.61-.76l-38.05-20.42c-2.41-1.4-4.06-3.56-4.82-6.09h0c-.76-2.53-.63-5.2,.76-7.73l8.63-16.11c1.27-2.41,3.55-4.19,5.96-4.95h.13c2.41-.76,5.2-.51,7.61,.76h0Zm28.79,30.7l-32.22-17.25-5.58,10.4,32.22,17.25,5.58-10.4Z"/><polygon class="c" points="441 86.37 428.44 109.71 416.65 103.36 429.08 80.03 441 86.37"/><path class="c" d="M410.43,343.21l-3.55-14.46c-.89-3.68,1.27-7.35,4.95-8.24h0c3.55-.89,7.36,1.27,8.25,4.95l7.87,32.22c.51,1.65,.25,3.43-.63,4.82v.13l-.13,.13c-.89,1.27-2.41,2.29-4.06,2.67l-32.6,6.34c-3.68,.77-7.23-1.65-7.99-5.33h0c-.63-3.68,1.78-7.23,5.33-7.99l14.72-2.92-59.99-43.38c-3.17-2.29-2.16-6.09-2.16-10.15h0c0-4.06,6.85-4.57,10.15-2.16l59.87,43.38Z"/><path class="b" d="M337.63,286.13c-1.14-1.14-2.54-2.03-3.93-2.66h-.13c-1.39-.63-2.92-.89-4.57-.89-1.77,0-3.3,.25-4.69,.89h0c-1.52,.63-2.79,1.52-3.93,2.66-2.28,2.16-3.55,5.2-3.55,8.62,0,1.65,.25,3.3,.88,4.69h0c.51,1.39,1.53,2.79,2.67,3.93,2.16,2.15,5.2,3.55,8.62,3.55,1.65,0,3.17-.25,4.57-.89h.13c1.39-.63,2.79-1.52,3.93-2.66,2.15-2.16,3.55-5.2,3.55-8.63,0-1.65-.38-3.3-.88-4.69h0c-.64-1.39-1.53-2.79-2.67-3.93h0Zm1.14-14.96c3.17,1.27,5.96,3.17,8.25,5.45,2.41,2.41,4.31,5.2,5.58,8.37h0c1.27,3.05,2.03,6.34,2.03,9.77,0,7.11-2.92,13.45-7.61,18.14-2.29,2.28-5.07,4.19-8.25,5.45v.13c-3.04,1.14-6.34,1.9-9.77,1.9-7.1,0-13.57-2.92-18.14-7.48-2.41-2.41-4.19-5.2-5.58-8.37h0c-1.27-3.05-1.91-6.34-1.91-9.77,0-7.1,2.79-13.44,7.49-18.14,2.29-2.28,5.07-4.19,8.25-5.45v-.13c3.04-1.14,6.34-1.9,9.89-1.9s6.72,.76,9.77,1.9v.13Z"/><path class="b" d="M329.01,133.68c44.39,0,84.72,18.01,113.9,47.18,29.04,29.17,47.18,69.38,47.18,113.89s-18.14,84.72-47.18,113.9c-29.17,29.17-69.5,47.19-113.9,47.19-18.9,0-36.91-3.17-53.78-9.13l.13-.13c-2.92-2.03-3.81-5.83-2.03-9,1.53-2.79,4.95-4.06,7.99-3.04h.13v.12c.25,0,.38,.13,.63,.13h0c14.71,4.95,30.44,7.6,46.93,7.6,40.71,0,77.62-16.49,104.38-43.25,26.64-26.63,43.25-63.67,43.25-104.38s-16.61-77.75-43.25-104.38c-26.76-26.76-63.67-43.25-104.38-43.25s-77.75,16.49-104.51,43.25c-26.64,26.63-43.25,63.67-43.25,104.38,0,12.81,1.65,25.24,4.69,37.04,.25,2.15-.51,4.19-2.16,5.71-1.77,1.65-4.31,2.16-6.59,1.39-1.9-.51-3.43-1.9-4.19-3.67-3.3-12.94-5.07-26.51-5.07-40.46,0-44.52,18.01-84.72,47.18-113.89,29.04-29.17,69.38-47.18,113.9-47.18h0Z"/><path class="c" d="M96.78,504.03h239.2c3.81,0,6.72,2.92,6.72,6.72h0c0,3.68-2.92,6.72-6.72,6.72H96.78c-3.68,0-6.72-3.04-6.72-6.72h0c0-3.8,3.04-6.72,6.72-6.72h0Z"/><path class="c" d="M189.75,466.36h91.7c3.68,0,6.72,3.05,6.72,6.73h0c0,3.68-3.05,6.72-6.72,6.72h-91.7c-3.68,0-6.72-3.04-6.72-6.72h0c0-3.68,3.05-6.73,6.72-6.73h0Z"/><path class="c" d="M79.02,431.61h125.57c3.67,0,6.72,2.92,6.72,6.59h0c0,3.81-3.05,6.73-6.72,6.73H79.02c-3.68,0-6.72-2.92-6.72-6.73h0c0-3.67,3.04-6.59,6.72-6.59h0Z"/><path class="c" d="M6.6,372H216.38c3.68,0,6.72,3.04,6.72,6.72h0c0,3.68-3.04,6.72-6.72,6.72H6.6c-3.68,0-6.6-3.04-6.6-6.72H0c0-3.68,2.92-6.72,6.6-6.72h0Z"/><path class="c" d="M62.03,316.07h89.41c3.68,0,6.72,3.04,6.72,6.72h0c0,3.81-3.05,6.72-6.72,6.72H62.03c-3.68,0-6.72-2.91-6.72-6.72h0c0-3.68,3.04-6.72,6.72-6.72h0Z"/></svg>