<?xml version="1.0" encoding="UTF-8"?><svg id="a" xmlns="http://www.w3.org/2000/svg" viewBox="0 0 14 14"><defs><style>.b{fill:#606060;}</style></defs><path class="b" d="M7,1.17c3.22,0,5.83,2.62,5.83,5.83s-2.62,5.83-5.83,5.83S1.17,10.22,1.17,7,3.78,1.17,7,1.17Zm0-1.17C3.13,0,0,3.13,0,7s3.13,7,7,7,7-3.13,7-7S10.87,0,7,0Zm0,3.35c.4,0,.73,.33,.73,.73s-.33,.73-.73,.73-.73-.33-.73-.73,.33-.73,.73-.73Zm1.17,7.15h-2.33v-.58c.28-.1,.58-.12,.58-.43v-2.61c0-.31-.3-.36-.58-.46v-.58h1.75v3.65c0,.31,.3,.33,.58,.43v.58Z"/></svg>