<?xml version="1.0" encoding="utf-8"?>
<!-- Generator: Adobe Illustrator 26.3.1, SVG Export Plug-In . SVG Version: 6.00 Build 0)  -->
<svg version="1.1" id="Warstwa_1" xmlns="http://www.w3.org/2000/svg" xmlns:xlink="http://www.w3.org/1999/xlink" x="0px" y="0px"
	 viewBox="0 0 397.4 88.8" style="enable-background:new 0 0 397.4 88.8;" xml:space="preserve">
<style type="text/css">
	.st0{fill:#020203;}
	.st1{fill:#FFFFFF;}
</style>
<g>
	<g>
		<g>
			<rect x="54.1" y="56" class="st0" width="1.3" height="3"/>
			<path class="st0" d="M65.3,77.3c0,0-2.4-23.5-2.4-32.9c0-9.4,2.2-34,2.2-34c0-3.3-2.1-8.4-6.4-9.8C57.4,0.2,56.2,0,54.9,0l-0.8,0
				c-1.2,0-2.3,0.2-3.4,0.5c-4,1.3-6.7,6-6.7,9.3c0,0,1.8,25.1,1.8,34.6c0,9.4-1.8,32.9-1.8,32.9c0,3.1,2.6,8.9,6.2,10.5
				c1.5,0.7,3.2,1,4.9,1h0c1.2,0,2.3-0.1,3.4-0.5C62.5,87.1,65.3,80.5,65.3,77.3z M63.4,57.3"/>
		</g>
	</g>
	<g>
		<circle class="st1" cx="51" cy="22" r="1.8"/>
		<circle class="st1" cx="58.2" cy="22" r="1.8"/>
		<circle class="st1" cx="51" cy="28" r="1.8"/>
		<circle class="st1" cx="58.2" cy="28" r="1.8"/>
	</g>
	<g>
		<circle class="st1" cx="51" cy="65" r="1.8"/>
		<circle class="st1" cx="58.2" cy="65" r="1.8"/>
		<circle class="st1" cx="51" cy="71" r="1.8"/>
		<circle class="st1" cx="58.2" cy="71" r="1.8"/>
	</g>
</g>
<g>
	<g>
		<g>
			<rect x="77.9" y="61.7" class="st0" width="1.1" height="2.5"/>
			<path class="st0" d="M87,79.3c0,0-2-19.4-2-27.2c0-7.8,1.8-28.1,1.8-28.1c0-2.7-1.7-6.9-5.3-8.1c-1-0.3-2-0.5-3.1-0.5l-0.7,0
				c-1,0-1.9,0.1-2.8,0.4c-3.3,1-5.6,5-5.6,7.7c0,0,1.5,20.8,1.5,28.6c0,7.8-1.5,27.2-1.5,27.2c0,2.6,2.2,7.4,5.1,8.7
				c1.3,0.6,2.7,0.9,4.1,0.9h0c1,0,1.9-0.1,2.8-0.4C84.7,87.4,87,82,87,79.3z M85.5,62.8"/>
		</g>
	</g>
	<g>
		<circle class="st1" cx="75.3" cy="33.6" r="1.5"/>
		<circle class="st1" cx="81.2" cy="33.6" r="1.5"/>
		<circle class="st1" cx="75.3" cy="38.6" r="1.5"/>
		<circle class="st1" cx="81.2" cy="38.6" r="1.5"/>
	</g>
	<g>
		<circle class="st1" cx="75.3" cy="69.1" r="1.5"/>
		<circle class="st1" cx="81.2" cy="69.1" r="1.5"/>
		<circle class="st1" cx="75.3" cy="74.1" r="1.5"/>
		<circle class="st1" cx="81.2" cy="74.1" r="1.5"/>
	</g>
</g>
<g>
	<g>
		<g>
			<rect x="30.7" y="61.7" class="st0" width="1.1" height="2.5"/>
			<path class="st0" d="M39.9,79.3c0,0-2-19.4-2-27.2c0-7.8,1.8-28.1,1.8-28.1c0-2.7-1.7-6.9-5.3-8.1c-1-0.3-2-0.5-3.1-0.5l-0.7,0
				c-1,0-1.9,0.1-2.8,0.4c-3.3,1-5.6,5-5.6,7.7c0,0,1.5,20.8,1.5,28.6c0,7.8-1.5,27.2-1.5,27.2c0,2.6,2.2,7.4,5.1,8.7
				c1.3,0.6,2.7,0.9,4.1,0.9h0c1,0,1.9-0.1,2.8-0.4C37.6,87.4,39.9,82,39.9,79.3z M38.4,62.8"/>
		</g>
	</g>
	<g>
		<circle class="st1" cx="28.2" cy="33.6" r="1.5"/>
		<circle class="st1" cx="34.1" cy="33.6" r="1.5"/>
		<circle class="st1" cx="28.2" cy="38.6" r="1.5"/>
		<circle class="st1" cx="34.1" cy="38.6" r="1.5"/>
	</g>
	<g>
		<circle class="st1" cx="28.2" cy="69.1" r="1.5"/>
		<circle class="st1" cx="34.1" cy="69.1" r="1.5"/>
		<circle class="st1" cx="28.2" cy="74.1" r="1.5"/>
		<circle class="st1" cx="34.1" cy="74.1" r="1.5"/>
	</g>
</g>
<g>
	<g>
		<g>
			<rect x="101.3" y="65.3" class="st0" width="0.9" height="2.2"/>
			<path class="st0" d="M109.2,80.6c0,0-1.7-16.8-1.7-23.6c0-6.8,1.6-24.3,1.6-24.3c0-2.4-1.5-6-4.6-7c-0.9-0.3-1.8-0.4-2.7-0.4
				l-0.6,0c-0.8,0-1.7,0.1-2.5,0.4c-2.9,0.9-4.8,4.3-4.8,6.7c0,0,1.3,18,1.3,24.7c0,6.7-1.3,23.6-1.3,23.6c0,2.2,1.9,6.4,4.5,7.5
				c1.1,0.5,2.3,0.7,3.5,0.7h0c0.8,0,1.6-0.1,2.4-0.3C107.3,87.6,109.2,82.9,109.2,80.6z M107.9,66.2"/>
		</g>
	</g>
	<g>
		<circle class="st1" cx="99.1" cy="41" r="1.3"/>
		<circle class="st1" cx="104.2" cy="41" r="1.3"/>
		<circle class="st1" cx="99.1" cy="45.3" r="1.3"/>
		<circle class="st1" cx="104.2" cy="45.3" r="1.3"/>
	</g>
	<g>
		<circle class="st1" cx="99.1" cy="71.8" r="1.3"/>
		<circle class="st1" cx="104.2" cy="71.8" r="1.3"/>
		<circle class="st1" cx="99.1" cy="76.1" r="1.3"/>
		<circle class="st1" cx="104.2" cy="76.1" r="1.3"/>
	</g>
</g>
<g>
	<g>
		<g>
			<rect x="7.3" y="65.3" class="st0" width="0.9" height="2.2"/>
			<path class="st0" d="M15.2,80.6c0,0-1.7-16.8-1.7-23.6c0-6.8,1.6-24.3,1.6-24.3c0-2.4-1.5-6-4.6-7c-0.9-0.3-1.8-0.4-2.7-0.4
				l-0.6,0c-0.8,0-1.7,0.1-2.5,0.4C1.9,26.5,0,29.9,0,32.2c0,0,1.3,18,1.3,24.7C1.3,63.7,0,80.6,0,80.6c0,2.2,1.9,6.4,4.5,7.5
				c1.1,0.5,2.3,0.7,3.5,0.7h0c0.8,0,1.6-0.1,2.4-0.3C13.2,87.6,15.2,82.9,15.2,80.6z M13.9,66.2"/>
		</g>
	</g>
	<g>
		<circle class="st1" cx="5" cy="41" r="1.3"/>
		<circle class="st1" cx="10.2" cy="41" r="1.3"/>
		<circle class="st1" cx="5" cy="45.3" r="1.3"/>
		<circle class="st1" cx="10.2" cy="45.3" r="1.3"/>
	</g>
	<g>
		<circle class="st1" cx="5" cy="71.8" r="1.3"/>
		<circle class="st1" cx="10.2" cy="71.8" r="1.3"/>
		<circle class="st1" cx="5" cy="76.1" r="1.3"/>
		<circle class="st1" cx="10.2" cy="76.1" r="1.3"/>
	</g>
</g>
<g>
	<path d="M134.9,52c4.3,0,5.6,0.4,7.4,2.2c1.6,1.6,2.2,3.6,2.2,6.9c0,4.5-0.8,6.4-3.2,8c2.9,1.1,3.9,3.2,3.9,8.4
		c0,4.3-0.5,6.3-1.9,8c-1.6,1.8-3.9,2.6-7.9,2.6h-5V52H134.9z M136.1,67c2.9,0,3.5-0.9,3.5-5.5c0-3.8-0.7-4.8-3.5-4.8h-0.7V67H136.1
		z M135.9,83.3c3.5,0,4.3-1.1,4.3-5.8s-0.8-5.8-4.3-5.8h-0.5v11.7H135.9z"/>
	<path d="M173.3,78.9c0,4.3-0.2,5.2-1.1,6.8c-1.2,1.8-3.5,3-6,3c-2.5,0-4.8-1.1-6-3c-1-1.6-1.1-2.5-1.1-6.8V61.2
		c0-4.3,0.2-5.2,1.1-6.8c1.2-1.8,3.5-2.9,6-2.9c2.5,0,4.8,1.1,6,2.9c1,1.6,1.1,2.5,1.1,6.8V78.9z M168.3,59.1c0-2.1-0.6-2.9-2.1-2.9
		c-1.5,0-2.1,0.9-2.1,2.9V81c0,2.1,0.6,2.9,2.1,2.9c1.5,0,2.1-0.9,2.1-2.9V59.1z"/>
	<path d="M191.3,88h-4.9l4.9-36h6.5l4.7,36h-4.9l-0.9-8.1h-4.5L191.3,88z M194.4,58.6l-1.7,16.7h3.5L194.4,58.6z"/>
	<path d="M220.8,52c4,0,5.9,0.6,7.3,2.5c1.3,1.7,1.9,4.1,1.9,7.5c0,4.5-0.5,6.1-2.5,8.7L231,88h-5.4l-2.9-15.5
		c-0.9,0.2-1,0.2-1.8,0.2V88h-5V52H220.8z M221.6,67.7c1.6,0,2.5-0.4,3-1.3c0.4-0.7,0.5-1.6,0.5-4.9c0-3.9-0.7-4.8-3.5-4.8h-0.7v11
		H221.6z"/>
	<path d="M249.9,52c3.5,0,5.1,0.5,6.6,2c1.5,1.5,2.3,3.6,2.3,6.3v19.4c0,2.7-0.8,4.9-2.3,6.3c-1.5,1.5-3.1,2-6.6,2h-5.3V52H249.9z
		 M250.2,83.3c2.8,0,3.6-0.8,3.6-3.6V60.3c0-2.8-0.9-3.6-3.6-3.6h-0.6v26.6H250.2z"/>
	<path d="M277.8,71.5V88h-5V52h5v14.8h4.1V52h5v36h-5V71.5H277.8z"/>
	<path d="M315.1,78.9c0,4.3-0.2,5.2-1.1,6.8c-1.2,1.8-3.5,3-6,3s-4.8-1.1-6-3c-1-1.6-1.1-2.5-1.1-6.8V61.2c0-4.3,0.2-5.2,1.1-6.8
		c1.2-1.8,3.5-2.9,6-2.9s4.8,1.1,6,2.9c1,1.6,1.1,2.5,1.1,6.8V78.9z M310.1,59.1c0-2.1-0.6-2.9-2.1-2.9c-1.5,0-2.1,0.9-2.1,2.9V81
		c0,2.1,0.6,2.9,2.1,2.9c1.5,0,2.1-0.9,2.1-2.9V59.1z"/>
	<path d="M334.1,81c0,2.1,0.6,2.9,2.1,2.9c1.5,0,2.1-0.9,2.1-2.9V52h5v26.9c0,4.3-0.2,5.2-1.1,6.8c-1.2,1.8-3.5,2.9-6,2.9
		s-4.8-1.1-6-2.9c-1-1.6-1.1-2.5-1.1-6.8V52h5V81z"/>
	<path d="M361.9,77.4V79c0,3.7,0.6,4.9,2.6,4.9c1.5,0,2.3-1.2,2.3-3.6c0-2.4-0.6-3.8-3.1-7.1l-2.5-3.7c-3.1-4.6-4.1-7.1-4.1-10.3
		c0-4.8,2.9-7.8,7.4-7.8c3.4,0,5.9,1.9,6.6,5.2c0.3,1.3,0.3,1.5,0.3,4.5l-4.9,0.5c0-1.8-0.1-2.5-0.2-3.2c-0.2-1.5-1-2.3-2.1-2.3
		c-1.3,0-2.1,1.2-2.1,3.3c0,2.2,0.2,2.7,3.6,7.7l2.5,3.7c2.3,3.4,3.6,7.1,3.6,10.2c0,4.8-2.6,7.5-7.3,7.5c-2.7,0-4.6-0.9-6-2.8
		c-1.2-1.6-1.6-3.1-1.6-6.3c0-0.8,0-1.1,0.1-1.9L361.9,77.4z"/>
	<path d="M397,52v4.7h-7.1v10.1h5v4.7h-5v11.8h7.6V88h-12.6V52H397z"/>
</g>
</svg>
