<?xml version="1.0" encoding="UTF-8"?><svg id="a" xmlns="http://www.w3.org/2000/svg" viewBox="0 0 423.54 235.61"><defs><style>.b{fill:#3c3c3b;fill-rule:evenodd;}</style></defs><path class="b" d="M355.73,179.88c-.59-.46-1.19-.92-1.78-1.32-.66-.46-1.39-.92-2.18-1.32-.73-.4-1.45-.73-2.25-1.06h0c-.79-.33-1.58-.59-2.38-.86-.86-.26-1.65-.46-2.51-.59-.79-.2-1.65-.33-2.51-.4-.79-.07-1.65-.13-2.51-.13s-1.72,.07-2.58,.13c-.86,.07-1.65,.2-2.51,.4-.86,.13-1.65,.33-2.44,.59-.79,.27-1.65,.53-2.38,.86h0c-.79,.33-1.59,.66-2.31,1.06-.73,.4-1.45,.86-2.18,1.32-.73,.46-1.39,.99-2.05,1.52-.66,.53-1.25,1.12-1.85,1.72h-.07c-.59,.59-1.12,1.26-1.65,1.92-.53,.59-1.06,1.32-1.52,1.98-.46,.73-.92,1.45-1.32,2.18-.4,.79-.79,1.52-1.06,2.31-.33,.79-.66,1.58-.86,2.38-.26,.86-.46,1.65-.66,2.51-.13,.79-.26,1.65-.33,2.51-.07,.79-.13,1.65-.13,2.51s.07,1.72,.13,2.58c.07,.86,.2,1.65,.33,2.51,.2,.86,.4,1.65,.66,2.44,.2,.86,.53,1.65,.86,2.38,.27,.79,.66,1.58,1.06,2.31,.4,.73,.86,1.45,1.32,2.18,.46,.73,.99,1.39,1.52,2.05,.53,.66,1.06,1.25,1.65,1.85h.07c.59,.66,1.19,1.19,1.85,1.72,.66,.53,1.32,1.06,2.05,1.52,.73,.46,1.45,.92,2.18,1.32,.73,.4,1.52,.79,2.31,1.06,.73,.33,1.58,.66,2.38,.86,.79,.26,1.65,.46,2.44,.66,.86,.13,1.65,.26,2.51,.33,.86,.07,1.72,.13,2.58,.13s1.72-.07,2.51-.13c.86-.07,1.72-.2,2.51-.33,.86-.2,1.65-.4,2.44-.66,.86-.2,1.65-.53,2.44-.86,.73-.26,1.52-.66,2.25-1.06,.79-.4,1.52-.86,2.18-1.32,.73-.46,1.39-.99,2.05-1.52,.66-.53,1.32-1.06,1.92-1.72h0c.59-.59,1.19-1.19,1.72-1.85,.53-.66,1.06-1.32,1.52-2.05,.46-.73,.86-1.45,1.32-2.18,.4-.73,.73-1.52,1.06-2.31,.33-.79,.59-1.59,.86-2.38h0c.26-.79,.46-1.65,.59-2.44,.2-.86,.33-1.65,.4-2.51,.07-.86,.13-1.72,.13-2.58s-.07-1.72-.13-2.51c-.07-.86-.2-1.72-.4-2.51-.13-.86-.33-1.65-.59-2.51-.26-.79-.53-1.58-.86-2.38-.33-.79-.66-1.52-1.06-2.25-.46-.79-.86-1.52-1.32-2.25-.46-.66-.99-1.39-1.52-1.98-.53-.66-1.12-1.32-1.72-1.92l-.13-.07v-.07l-.27-.26v.07l-.13-.2c-.53-.46-1.06-.99-1.65-1.39h0ZM107.04,116.02h-7.53c-2.64,0-4.82,2.18-4.82,4.82,0,2.18,1.39,3.37,1.39,3.43,.86,.86,2.11,1.39,3.43,1.39h7.53c1.32,0,2.51-.53,3.43-1.39,3.04-3.04,.79-8.25-3.43-8.25h0Zm-14.79-59.76h-28.86c-2.64,0-4.82,2.18-4.82,4.82,0,2.18,1.45,3.37,1.45,3.43,.86,.86,2.05,1.39,3.37,1.39h28.86c1.32,0,2.58-.53,3.43-1.39,3.04-3.04,.79-8.25-3.43-8.25h0Zm14.2,0h6.27c1.32,0,2.51,.59,3.37,1.45,.86,.86,1.45,2.05,1.45,3.37h0c0,1.32-.59,2.58-1.45,3.43h0c-.86,.86-2.05,1.39-3.37,1.39h-6.27c-1.32,0-2.51-.53-3.37-1.39h0c-.86-.86-1.39-2.11-1.39-3.43h0c0-1.32,.53-2.51,1.39-3.37,.86-.86,2.05-1.45,3.37-1.45h0ZM4.82,26.41H98.52c1.32,0,2.58,.53,3.43,1.39,.86,.92,1.39,2.11,1.39,3.43s-.53,2.51-1.39,3.37c-.86,.86-2.11,1.45-3.43,1.45H4.82c-1.32,0-2.58-.59-3.43-1.45h0c-.86-.86-1.39-2.05-1.39-3.37s.53-2.51,1.39-3.43h0c.86-.86,2.11-1.39,3.43-1.39h0Zm21.53,59.76H98.52c1.32,0,2.58,.53,3.43,1.39,.86,.92,1.39,2.11,1.39,3.43h0c0,1.32-.53,2.51-1.39,3.37-.86,.86-2.11,1.45-3.43,1.45H26.35c-1.32,0-2.58-.6-3.43-1.45-.86-.86-1.39-2.05-1.39-3.37h0c0-1.32,.53-2.51,1.39-3.43,.86-.86,2.11-1.39,3.43-1.39h0Zm14.99,29.85h42.79c1.32,0,2.58,.6,3.43,1.45h0c.86,.86,1.39,2.05,1.39,3.37h0c0,1.32-.53,2.58-1.39,3.43h0c-.86,.86-2.11,1.39-3.43,1.39H41.34c-1.32,0-2.51-.53-3.37-1.39s-1.45-2.11-1.45-3.43h0c0-1.32,.59-2.51,1.45-3.37,.86-.86,2.05-1.45,3.37-1.45h0Zm10.9,27.14h211.84l.13-.07,.13-.07h0l.46-.13-.07-.13,.13-.07v-.07l.07-.07h0q.07-.07,.07-.13h0l.07-.07v-.07s0-.07,.07-.13h0v-.13h0v-.13h0q.07-.07,.07-.13v-10.37h-.07l.07-.26v-.07h-.07l.07-.27v-.13h0V10.9h0v-.13h0c-.07-.07-.07-.13-.07-.13h0c0-.07,0-.13-.07-.2h0v-.07h0l-.07-.13h0q-.07-.07-.13-.13h0s0-.07-.07-.07c0-.07-.07-.07-.13-.13h0l-.07-.07h0c-.07-.07-.13-.07-.13-.07h0l-.07-.07h-.07c-.07,0-.07-.07-.13-.07h-.13l-.13-.07H40.41c-1.32,0-2.51-.53-3.37-1.39-.86-.86-1.45-2.11-1.45-3.43h0c0-1.32,.6-2.51,1.45-3.37,.86-.86,2.05-1.39,3.37-1.39h224.45c.4,.07,.73,.13,1.06,.2h.2c.33,.07,.59,.2,.86,.27,.33,.07,.66,.2,.99,.33,.33,.13,.66,.33,.99,.46,.33,.2,.66,.4,.92,.59,.33,.2,.6,.4,.86,.59,.26,.26,.53,.53,.79,.73v.07h.07c.26,.26,.46,.53,.73,.79h0c.2,.26,.4,.59,.59,.86,.2,.33,.4,.59,.59,.92,.13,.33,.33,.66,.46,.99h0c.13,.33,.26,.66,.33,1.06h0c.13,.33,.2,.66,.26,.99h0c.07,.4,.13,.73,.2,1.12,0,.33,.07,.66,.07,1.06V31.76h66.89c.59,0,1.12,0,1.72,.07,.53,.07,1.12,.13,1.65,.2,.6,.13,1.19,.26,1.72,.46,.59,.13,1.19,.33,1.78,.53,.6,.2,1.12,.46,1.72,.73,.59,.27,1.12,.53,1.72,.79,.53,.33,1.12,.66,1.65,.99,.53,.4,1.12,.73,1.58,1.12h.07c.53,.4,.99,.79,1.52,1.25h0c.46,.4,.99,.86,1.45,1.32,.46,.4,.92,.92,1.32,1.39h0c.46,.46,.86,.99,1.25,1.45,.4,.53,.79,1.06,1.12,1.58,.4,.46,.73,.99,.99,1.59h0c.26,.4,.53,.92,.79,1.39,.2,.46,.4,.92,.59,1.39h0l.13,.4h0l18.88,49h0l.13,.26,.26,.07c1.25,.2,2.51,.4,3.7,.73,1.25,.26,2.44,.59,3.63,.99,1.25,.4,2.38,.79,3.57,1.32,1.19,.46,2.31,.99,3.43,1.58,1.19,.6,2.38,1.25,3.5,1.98,1.12,.73,2.25,1.45,3.3,2.31h0c1.06,.79,2.11,1.65,3.04,2.58,.99,.86,1.98,1.85,2.91,2.84l.33,.4h0c.92,.99,1.78,2.05,2.64,3.1,.79,1.06,1.58,2.18,2.31,3.37,.79,1.19,1.45,2.44,2.11,3.7,.66,1.32,1.25,2.64,1.78,3.96h0c.53,1.32,.99,2.71,1.39,4.09,.4,1.32,.73,2.71,.99,4.16,.26,1.26,.46,2.58,.6,3.9,.13,1.25,.2,2.58,.2,3.9v.26h0v.53h0l.33,46.09h0v.86h0c-.07,.33-.07,.59-.13,.86h0c-.07,.26-.13,.53-.2,.79-.13,.26-.2,.59-.33,.79l-.07,.2h0c-.07,.2-.2,.4-.26,.59h0c-.13,.26-.33,.53-.46,.73-.13,.26-.33,.53-.53,.73h0c-.13,.2-.33,.46-.53,.66l-.4,.33-.07,.07-.07,.07c-.2,.13-.33,.26-.53,.4h0c-.2,.13-.4,.27-.59,.4-.2,.13-.4,.2-.59,.33h0c-.2,.13-.4,.2-.66,.33-.27,.07-.53,.2-.79,.26h0c-.26,.07-.53,.13-.79,.2h0c-.26,.07-.59,.07-.86,.13-.27,0-.59,.07-.86,.07h-39.75v1.19h0v.26h0v.33h0c0,1.19-.07,2.38-.13,3.5h0c-.13,1.19-.33,2.31-.53,3.43h0c-.2,1.12-.53,2.25-.86,3.37-.33,1.12-.73,2.25-1.19,3.3h0c-.4,1.06-.92,2.11-1.45,3.1-.53,1.06-1.19,2.05-1.78,3.04-.66,.92-1.39,1.85-2.11,2.77-.73,.92-1.52,1.78-2.31,2.58h0c-.86,.86-1.72,1.65-2.64,2.38-.86,.73-1.78,1.39-2.77,2.05-.92,.66-1.98,1.25-2.97,1.78-1.06,.59-2.11,1.06-3.17,1.52-1.06,.46-2.18,.86-3.24,1.19-1.12,.33-2.25,.6-3.37,.79-1.12,.26-2.31,.4-3.5,.53-1.12,.13-2.31,.2-3.43,.2-1.19,0-2.38-.07-3.5-.2-1.19-.13-2.31-.26-3.43-.53-1.12-.2-2.25-.46-3.37-.79-1.12-.33-2.25-.73-3.3-1.19-1.06-.46-2.11-.92-3.1-1.52-1.06-.53-2.05-1.12-3.04-1.78-.92-.66-1.85-1.32-2.77-2.05-.79-.66-1.59-1.39-2.38-2.11h0l-.2-.26c-.86-.79-1.65-1.65-2.38-2.58-.73-.92-1.45-1.85-2.05-2.77-.66-.99-1.25-1.98-1.78-3.04-.53-.86-.99-1.85-1.39-2.77h0l-.13-.33c-.46-1.06-.86-2.18-1.19-3.3-.33-1.12-.59-2.25-.79-3.37-.26-1.12-.4-2.25-.53-3.43-.13-1.12-.2-2.31-.2-3.5h0v-.59h0l.07-.66v-.53H163.37v.46h0v.4h0l.07,.33h0v.26h0v.33h0c0,1.19-.07,2.38-.2,3.5h0c-.13,1.19-.26,2.31-.53,3.43-.2,1.12-.46,2.25-.79,3.37-.4,1.12-.79,2.25-1.19,3.3-.46,1.06-.92,2.11-1.52,3.1-.53,1.06-1.12,2.05-1.78,3.04-.66,.92-1.32,1.85-2.05,2.77-.73,.86-1.45,1.65-2.18,2.38h0l-.2,.2c-.79,.86-1.72,1.65-2.58,2.38-.92,.73-1.85,1.39-2.84,2.05-.92,.66-1.91,1.25-2.97,1.78-.99,.59-2.05,1.06-3.1,1.52h0c-1.12,.46-2.18,.86-3.3,1.19-1.12,.33-2.24,.6-3.37,.79-1.12,.26-2.25,.4-3.43,.53-1.19,.13-2.31,.2-3.5,.2s-2.31-.07-3.5-.2c-1.12-.13-2.31-.26-3.43-.53-1.12-.2-2.25-.46-3.37-.79-1.12-.33-2.18-.73-3.24-1.19h0c-1.12-.46-2.11-.92-3.17-1.52-1.06-.53-2.05-1.12-2.97-1.78-.99-.66-1.91-1.32-2.84-2.05-.86-.73-1.78-1.52-2.58-2.38h0c-.86-.79-1.59-1.65-2.38-2.58-.73-.92-1.39-1.85-2.05-2.77-.66-.99-1.25-1.98-1.78-3.04-.53-.99-1.06-2.05-1.52-3.1-.4-1.06-.79-2.18-1.12-3.3-.33-1.06-.66-2.18-.86-3.37-.26-1.12-.4-2.25-.53-3.43-.13-1.12-.13-2.31-.13-3.5h0v-.33h0v-.26h0v-.73h0v-.46h-27.73c-.33,0-.66-.07-.99-.07h0c-.33-.07-.66-.07-.99-.13l-.2-.07h0c-.2-.07-.46-.13-.73-.2h0c-.33-.13-.66-.2-.92-.33-.33-.13-.6-.26-.92-.46h0c-.26-.13-.53-.33-.79-.46h-.07c-.26-.2-.46-.4-.73-.59-.26-.2-.53-.4-.73-.66l-.07-.07h0c-.26-.26-.46-.46-.66-.73h0c-.2-.26-.4-.53-.59-.79h0c-.2-.26-.33-.53-.53-.86-.13-.27-.26-.59-.4-.86-.13-.33-.2-.59-.33-.92-.07-.33-.2-.66-.26-.99,0-.26-.07-.53-.13-.79h0v-.86h0v-.26h0v-35.4h-2.44c-1.32,0-2.51-.59-3.43-1.45h0c-.86-.86-1.39-2.05-1.39-3.37h0c0-1.32,.53-2.51,1.39-3.43,.92-.86,2.11-1.39,3.43-1.39h0ZM292.53,62.8v-21.46h-17.7v99.78h0v.66c0,.33-.07,.73-.07,1.06-.07,.4-.13,.73-.2,1.06h0c-.07,.33-.13,.73-.26,1.06-.07,.33-.2,.66-.33,.99-.13,.4-.33,.66-.46,.99-.2,.33-.4,.66-.59,.92-.13,.26-.33,.53-.53,.79-.2,.26-.46,.53-.66,.73h0l-.2,.2h0c-.27,.26-.53,.46-.79,.73-.26,.2-.59,.46-.86,.66h0c-.33,.2-.59,.4-.92,.53-.33,.2-.66,.33-.99,.46-.33,.13-.66,.26-1.06,.4-.33,.13-.66,.2-.99,.26h0c-.33,.07-.73,.13-1.06,.13h0c-.4,.07-.73,.07-1.12,.07h-50.58c-25.75,0-50.19,0-74.55,.07H64.25v.2h0v35.59h30.04l.13-.4h0c.2-.53,.4-1.12,.66-1.65,.2-.59,.46-1.19,.73-1.72,.26-.53,.53-1.12,.86-1.65,.26-.53,.59-1.06,.92-1.59h0c.33-.59,.73-1.19,1.12-1.78,.4-.6,.86-1.12,1.26-1.72,.46-.53,.92-1.06,1.39-1.59,.4-.53,.86-.99,1.32-1.39v-.07l.13-.13c.79-.79,1.72-1.58,2.58-2.31,.92-.79,1.85-1.45,2.84-2.11,.92-.66,1.98-1.26,2.97-1.78,.99-.53,2.05-1.06,3.17-1.52h0c1.06-.4,2.11-.79,3.24-1.12h0c1.12-.33,2.25-.66,3.37-.86,1.12-.2,2.31-.4,3.43-.53,1.19-.07,2.31-.13,3.5-.13s2.31,.07,3.5,.13c1.19,.13,2.31,.33,3.43,.53,1.12,.2,2.25,.53,3.37,.86,1.12,.33,2.18,.73,3.3,1.19h0c1.06,.4,2.11,.92,3.1,1.45,1.06,.53,2.05,1.12,2.97,1.78,.99,.66,1.92,1.39,2.84,2.11,.92,.73,1.78,1.52,2.58,2.31h0c.53,.53,.99,1.06,1.45,1.58h0c.46,.53,.92,1.06,1.39,1.59,.4,.59,.86,1.12,1.25,1.72h0c.4,.59,.79,1.19,1.12,1.78,.33,.53,.66,1.06,.92,1.59,.33,.53,.59,1.12,.86,1.65,.26,.53,.46,1.12,.73,1.65,.26,.59,.46,1.19,.66,1.72l.13,.33h144.48l.13-.33c.2-.53,.4-1.12,.66-1.72,.2-.53,.46-1.12,.73-1.65,.26-.53,.53-1.12,.86-1.65,.26-.53,.59-1.06,.92-1.59,.33-.59,.73-1.19,1.12-1.78,.4-.6,.79-1.12,1.25-1.72,.46-.53,.92-1.06,1.39-1.59,.46-.53,.92-1.06,1.45-1.58h0c.79-.79,1.65-1.58,2.58-2.31,.92-.73,1.85-1.45,2.77-2.11,.99-.66,1.98-1.26,3.04-1.78,.99-.53,2.05-1.06,3.1-1.45h0c1.06-.46,2.18-.86,3.3-1.19h0c1.12-.33,2.24-.66,3.37-.86,1.12-.2,2.25-.4,3.43-.53,1.12-.07,2.31-.13,3.5-.13h0c1.12,0,2.31,.07,3.43,.13,1.19,.13,2.38,.33,3.5,.53,1.12,.2,2.24,.53,3.37,.86h0c1.06,.33,2.18,.73,3.24,1.19h0c1.06,.4,2.11,.92,3.17,1.45,.99,.53,2.05,1.19,2.97,1.78,.99,.66,1.91,1.39,2.84,2.11,.86,.73,1.72,1.52,2.58,2.31h0c.46,.53,.99,1.06,1.45,1.58,.46,.53,.92,1.06,1.32,1.59,.46,.59,.86,1.19,1.26,1.72h0c.46,.59,.79,1.19,1.19,1.78,.33,.53,.59,1.06,.92,1.59,.26,.53,.53,1.12,.79,1.65,.26,.53,.53,1.12,.79,1.65,.2,.59,.46,1.19,.66,1.72l.07,.4h40.74v-.07h0v-.53l-.26-44.64h0c0-1.19-.07-2.31-.2-3.43-.07-1.12-.26-2.25-.46-3.37-.2-1.12-.46-2.25-.79-3.3-.33-1.12-.66-2.18-1.06-3.24h0c-.46-1.06-.92-2.11-1.45-3.1s-1.06-1.98-1.65-2.97c-.66-.99-1.25-1.91-1.98-2.84h0c-.73-.86-1.45-1.78-2.25-2.58-.73-.86-1.58-1.65-2.44-2.44-.86-.79-1.72-1.52-2.64-2.18-.92-.66-1.91-1.32-2.9-1.91-.92-.59-1.98-1.12-2.97-1.65-1.06-.46-2.11-.92-3.17-1.32-1.06-.4-2.11-.73-3.24-1.06-1.06-.27-2.18-.53-3.3-.66-1.12-.2-2.25-.33-3.37-.46h-.07l-2.25-.13h-76.6c-.26,0-.53-.07-.79-.07s-.53-.07-.79-.13h-.2l-.59-.2h0c-.26-.07-.53-.13-.79-.26h0c-.2-.13-.46-.2-.73-.33-.2-.13-.46-.26-.66-.46-.27-.13-.46-.26-.73-.46h0c-.13-.13-.26-.26-.4-.4h0l-.2-.13h0l-.13-.13h0c-.13-.2-.26-.33-.46-.53h0c-.13-.2-.33-.46-.46-.66-.13-.2-.26-.46-.4-.73-.13-.2-.26-.46-.4-.73-.07-.27-.13-.53-.26-.79h0c-.07-.2-.13-.53-.2-.73,0-.26-.07-.46-.07-.73-.07-.2-.07-.46-.07-.73h0v-.2h0V62.8h0Zm9.58-21.46v55.8h70.92l-.26-.66h0l-17.17-44.64h0l-.13-.33h0l-.07-.2c-.13-.2-.2-.46-.33-.73h0c-.13-.26-.26-.46-.4-.73-.2-.33-.46-.66-.66-.99-.2-.33-.46-.6-.73-.92-.26-.33-.53-.66-.79-.99h0c-.33-.26-.59-.59-.92-.92-.2-.2-.4-.4-.66-.59-.26-.2-.46-.4-.73-.59l-.2-.13v-.07l-.4-.26c-.33-.26-.66-.46-.99-.66-.33-.26-.66-.46-.99-.66-.4-.2-.73-.33-1.06-.53-.33-.13-.66-.26-.99-.4h0c-.33-.13-.66-.26-.99-.33-.33-.13-.66-.2-.99-.26h0c-.13,0-.33-.07-.53-.07h0c-.2-.07-.4-.07-.59-.07l-.2-.07h-40.15ZM144.29,180.08c-.66-.59-1.39-1.06-2.05-1.52-.73-.46-1.45-.92-2.18-1.32-.73-.4-1.45-.73-2.25-1.06h0c-.79-.33-1.58-.59-2.38-.86-.79-.26-1.65-.46-2.44-.59-.86-.2-1.72-.33-2.51-.4-.86-.07-1.72-.13-2.58-.13s-1.72,.07-2.51,.13c-.86,.07-1.72,.2-2.58,.4-.79,.13-1.65,.33-2.44,.59-.79,.27-1.58,.53-2.38,.86-.79,.33-1.52,.66-2.31,1.06-.73,.4-1.45,.86-2.18,1.32-.66,.46-1.39,.99-1.98,1.52-.66,.53-1.32,1.12-1.92,1.72h0c-.59,.59-1.19,1.26-1.72,1.92h0c-.53,.59-1.06,1.32-1.52,2.05-.46,.66-.92,1.39-1.32,2.18-.4,.73-.73,1.45-1.06,2.25-.33,.79-.59,1.58-.86,2.38-.26,.86-.46,1.65-.59,2.51-.2,.79-.33,1.65-.4,2.51-.07,.79-.13,1.65-.13,2.51s.07,1.72,.13,2.58c.07,.86,.2,1.65,.4,2.51,.13,.79,.33,1.65,.59,2.44,.26,.79,.53,1.65,.86,2.38,.33,.79,.66,1.58,1.06,2.31,.4,.73,.86,1.45,1.32,2.18,.46,.73,.99,1.39,1.52,2.05,.53,.66,1.12,1.25,1.72,1.85h0c.59,.66,1.25,1.19,1.92,1.72,.59,.53,1.32,1.06,1.98,1.52,.73,.46,1.45,.92,2.18,1.32,.79,.4,1.52,.79,2.31,1.06,.79,.33,1.59,.66,2.38,.86,.79,.26,1.65,.46,2.44,.66,.86,.13,1.72,.26,2.58,.33,.79,.07,1.65,.13,2.51,.13s1.72-.07,2.58-.13c.79-.07,1.65-.2,2.51-.33,.79-.2,1.65-.4,2.44-.66h0c.79-.2,1.59-.53,2.38-.86,.79-.26,1.52-.66,2.25-1.06,.79-.4,1.52-.86,2.18-1.32,.73-.46,1.39-.99,2.05-1.52,.66-.53,1.32-1.06,1.91-1.72l.07-.07h0c.59-.53,1.12-1.19,1.65-1.78,.53-.66,.99-1.32,1.52-2.05,.46-.73,.86-1.45,1.32-2.18,.4-.73,.73-1.52,1.06-2.31,.33-.73,.59-1.59,.86-2.38,.2-.79,.46-1.65,.6-2.44,.2-.86,.26-1.65,.4-2.51,.07-.86,.13-1.72,.13-2.58s-.07-1.72-.13-2.51c-.13-.86-.2-1.72-.4-2.51-.13-.86-.4-1.65-.6-2.51-.26-.79-.53-1.58-.86-2.38-.33-.79-.66-1.52-1.06-2.25-.46-.79-.86-1.52-1.32-2.18-.46-.73-.99-1.39-1.52-2.05h0c-.53-.66-1.12-1.32-1.72-1.92l-.07-.07h0c-.6-.59-1.19-1.12-1.85-1.65h0Z"/></svg>