<?xml version="1.0" encoding="UTF-8"?><svg id="a" xmlns="http://www.w3.org/2000/svg" viewBox="0 0 26.93 35.03"><defs><style>.b{fill:none;stroke:#313131;stroke-linecap:round;stroke-linejoin:round;stroke-width:1.03px;}</style></defs><path class="b" d="M12.51,14.79c.29,.07,.62,.1,.97,.1s.68-.04,.97-.1"/><circle class="b" cx="10.78" cy="12.61" r=".13"/><path class="b" d="M9.29,10.28s.54-.41,1.36-.29"/><path class="b" d="M11.19,17.03s.67,.71,2.28,.71,2.28-.71,2.28-.71"/><path class="b" d="M6.26,11.63l-.14-.07c-.42-.21-.92,.06-.98,.53-.11,.89,.03,2.2,1.53,2.9,1.02,3.26,3.68,6.8,6.79,6.8s5.77-3.54,6.79-6.8c1.51-.7,1.65-2.02,1.54-2.9-.06-.47-.55-.74-.98-.53l-.15,.07"/><circle class="b" cx="16.17" cy="12.61" r=".13"/><path class="b" d="M20.61,11.55c-.56-.61-.95-1.35-1.15-2.16-.16-.66-.46-1.5-1.01-2.26-3.15,1.99-8.87-1.52-9.96,0-.55,.76-.85,1.6-1.01,2.26-.2,.8-.58,1.55-1.15,2.16"/><line class="b" x1="13.22" y1="19.47" x2="13.55" y2="19.47"/><path class="b" d="M6.99,22.51c-2.07,.43-5.18,1.73-6.19,5.63-.21,.79-.28,1.61-.28,2.43v3.35"/><path class="b" d="M8.93,19.31h0c0,.59-.14,1.82-.5,2.48"/><line class="b" x1="5.51" y1="30.16" x2="5.51" y2="33.92"/><path class="b" d="M17.66,10.28s-.54-.41-1.36-.29"/><path class="b" d="M13.47,25.04c-3.55,0-5.21-3.55-5.21-3.55,0,0-.21-.22-1.28,.33,0,0,.11,3.99,3.86,5.39,0,0,1.14-1.57,2.63-1.97"/><polyline class="b" points="11.19 27.02 12.36 27.99 13.46 27.99"/><polyline class="b" points="12.75 27.99 11.64 32.33 13.41 34.52"/><path class="b" d="M5.6,11.49s-1.26-6.46,2.19-8.1h0c.45-1.05,1.3-1.87,2.37-2.27,.85-.32,1.98-.6,3.32-.6"/><path class="b" d="M21.36,11.49s1.26-6.46-2.19-8.1h0c-.45-1.05-1.3-1.87-2.37-2.27-.85-.32-1.98-.6-3.32-.6"/><path class="b" d="M19.94,22.51c2.07,.43,5.18,1.73,6.19,5.63,.21,.79,.28,1.61,.28,2.43v3.35"/><path class="b" d="M18,19.31h0c0,.59,.14,1.82,.5,2.48"/><line class="b" x1="21.42" y1="30.16" x2="21.42" y2="33.93"/><path class="b" d="M13.45,25.04c3.55,0,5.21-3.55,5.21-3.55,0,0,.21-.22,1.28,.33,0,0-.11,3.99-3.86,5.39,0,0-1.14-1.57-2.63-1.97"/><polyline class="b" points="15.74 27.02 14.57 27.99 13.47 27.99"/><polyline class="b" points="14.18 27.99 15.28 32.33 13.51 34.52"/></svg>