<?xml version="1.0" encoding="UTF-8"?><svg id="a" xmlns="http://www.w3.org/2000/svg" xmlns:xlink="http://www.w3.org/1999/xlink" viewBox="0 0 195.37 53.51"><defs><style>.c{fill:#a70584;}.d{fill:#fff;}.e{fill:#36b587;}.f{clip-path:url(#b);}.g{fill:none;}.h{fill:#fad05b;}</style><clipPath id="b"><rect class="g" width="195.37" height="53.49"/></clipPath></defs><g class="f"><g><path class="c" d="M26.79,30.38H15.34v11.36h11.46v-11.36Z"/><path class="e" d="M26.74,14.97H15.28v11.46h11.46V14.97Z"/><path class="h" d="M11.46,30.25H0v11.46H11.46v-11.46Z"/><path class="d" d="M60.94,14.25c0,7.91-6.36,14.25-14.55,14.25h-6.25v13.06h-9.51V0h15.74c8.23,0,14.57,6.36,14.57,14.25Zm-9.49,0c0-3.04-2.14-5.35-5.04-5.35h-6.25v10.69h6.25c2.9,0,5.04-2.31,5.04-5.35Z"/><path class="d" d="M94.1,11.08v30.48h-9.15v-2.86c-2.01,2.31-5,3.72-9.09,3.72-7.98,0-14.57-7.01-14.57-16.1s6.59-16.1,14.57-16.1c4.09,0,7.07,1.39,9.09,3.72v-2.86h9.15Zm-9.15,15.24c0-4.56-3.06-7.43-7.26-7.43s-7.26,2.86-7.26,7.43,3.06,7.45,7.26,7.45,7.26-2.88,7.26-7.45Z"/><path class="d" d="M128.84,11.08l-10.35,29.37c-3.4,9.63-8.79,13.45-17.26,13.02v-8.48c4.24,0,6.25-1.34,7.56-5.02l-12.03-28.9h9.99l6.72,18.53,5.71-18.53h9.66Z"/><path class="d" d="M162.7,14.25c0,7.91-6.36,14.25-14.55,14.25h-6.25v13.06h-9.51V0h15.74c8.21,0,14.57,6.36,14.57,14.25Zm-9.49,0c0-3.04-2.14-5.35-5.04-5.35h-6.25v10.69h6.25c2.9,0,5.04-2.31,5.04-5.35Z"/><path class="d" d="M163.9,26.74c0-8.84,7.01-15.68,15.74-15.68s15.74,6.82,15.74,15.68-7.01,15.68-15.74,15.68-15.74-6.84-15.74-15.68Zm22.55,0c0-4.22-2.96-7.01-6.84-7.01s-6.84,2.79-6.84,7.01,2.96,7.01,6.84,7.01,6.84-2.81,6.84-7.01Z"/></g></g></svg>