<?xml version="1.0" encoding="utf-8"?>
<!-- Generator: Adobe Illustrator 26.3.1, SVG Export Plug-In . SVG Version: 6.00 Build 0)  -->
<svg version="1.1" id="Warstwa_1" xmlns="http://www.w3.org/2000/svg" xmlns:xlink="http://www.w3.org/1999/xlink" x="0px" y="0px"
	 viewBox="0 0 500 500" style="enable-background:new 0 0 500 500;" xml:space="preserve">
<style type="text/css">
	.st0{display:none;fill-rule:evenodd;clip-rule:evenodd;fill:#010202;}
	.st1{display:none;fill-rule:evenodd;clip-rule:evenodd;fill:#3C3C3B;}
	.st2{fill:#010202;}
	.st3{fill-rule:evenodd;clip-rule:evenodd;fill:#010202;}
	.st4{display:none;}
	.st5{display:inline;fill:#2A2523;}
	.st6{display:inline;fill-rule:evenodd;clip-rule:evenodd;fill:#2A2523;}
</style>
<path class="st0" d="M382.4,307.1c-0.5-0.4-1.1-0.9-1.6-1.2c-0.6-0.4-1.3-0.9-2-1.2c-0.7-0.4-1.3-0.7-2.1-1l0,0
	c-0.7-0.3-1.5-0.5-2.2-0.8c-0.8-0.2-1.5-0.4-2.3-0.5c-0.7-0.2-1.5-0.3-2.3-0.4c-0.7-0.1-1.5-0.1-2.3-0.1c-0.8,0-1.6,0.1-2.4,0.1
	c-0.8,0.1-1.5,0.2-2.3,0.4c-0.8,0.1-1.5,0.3-2.2,0.5c-0.7,0.2-1.5,0.5-2.2,0.8l0,0c-0.7,0.3-1.5,0.6-2.1,1c-0.7,0.4-1.3,0.8-2,1.2
	c-0.7,0.4-1.3,0.9-1.9,1.4c-0.6,0.5-1.2,1-1.7,1.6h-0.1c-0.5,0.5-1,1.2-1.5,1.8c-0.5,0.5-1,1.2-1.4,1.8c-0.4,0.7-0.8,1.3-1.2,2
	c-0.4,0.7-0.7,1.4-1,2.1c-0.3,0.7-0.6,1.5-0.8,2.2c-0.2,0.8-0.4,1.5-0.6,2.3c-0.1,0.7-0.2,1.5-0.3,2.3c-0.1,0.7-0.1,1.5-0.1,2.3
	c0,0.8,0.1,1.6,0.1,2.4c0.1,0.8,0.2,1.5,0.3,2.3c0.2,0.8,0.4,1.5,0.6,2.2c0.2,0.8,0.5,1.5,0.8,2.2c0.2,0.7,0.6,1.5,1,2.1
	c0.4,0.7,0.8,1.3,1.2,2c0.4,0.7,0.9,1.3,1.4,1.9c0.5,0.6,1,1.2,1.5,1.7h0.1c0.5,0.6,1.1,1.1,1.7,1.6c0.6,0.5,1.2,1,1.9,1.4
	c0.7,0.4,1.3,0.9,2,1.2c0.7,0.4,1.4,0.7,2.1,1c0.7,0.3,1.5,0.6,2.2,0.8c0.7,0.2,1.5,0.4,2.2,0.6c0.8,0.1,1.5,0.2,2.3,0.3
	c0.8,0.1,1.6,0.1,2.4,0.1c0.8,0,1.6-0.1,2.3-0.1c0.8-0.1,1.6-0.2,2.3-0.3c0.8-0.2,1.5-0.4,2.2-0.6c0.8-0.2,1.5-0.5,2.2-0.8
	c0.7-0.2,1.4-0.6,2.1-1c0.7-0.4,1.4-0.8,2-1.2c0.7-0.4,1.3-0.9,1.9-1.4c0.6-0.5,1.2-1,1.8-1.6l0,0c0.5-0.5,1.1-1.1,1.6-1.7
	c0.5-0.6,1-1.2,1.4-1.9c0.4-0.7,0.8-1.3,1.2-2c0.4-0.7,0.7-1.4,1-2.1c0.3-0.7,0.5-1.5,0.8-2.2l0,0c0.2-0.7,0.4-1.5,0.5-2.2
	c0.2-0.8,0.3-1.5,0.4-2.3c0.1-0.8,0.1-1.6,0.1-2.4c0-0.8-0.1-1.6-0.1-2.3c-0.1-0.8-0.2-1.6-0.4-2.3c-0.1-0.8-0.3-1.5-0.5-2.3
	c-0.2-0.7-0.5-1.5-0.8-2.2c-0.3-0.7-0.6-1.4-1-2.1c-0.4-0.7-0.8-1.4-1.2-2.1c-0.4-0.6-0.9-1.3-1.4-1.8c-0.5-0.6-1-1.2-1.6-1.8
	l-0.1-0.1v-0.1l-0.2-0.2v0.1l-0.1-0.2C383.4,307.9,382.9,307.4,382.4,307.1L382.4,307.1z M153.7,248.4h-6.9c-2.4,0-4.4,2-4.4,4.4
	c0,2,1.3,3.1,1.3,3.2c0.8,0.8,1.9,1.3,3.2,1.3h6.9c1.2,0,2.3-0.5,3.2-1.3C159.6,253.2,157.6,248.4,153.7,248.4L153.7,248.4z
	 M140.1,193.4h-26.5c-2.4,0-4.4,2-4.4,4.4c0,2,1.3,3.1,1.3,3.2c0.8,0.8,1.9,1.3,3.1,1.3h26.5c1.2,0,2.4-0.5,3.2-1.3
	C146,198.2,144,193.4,140.1,193.4L140.1,193.4z M153.1,193.4h5.8c1.2,0,2.3,0.5,3.1,1.3c0.8,0.8,1.3,1.9,1.3,3.1l0,0
	c0,1.2-0.5,2.4-1.3,3.2l0,0c-0.8,0.8-1.9,1.3-3.1,1.3h-5.8c-1.2,0-2.3-0.5-3.1-1.3l0,0c-0.8-0.8-1.3-1.9-1.3-3.2l0,0
	c0-1.2,0.5-2.3,1.3-3.1C150.8,194,151.9,193.4,153.1,193.4L153.1,193.4z M59.7,166h86.2c1.2,0,2.4,0.5,3.2,1.3
	c0.8,0.8,1.3,1.9,1.3,3.2c0,1.2-0.5,2.3-1.3,3.1c-0.8,0.8-1.9,1.3-3.2,1.3H59.7c-1.2,0-2.4-0.5-3.2-1.3l0,0
	c-0.8-0.8-1.3-1.9-1.3-3.1c0-1.2,0.5-2.3,1.3-3.2l0,0C57.3,166.4,58.5,166,59.7,166L59.7,166z M79.5,220.9h66.4
	c1.2,0,2.4,0.5,3.2,1.3c0.8,0.9,1.3,1.9,1.3,3.2l0,0c0,1.2-0.5,2.3-1.3,3.1c-0.8,0.8-1.9,1.3-3.2,1.3H79.5c-1.2,0-2.4-0.5-3.2-1.3
	c-0.8-0.8-1.3-1.9-1.3-3.1l0,0c0-1.2,0.5-2.3,1.3-3.2C77.1,221.4,78.3,220.9,79.5,220.9L79.5,220.9z M93.3,248.4h39.4
	c1.2,0,2.4,0.5,3.2,1.3l0,0c0.8,0.8,1.3,1.9,1.3,3.1l0,0c0,1.2-0.5,2.4-1.3,3.2l0,0c-0.8,0.8-1.9,1.3-3.2,1.3H93.3
	c-1.2,0-2.3-0.5-3.1-1.3s-1.3-1.9-1.3-3.2l0,0c0-1.2,0.5-2.3,1.3-3.1C91,248.9,92.1,248.4,93.3,248.4L93.3,248.4z M103.3,273.3h7
	h3.1h1.4h25.8h110.7h45.8h0.2l0,0h0.5l0,0c0.1,0,0.1,0,0.1,0c0.1,0,0.1,0,0.1,0l0.1-0.1l0.1-0.1l0,0l0.4-0.1l-0.1-0.1l0.1-0.1v-0.1
	l0.1-0.1l0,0c0.1-0.1,0.1-0.1,0.1-0.1l0,0l0.1-0.1v-0.1c0,0,0-0.1,0.1-0.1l0,0v-0.1l0,0c0-0.1,0-0.1,0-0.1l0,0
	c0.1-0.1,0.1-0.1,0.1-0.1v-4.5v-4.6v-0.4h-0.1l0.1-0.2v-0.1h-0.1l0.1-0.2v-0.1l0,0v-25.4v-9.7v-32.4v-9.4v-6.1v-27
	c0-0.1,0-0.1,0-0.1l0,0c0-0.1,0-0.1,0-0.1l0,0c-0.1-0.1-0.1-0.1-0.1-0.1l0,0c0-0.1,0-0.1-0.1-0.2l0,0v-0.1l0,0l-0.1-0.1l0,0
	c-0.1-0.1-0.1-0.1-0.1-0.1l0,0c0,0,0-0.1-0.1-0.1c0-0.1-0.1-0.1-0.1-0.1l0,0l-0.1-0.1l0,0c-0.1-0.1-0.1-0.1-0.1-0.1l0,0l-0.1-0.1
	h-0.1c-0.1,0-0.1-0.1-0.1-0.1l0,0c-0.1,0-0.1,0-0.1,0l0,0l-0.1-0.1h-0.1h-49.2H247h-102h-1.8h-30.5H96.7h-4.3
	c-1.2,0-2.3-0.5-3.1-1.3c-0.8-0.8-1.3-1.9-1.3-3.2l0,0c0-1.2,0.5-2.3,1.3-3.1c0.8-0.8,1.9-1.3,3.1-1.3h4.3h15.9h29.1h0.5l0,0h0.2
	h0.7h154.7c0.3,0,0.7,0,1,0c0.4,0.1,0.7,0.1,1,0.2h0.2l0,0c0.3,0.1,0.5,0.2,0.8,0.2c0.3,0.1,0.6,0.2,0.9,0.3
	c0.3,0.1,0.6,0.3,0.9,0.4c0.3,0.2,0.6,0.4,0.9,0.5c0.3,0.2,0.5,0.4,0.8,0.5c0.2,0.2,0.5,0.5,0.7,0.7v0.1h0.1l0,0
	c0.2,0.2,0.4,0.5,0.7,0.7l0,0c0.2,0.2,0.4,0.5,0.5,0.8c0.2,0.3,0.4,0.5,0.5,0.9c0.1,0.3,0.3,0.6,0.4,0.9l0,0c0.1,0.3,0.2,0.6,0.3,1
	l0,0c0.1,0.3,0.2,0.6,0.2,0.9l0,0c0.1,0.4,0.1,0.7,0.2,1c0,0.3,0.1,0.6,0.1,1v18.6v0.5h0.4h5.1h47.7h8.3c0.5,0,1,0,1.6,0.1
	c0.5,0.1,1,0.1,1.5,0.2c0.5,0.1,1.1,0.2,1.6,0.4c0.5,0.1,1.1,0.3,1.6,0.5c0.5,0.2,1,0.4,1.6,0.7c0.5,0.2,1,0.5,1.6,0.7
	c0.5,0.3,1,0.6,1.5,0.9c0.5,0.4,1,0.7,1.5,1h0.1l0,0l0,0c0.5,0.4,0.9,0.7,1.4,1.2l0,0c0.4,0.4,0.9,0.8,1.3,1.2
	c0.4,0.4,0.8,0.9,1.2,1.3l0,0c0.4,0.4,0.8,0.9,1.2,1.3c0.4,0.5,0.7,1,1,1.5c0.4,0.4,0.7,0.9,0.9,1.5l0,0c0.2,0.4,0.5,0.8,0.7,1.3
	c0.2,0.4,0.4,0.9,0.5,1.3l0,0l0.1,0.4l0,0l17.4,45.1l0,0l0.1,0.2l0.2,0.1c1.2,0.2,2.3,0.4,3.4,0.7c1.2,0.2,2.2,0.5,3.3,0.9
	c1.2,0.4,2.2,0.7,3.3,1.2c1.1,0.4,2.1,0.9,3.2,1.5c1.1,0.5,2.2,1.2,3.2,1.8c1,0.7,2.1,1.3,3,2.1l0,0c1,0.7,1.9,1.5,2.8,2.4
	c0.9,0.8,1.8,1.7,2.7,2.6l0.3,0.4l0,0c0.9,0.9,1.6,1.9,2.4,2.9c0.7,1,1.5,2,2.1,3.1c0.7,1.1,1.3,2.2,1.9,3.4
	c0.6,1.2,1.2,2.4,1.6,3.6l0,0c0.5,1.2,0.9,2.5,1.3,3.8c0.4,1.2,0.7,2.5,0.9,3.8c0.2,1.2,0.4,2.4,0.5,3.6c0.1,1.2,0.2,2.4,0.2,3.6
	v0.2l0,0v0.5l0,0l0.3,42.4l0,0c0,0.3,0,0.5,0,0.8l0,0c-0.1,0.3-0.1,0.5-0.1,0.8l0,0c-0.1,0.2-0.1,0.5-0.2,0.7
	c-0.1,0.2-0.2,0.5-0.3,0.7l-0.1,0.2l0,0c-0.1,0.2-0.2,0.4-0.2,0.5l0,0c-0.1,0.2-0.3,0.5-0.4,0.7c-0.1,0.2-0.3,0.5-0.5,0.7l0,0
	c-0.1,0.2-0.3,0.4-0.5,0.6l-0.4,0.3L442,322l-0.1,0.1c-0.2,0.1-0.3,0.2-0.5,0.4l0,0c-0.2,0.1-0.4,0.2-0.5,0.4
	c-0.2,0.1-0.4,0.2-0.5,0.3l0,0c-0.2,0.1-0.4,0.2-0.6,0.3c-0.2,0.1-0.5,0.2-0.7,0.2l0,0c-0.2,0.1-0.5,0.1-0.7,0.2l0,0
	c-0.2,0.1-0.5,0.1-0.8,0.1c-0.2,0-0.5,0.1-0.8,0.1h-36.1h-0.4v0.4v0.1v0.6l0,0v0.2l0,0v0.3l0,0c0,1.1-0.1,2.2-0.1,3.2l0,0
	c-0.1,1.1-0.3,2.1-0.5,3.2l0,0c-0.2,1-0.5,2.1-0.8,3.1c-0.3,1-0.7,2.1-1.1,3l0,0c-0.4,1-0.8,1.9-1.3,2.9c-0.5,1-1.1,1.9-1.6,2.8
	c-0.6,0.8-1.3,1.7-1.9,2.6c-0.7,0.8-1.4,1.6-2.1,2.4l0,0c-0.8,0.8-1.6,1.5-2.4,2.2c-0.8,0.7-1.6,1.3-2.6,1.9
	c-0.9,0.6-1.8,1.2-2.7,1.6c-1,0.5-1.9,1-2.9,1.4c-1,0.4-2,0.8-3,1.1c-1,0.3-2.1,0.5-3.1,0.7c-1,0.2-2.1,0.4-3.2,0.5
	c-1,0.1-2.1,0.2-3.2,0.2c-1.1,0-2.2-0.1-3.2-0.2c-1.1-0.1-2.1-0.2-3.2-0.5c-1-0.2-2.1-0.4-3.1-0.7c-1-0.3-2.1-0.7-3-1.1
	c-1-0.4-1.9-0.9-2.9-1.4c-1-0.5-1.9-1-2.8-1.6c-0.9-0.6-1.7-1.2-2.5-1.9c-0.7-0.6-1.5-1.3-2.2-1.9l0,0l-0.2-0.2
	c-0.8-0.7-1.5-1.5-2.2-2.4c-0.7-0.9-1.3-1.7-1.9-2.6c-0.6-0.9-1.2-1.8-1.6-2.8c-0.5-0.8-0.9-1.7-1.3-2.6l0,0l-0.1-0.3
	c-0.4-1-0.8-2-1.1-3c-0.3-1-0.5-2.1-0.7-3.1c-0.2-1-0.4-2.1-0.5-3.2c-0.1-1-0.2-2.1-0.2-3.2l0,0v-0.5l0,0l0.1-0.6v-0.1V324h-0.5H206
	h-0.5v0.4l0,0v0.4l0,0l0.1,0.3l0,0v0.2l0,0v0.3l0,0c0,1.1-0.1,2.2-0.2,3.2l0,0c-0.1,1.1-0.2,2.1-0.5,3.2c-0.2,1-0.4,2.1-0.7,3.1
	c-0.4,1-0.7,2.1-1.1,3c-0.4,1-0.9,1.9-1.4,2.9c-0.5,1-1,1.9-1.6,2.8c-0.6,0.8-1.2,1.7-1.9,2.6c-0.7,0.8-1.3,1.5-2,2.2l0,0l-0.2,0.2
	c-0.7,0.8-1.6,1.5-2.4,2.2c-0.8,0.7-1.7,1.3-2.6,1.9c-0.8,0.6-1.8,1.2-2.7,1.6c-0.9,0.5-1.9,1-2.9,1.4l0,0c-1,0.4-2,0.8-3,1.1
	c-1,0.3-2.1,0.5-3.1,0.7c-1,0.2-2.1,0.4-3.2,0.5c-1.1,0.1-2.1,0.2-3.2,0.2c-1.1,0-2.1-0.1-3.2-0.2c-1-0.1-2.1-0.2-3.2-0.5
	c-1-0.2-2.1-0.4-3.1-0.7c-1-0.3-2-0.7-3-1.1l0,0c-1-0.4-1.9-0.9-2.9-1.4c-1-0.5-1.9-1-2.7-1.6c-0.9-0.6-1.8-1.2-2.6-1.9
	c-0.8-0.7-1.6-1.4-2.4-2.2l0,0c-0.8-0.7-1.5-1.5-2.2-2.4c-0.7-0.9-1.3-1.7-1.9-2.6c-0.6-0.9-1.2-1.8-1.6-2.8c-0.5-0.9-1-1.9-1.4-2.9
	c-0.4-1-0.7-2-1-3c-0.3-1-0.6-2-0.8-3.1c-0.2-1-0.4-2.1-0.5-3.2c-0.1-1-0.1-2.1-0.1-3.2l0,0v-0.3l0,0v-0.2l0,0v-0.7l0,0V324h-0.5
	h-25c-0.3,0-0.6-0.1-0.9-0.1l0,0c-0.3-0.1-0.6-0.1-0.9-0.1l-0.2-0.1l0,0c-0.2-0.1-0.4-0.1-0.7-0.2l0,0c-0.3-0.1-0.6-0.2-0.9-0.3
	c-0.3-0.1-0.5-0.2-0.9-0.4l0,0c-0.2-0.1-0.5-0.3-0.7-0.4h-0.1c-0.2-0.2-0.4-0.4-0.7-0.5c-0.2-0.2-0.5-0.4-0.7-0.6l-0.1-0.1l0,0
	c-0.2-0.2-0.4-0.4-0.6-0.7l0,0c-0.2-0.2-0.4-0.5-0.5-0.7l0,0c-0.2-0.2-0.3-0.5-0.5-0.8c-0.1-0.2-0.2-0.5-0.4-0.8
	c-0.1-0.3-0.2-0.5-0.3-0.9c-0.1-0.3-0.2-0.6-0.2-0.9c0-0.2-0.1-0.5-0.1-0.7l0,0c0-0.3,0-0.5,0-0.8l0,0v-0.2l0,0v-32.5h-2.2
	c-1.2,0-2.3-0.5-3.2-1.3l0,0c-0.8-0.8-1.3-1.9-1.3-3.1l0,0c0-1.2,0.5-2.3,1.3-3.2C101,273.8,102.1,273.3,103.3,273.3L103.3,273.3z
	 M324.3,199.4v-19.7h-10.7h-5.1H308v0.5v4.7v9.4v32.4v9.7V271v0.2v0.2l0,0v0.1v0.5c0,0.3-0.1,0.7-0.1,1c-0.1,0.4-0.1,0.7-0.2,1l0,0
	c-0.1,0.3-0.1,0.7-0.2,1c-0.1,0.3-0.2,0.6-0.3,0.9c-0.1,0.4-0.3,0.6-0.4,0.9c-0.2,0.3-0.4,0.6-0.5,0.9c-0.1,0.2-0.3,0.5-0.5,0.7
	c-0.2,0.2-0.4,0.5-0.6,0.7l0,0l-0.2,0.2l0,0c-0.2,0.2-0.5,0.4-0.7,0.7c-0.2,0.2-0.5,0.4-0.8,0.6l0,0c-0.3,0.2-0.5,0.4-0.9,0.5
	c-0.3,0.2-0.6,0.3-0.9,0.4c-0.3,0.1-0.6,0.2-1,0.4c-0.3,0.1-0.6,0.2-0.9,0.2l0,0c-0.3,0.1-0.7,0.1-1,0.1l0,0c-0.4,0.1-0.7,0.1-1,0.1
	h-3.4h-43.1c-23.7,0-46.2,0-68.6,0.1c-23.3,0-46.5,0-68.4,0v0.2l0,0v0.2v0.1v32v0.5h0.1h1.1h26.1l0,0h0.3l0.1-0.4l0,0
	c0.2-0.5,0.4-1,0.6-1.5c0.2-0.5,0.4-1.1,0.7-1.6c0.2-0.5,0.5-1,0.8-1.5c0.2-0.5,0.5-1,0.9-1.5l0,0c0.3-0.5,0.7-1.1,1-1.6
	c0.4-0.5,0.8-1,1.2-1.6c0.4-0.5,0.8-1,1.3-1.5c0.4-0.5,0.8-0.9,1.2-1.3v-0.1l0.1-0.1c0.7-0.7,1.6-1.5,2.4-2.1
	c0.9-0.7,1.7-1.3,2.6-1.9c0.9-0.6,1.8-1.2,2.7-1.6c0.9-0.5,1.9-1,2.9-1.4l0,0c1-0.4,1.9-0.7,3-1l0,0c1-0.3,2.1-0.6,3.1-0.8
	c1-0.2,2.1-0.4,3.2-0.5c1.1-0.1,2.1-0.1,3.2-0.1c1.1,0,2.1,0.1,3.2,0.1c1.1,0.1,2.1,0.3,3.2,0.5c1,0.2,2.1,0.5,3.1,0.8
	c1,0.3,2,0.7,3,1.1l0,0c1,0.4,1.9,0.9,2.9,1.3c1,0.5,1.9,1,2.7,1.6c0.9,0.6,1.8,1.3,2.6,1.9c0.9,0.7,1.6,1.4,2.4,2.1l0,0
	c0.5,0.5,0.9,1,1.3,1.5l0,0c0.4,0.5,0.8,1,1.3,1.5c0.4,0.5,0.8,1,1.2,1.6l0,0c0.4,0.5,0.7,1.1,1,1.6c0.3,0.5,0.6,1,0.9,1.5
	c0.3,0.5,0.5,1,0.8,1.5c0.2,0.5,0.4,1,0.7,1.5c0.2,0.5,0.4,1.1,0.6,1.6l0.1,0.3h0.3h132.3h0.3l0.1-0.3c0.2-0.5,0.4-1,0.6-1.6
	c0.2-0.5,0.4-1,0.7-1.5c0.2-0.5,0.5-1,0.8-1.5c0.2-0.5,0.5-1,0.9-1.5c0.3-0.5,0.7-1.1,1-1.6c0.4-0.5,0.7-1,1.2-1.6
	c0.4-0.5,0.9-1,1.3-1.5c0.4-0.5,0.9-1,1.3-1.5l0,0c0.7-0.7,1.5-1.5,2.4-2.1c0.8-0.7,1.7-1.3,2.5-1.9c0.9-0.6,1.8-1.2,2.8-1.6
	c0.9-0.5,1.9-1,2.9-1.3l0,0c1-0.4,2-0.8,3-1.1l0,0c1-0.3,2.1-0.6,3.1-0.8c1-0.2,2.1-0.4,3.2-0.5c1-0.1,2.1-0.1,3.2-0.1l0,0
	c1,0,2.1,0.1,3.2,0.1c1.1,0.1,2.2,0.3,3.2,0.5c1,0.2,2.1,0.5,3.1,0.8l0,0c1,0.3,2,0.7,3,1.1l0,0c1,0.4,1.9,0.9,2.9,1.3
	c0.9,0.5,1.9,1.1,2.7,1.6c0.9,0.6,1.8,1.3,2.6,1.9c0.8,0.7,1.6,1.4,2.4,2.1l0,0c0.4,0.5,0.9,1,1.3,1.5c0.4,0.5,0.8,1,1.2,1.5
	c0.4,0.5,0.8,1.1,1.2,1.6l0,0c0.4,0.5,0.7,1.1,1.1,1.6c0.3,0.5,0.5,1,0.9,1.5c0.2,0.5,0.5,1,0.7,1.5c0.2,0.5,0.5,1,0.7,1.5
	c0.2,0.5,0.4,1.1,0.6,1.6l0.1,0.4h0.4h36.6l0,0h0.5v-0.1l0,0v-0.5l-0.2-41l0,0c0-1.1-0.1-2.1-0.2-3.2c-0.1-1-0.2-2.1-0.4-3.1
	c-0.2-1-0.4-2.1-0.7-3c-0.3-1-0.6-2-1-3l0,0c-0.4-1-0.9-1.9-1.3-2.9c-0.5-0.9-1-1.8-1.5-2.7c-0.6-0.9-1.2-1.8-1.8-2.6l0,0
	c-0.7-0.8-1.3-1.6-2.1-2.4c-0.7-0.8-1.5-1.5-2.2-2.2c-0.8-0.7-1.6-1.4-2.4-2c-0.8-0.6-1.8-1.2-2.7-1.8c-0.9-0.5-1.8-1-2.7-1.5
	c-1-0.4-1.9-0.9-2.9-1.2c-1-0.4-1.9-0.7-3-1c-1-0.2-2-0.5-3-0.6c-1-0.2-2.1-0.3-3.1-0.4h-0.1l0,0l-2.1-0.1l0,0h-0.1h-67.1h-3.3
	c-0.2,0-0.5-0.1-0.7-0.1c-0.2,0-0.5-0.1-0.7-0.1h-0.2l0,0c-0.2-0.1-0.4-0.1-0.5-0.2l0,0c-0.2-0.1-0.5-0.1-0.7-0.2l0,0
	c-0.2-0.1-0.4-0.2-0.7-0.3c-0.2-0.1-0.4-0.2-0.6-0.4c-0.2-0.1-0.4-0.2-0.7-0.4l0,0c-0.1-0.1-0.2-0.2-0.4-0.4l0,0l-0.2-0.1l0,0
	l-0.1-0.1l0,0c-0.1-0.2-0.2-0.3-0.4-0.5l0,0c-0.1-0.2-0.3-0.4-0.4-0.6c-0.1-0.2-0.2-0.4-0.4-0.7c-0.1-0.2-0.2-0.4-0.4-0.7
	c-0.1-0.2-0.1-0.5-0.2-0.7l0,0c-0.1-0.2-0.1-0.5-0.2-0.7c0-0.2-0.1-0.4-0.1-0.7c-0.1-0.2-0.1-0.4-0.1-0.7l0,0v-0.2l0,0V199.4
	L324.3,199.4z M333.1,179.7v19.7v14v17.1v0.5h0.5h1.6h62.4h0.7l-0.2-0.6l0,0l-15.8-41.1l0,0l-0.1-0.3l0,0l-0.1-0.2
	c-0.1-0.2-0.2-0.4-0.3-0.7l0,0c-0.1-0.2-0.2-0.4-0.4-0.7c-0.2-0.3-0.4-0.6-0.6-0.9c-0.2-0.3-0.4-0.5-0.7-0.9
	c-0.2-0.3-0.5-0.6-0.7-0.9l0,0c-0.3-0.2-0.5-0.5-0.8-0.9c-0.2-0.2-0.4-0.4-0.6-0.5c-0.2-0.2-0.4-0.4-0.7-0.5l-0.2-0.1v-0.1l-0.4-0.2
	c-0.3-0.2-0.6-0.4-0.9-0.6c-0.3-0.2-0.6-0.4-0.9-0.6c-0.4-0.2-0.7-0.3-1-0.5c-0.3-0.1-0.6-0.2-0.9-0.4l0,0c-0.3-0.1-0.6-0.2-0.9-0.3
	c-0.3-0.1-0.6-0.2-0.9-0.2l0,0c-0.1,0-0.3-0.1-0.5-0.1l0,0c-0.2-0.1-0.4-0.1-0.5-0.1l-0.2-0.1l0,0h-0.5l0,0h-8.3l0,0h-0.4l0,0h-0.2
	H333.1z M187.9,307.3c-0.6-0.5-1.3-1-1.9-1.4c-0.7-0.4-1.3-0.9-2-1.2c-0.7-0.4-1.3-0.7-2.1-1l0,0c-0.7-0.3-1.5-0.5-2.2-0.8
	c-0.7-0.2-1.5-0.4-2.2-0.5c-0.8-0.2-1.6-0.3-2.3-0.4c-0.8-0.1-1.6-0.1-2.4-0.1c-0.8,0-1.6,0.1-2.3,0.1c-0.8,0.1-1.6,0.2-2.4,0.4
	c-0.7,0.1-1.5,0.3-2.2,0.5c-0.7,0.2-1.5,0.5-2.2,0.8c-0.7,0.3-1.4,0.6-2.1,1c-0.7,0.4-1.3,0.8-2,1.2c-0.6,0.4-1.3,0.9-1.8,1.4
	c-0.6,0.5-1.2,1-1.8,1.6l0,0c-0.5,0.5-1.1,1.2-1.6,1.8l0,0c-0.5,0.5-1,1.2-1.4,1.9c-0.4,0.6-0.9,1.3-1.2,2c-0.4,0.7-0.7,1.3-1,2.1
	c-0.3,0.7-0.5,1.5-0.8,2.2c-0.2,0.8-0.4,1.5-0.5,2.3c-0.2,0.7-0.3,1.5-0.4,2.3c-0.1,0.7-0.1,1.5-0.1,2.3c0,0.8,0.1,1.6,0.1,2.4
	c0.1,0.8,0.2,1.5,0.4,2.3c0.1,0.7,0.3,1.5,0.5,2.2c0.2,0.7,0.5,1.5,0.8,2.2c0.3,0.7,0.6,1.5,1,2.1c0.4,0.7,0.8,1.3,1.2,2
	c0.4,0.7,0.9,1.3,1.4,1.9c0.5,0.6,1,1.2,1.6,1.7l0,0c0.5,0.6,1.2,1.1,1.8,1.6c0.5,0.5,1.2,1,1.8,1.4c0.7,0.4,1.3,0.9,2,1.2
	c0.7,0.4,1.4,0.7,2.1,1c0.7,0.3,1.5,0.6,2.2,0.8c0.7,0.2,1.5,0.4,2.2,0.6c0.8,0.1,1.6,0.2,2.4,0.3c0.7,0.1,1.5,0.1,2.3,0.1
	c0.8,0,1.6-0.1,2.4-0.1c0.7-0.1,1.5-0.2,2.3-0.3c0.7-0.2,1.5-0.4,2.2-0.6l0,0c0.7-0.2,1.5-0.5,2.2-0.8c0.7-0.2,1.4-0.6,2.1-1
	c0.7-0.4,1.4-0.8,2-1.2c0.7-0.4,1.3-0.9,1.9-1.4c0.6-0.5,1.2-1,1.8-1.6l0.1-0.1l0,0c0.5-0.5,1-1.1,1.5-1.6c0.5-0.6,0.9-1.2,1.4-1.9
	c0.4-0.7,0.8-1.3,1.2-2c0.4-0.7,0.7-1.4,1-2.1c0.3-0.7,0.5-1.5,0.8-2.2c0.2-0.7,0.4-1.5,0.5-2.2c0.2-0.8,0.2-1.5,0.4-2.3
	c0.1-0.8,0.1-1.6,0.1-2.4c0-0.8-0.1-1.6-0.1-2.3c-0.1-0.8-0.2-1.6-0.4-2.3c-0.1-0.8-0.4-1.5-0.5-2.3c-0.2-0.7-0.5-1.5-0.8-2.2
	c-0.3-0.7-0.6-1.4-1-2.1c-0.4-0.7-0.8-1.4-1.2-2c-0.4-0.7-0.9-1.3-1.4-1.9l0,0c-0.5-0.6-1-1.2-1.6-1.8l-0.1-0.1l0,0
	C189.1,308.2,188.5,307.8,187.9,307.3L187.9,307.3z"/>
<path class="st1" d="M195.9,232.7c-8.7,6.1-10.6,14.5-12.4,24.4c-1,5.1-2,10.1-4,14.9c-2.2,4.8-3,10.7-3.2,16
	c-0.3,6.5,0.3,13.7,1.8,20.1c1.7,7.1,2.8,14.5,2.8,21.8c-0.1,7.7-1.5,15.2-5.2,21.9c-2.2,4.1-4.5,8.1-6.9,12
	c-2.8,4.8-5.7,9.4-8.5,14.1c-0.9,1.6-2.4,2.5-4.2,2.5c-1.8,0.1-3.5-0.9-4.3-2.5c-0.9-1.6-0.7-3.5,0.3-5c2.8-4.7,5.7-9.3,8.5-14.1
	c2.4-3.9,4.5-7.7,6.7-11.7c2.9-5.3,4-11.4,4-17.4c0-6.5-1.1-13.2-2.6-19.5c-1.7-7.3-2.3-15.3-2-22.8c0.3-6.4,1.3-13.5,4-19.4
	c1.7-4,2.5-8.5,3.4-12.7c2.4-12.8,5.1-22.6,16.4-30.5h0.1l0.1-0.1c1.8-1.2,3.7-2.4,5.5-3.8c1.4-0.9,2.7-2,4-3V115
	c0-3.8,1.5-7.5,4.2-10.2c2.7-2.7,6.3-4.2,10.2-4.2h92.7c3.9,0,7.5,1.5,10.2,4.2c2.7,2.7,4.2,6.3,4.2,10.2v50.3
	c3.5-2.2,7.7-3,11.8-2.5c4.7,0.7,8.8,3.1,11.8,6.9c2.8,3.7,4.1,8.4,3.4,13.1c-0.7,4.7-3.1,8.9-6.9,11.8l-3.4,2.6
	c2.6,1.2,4.8,3,6.5,5.3c2.8,3.8,4.1,8.5,3.4,13.1c-0.6,4.7-3,8.9-6.8,11.8l-4.8,3.6c1.8,0.9,3.6,2.1,5,3.6c0.8,0.8,1.5,1.7,2.1,2.6
	c0.4,0.6,0.8,1.2,1.1,1.8h0.1l0.5,1.1c1.5,3.6,1.8,7.7,0.8,11.5c-1,3.8-3.2,7.2-6.3,9.6l-2.4,1.8c1.9,0.9,3.6,2.1,5.2,3.6
	c0.8,0.8,1.5,1.7,2.1,2.6c0.6,0.9,1.1,1.8,1.6,2.9c1.6,3.6,1.8,7.7,0.8,11.5c-1,3.8-3.2,7.2-6.3,9.6l-12.3,9.4
	c-2,1.6-4.4,2.7-6.9,3.2v16c0,3.8-1.5,7.5-4.2,10.2c-2.8,2.7-6.4,4.2-10.2,4.2h-8.6c-3.5,8.5-8.6,16-15.3,22.4
	c-7.5,7.1-16.5,12.1-26.2,15.6l-0.3,0.1H257c-2.7,0.8-5.3,2-7.7,3.6c-7,4.6-13.2,12.3-17.7,19.3c-1.5,2.1-4.3,2.7-6.4,1.4
	c-2.2-1.3-2.9-4.1-1.7-6.3l0,0v-0.1c5.2-8.2,12.5-17,20.6-22.3c3.2-2,6.6-3.6,10.2-4.7c8.4-3.1,16.2-7.5,22.7-13.6
	c4.7-4.4,8.5-9.6,11.4-15.4h-50.1c-0.1,5.5-0.5,11-1.1,16.4v0.1v0.1c-0.5,2.4-2.8,4.1-5.2,3.8c-2.5-0.3-4.4-2.4-4.3-4.9v-0.1v-0.1
	c1.5-12.6,1.5-24.9-1.5-37.2c-2.9-12.1-8.5-23.4-14.5-34.3c-1.2-2.1-2.2-4.3-3.2-6.5c-1.1-2.4-2-5-2.8-7.5c-0.4-1.1-0.8-2.2-1.2-3.3
	c-1-2.6-2.2-5.3-1.7-8.2c0.5-2.7,2.1-4.3,4-6.1c0.9-1,1.8-1.8,2.6-2.8c3.9-4.4,7.7-9.8,9.6-15.5c1.3-3.8,1.7-7.9,0.1-11.8
	c-0.3-0.6-0.7-1.7-1.4-2.2c-0.2-0.2-0.5-0.2-0.8-0.1c-1.6,0.1-4.8,3.6-5.9,4.7c-1.3,1.3-2.6,2.7-4,3.9c-1.7,1.4-3.5,2.7-5.3,4
	C199.9,230.2,197.9,231.5,195.9,232.7L195.9,232.7z M313.9,269.2l5.5-4.2l0.2-0.1l14.5-11.3c1.5-1.1,2.5-2.6,3-4.4
	c0.5-1.8,0.3-3.7-0.3-5.3c-0.2-0.5-0.5-0.9-0.7-1.3c-0.3-0.4-0.7-0.9-1-1.2c-1.4-1.5-3.3-2.3-5.3-2.4c-1.8-0.1-3.7,0.4-5.2,1.5
	l-0.5,0.4l-19.7,15.3c-1.7,1.3-2.8,3-3.1,5.1c-0.4,2,0,4.1,1.1,5.8l0.1,0.1c0.1,0.1,0.2,0.3,0.3,0.4v0.1l0.1,0.1
	c0.1,0.1,0.2,0.3,0.3,0.5h0.1v0.1c1.4,1.5,3.3,2.5,5.3,2.7C310.4,270.8,312.4,270.3,313.9,269.2L313.9,269.2z M310.9,292.8
	c0.1,0.1,0.3,0.3,0.4,0.5l0.1,0.1l0,0c0.1,0.2,0.3,0.4,0.5,0.6c1.4,1.5,3.3,2.5,5.3,2.6c2,0.2,4-0.3,5.7-1.6l12.3-9.5
	c1.5-1.1,2.5-2.7,3-4.5c0.5-1.7,0.3-3.6-0.4-5.3c-0.2-0.5-0.5-0.9-0.8-1.4c-0.3-0.4-0.6-0.8-0.9-1.1c-1.5-1.5-3.3-2.3-5.3-2.4
	c-1.9-0.1-3.8,0.4-5.3,1.5l-12.4,9.6c-1.6,1.3-2.7,3-3,5.1C309.5,289.1,309.9,291.1,310.9,292.8L310.9,292.8z M312.2,119.3V115
	c0-1.3-0.5-2.5-1.5-3.4c-0.9-0.9-2.1-1.4-3.4-1.4h-92.7c-1.3,0-2.5,0.5-3.4,1.4c-0.9,0.9-1.5,2.2-1.5,3.4v4.3H312.2z M303,279
	c-2.6-1-5.1-2.6-7-4.8c-0.3-0.3-0.6-0.8-0.9-1.2c-0.3-0.4-0.6-0.8-0.9-1.3c-2.4-3.7-3.2-8.3-2.4-12.5c0.8-4.4,3.2-8.3,6.7-11
	l7.6-5.9c-2.6-1.2-4.9-3-6.7-5.3c-2.8-3.8-4-8.5-3.4-13.1c0.7-4.6,3.1-8.8,6.8-11.7l9.4-7.2v-76.2H209.8v80.3
	c1.9-1.3,4.1-2.4,6.5-2.6c2.7-0.2,5.2,0.5,7.4,2.2c2,1.6,3.4,3.8,4.4,6.2c2.3,6,2,12.3,0.1,18.3c-2.3,6.9-6.7,13.3-11.6,18.8
	c-0.9,1.1-1.9,2-2.9,3.1c-0.3,0.4-0.9,0.9-1.3,1.4c0.3,0.9,0.9,2.4,1.1,3.1c0.5,1.1,0.9,2.3,1.3,3.4c0.8,2.3,1.7,4.6,2.6,6.7
	c0.8,2,1.7,3.9,2.7,5.7c5,8.9,9.6,18.1,12.9,27.8h75.2c-1.3-0.9-2.4-1.8-3.4-3c-0.4-0.4-0.7-0.8-1.1-1.3c-0.3-0.4-0.6-0.8-0.9-1.2
	c-2.3-3.8-3.2-8.3-2.4-12.5C300.9,283.1,301.7,280.9,303,279L303,279z M235.7,312.9c1.1,4.6,1.8,9.2,2.2,13.8h69.5
	c1.3,0,2.6-0.5,3.4-1.4c0.9-0.9,1.5-2.2,1.5-3.4v-9H235.7z M318.1,233.1l0.3-0.2c0.1-0.2,0.3-0.3,0.5-0.5l16.8-12.7
	c1.7-1.3,2.8-3.3,3.1-5.4c0.3-2.2-0.3-4.4-1.6-6.1c-1.3-1.7-3.2-2.8-5.4-3.2c-2.2-0.3-4.4,0.3-6.1,1.6l-17.3,13.2
	c-1.8,1.3-2.8,3.2-3.2,5.4c-0.3,2.2,0.3,4.3,1.6,6.1c1.3,1.7,3.3,2.8,5.4,3.1C314.4,234.8,316.5,234.3,318.1,233.1L318.1,233.1z
	 M321.7,197.9l14.4-11c1.7-1.3,2.8-3.3,3.2-5.4c0.3-2.2-0.3-4.4-1.6-6.1c-1.4-1.7-3.3-2.8-5.4-3.2c-2.2-0.3-4.4,0.3-6.1,1.6
	l-4.5,3.4V197.9z"/>
<g>
	<path class="st2" d="M144.6,111.7h39v9.3h-39c-5.8,0-11,2.4-14.8,6.1c-3.8,3.8-6.2,9.1-6.2,14.8v126.4h-9.3V141.9
		c0-8.3,3.4-15.8,8.9-21.3C128.7,115.1,136.3,111.7,144.6,111.7L144.6,111.7z M247.8,358.5c-0.3,0.1-0.4,0.1-0.7,0.1h-18.7
		c-2.5,0-4.6-2.1-4.6-4.7l0,0c0-2.5,2.1-4.6,4.6-4.6h18.7c0.3,0,0.4,0,0.7,0.1H396c5.8,0,11-2.4,14.8-6.2c3.8-3.8,6.2-9,6.2-14.8
		V141.9c0-5.7-2.4-10.9-6.2-14.8c-3.8-3.8-9-6.1-14.8-6.1h-39v-9.3h39c8.3,0,15.8,3.4,21.3,8.8c5.5,5.5,8.9,13,8.9,21.3v186.5
		c0,8.3-3.4,15.8-8.9,21.3c-5.5,5.5-13,8.8-21.3,8.8H247.8z M221.2,111.7h98.3v9.3h-98.3V111.7z"/>
	<path class="st2" d="M202.4,85.2L202.4,85.2c6.5,0,12.3,2.6,16.5,6.8l0,0v0.1c4.3,4.2,6.9,10,6.9,16.5v21.3
		c0,6.5-2.6,12.3-6.9,16.6c-4.2,4.2-10,6.8-16.5,6.8l0,0c-6.4,0-12.2-2.6-16.5-6.8v-0.1c-4.3-4.2-6.9-10-6.9-16.5v-21.3
		c0-6.5,2.6-12.3,6.9-16.6C190.2,87.8,196,85.2,202.4,85.2L202.4,85.2z M202.4,94.4L202.4,94.4c-3.8,0-7.4,1.6-10,4.1
		c-2.6,2.6-4.2,6.1-4.2,10v21.3c0,3.9,1.6,7.4,4.2,10c2.5,2.5,6.1,4.1,10,4.1l0,0c3.9,0,7.4-1.6,10-4.1c2.5-2.6,4.1-6.1,4.1-10
		v-21.3c0-3.9-1.6-7.5-4.1-10l0,0C209.8,96,206.3,94.4,202.4,94.4L202.4,94.4z M338.3,85.2L338.3,85.2c6.4,0,12.2,2.6,16.5,6.8
		c4.2,4.3,6.9,10.1,6.9,16.6v21.3c0,6.5-2.7,12.3-6.9,16.5v0.1c-4.3,4.2-10.1,6.8-16.5,6.8l0,0c-6.5,0-12.3-2.6-16.6-6.8
		c-4.2-4.3-6.8-10.1-6.8-16.6v-21.3c0-6.5,2.6-12.3,6.8-16.5l0.1-0.1l0,0C325.9,87.8,331.8,85.2,338.3,85.2L338.3,85.2z M338.3,94.4
		L338.3,94.4c-3.9,0-7.4,1.6-10,4.1l0,0c-2.5,2.5-4.1,6.1-4.1,10v21.3c0,3.9,1.6,7.4,4.1,10c2.6,2.5,6.1,4.1,10,4.1l0,0
		c3.8,0,7.4-1.6,10-4.1c2.6-2.6,4.2-6.1,4.2-10v-21.3c0-3.9-1.7-7.4-4.2-10C345.7,96,342.1,94.4,338.3,94.4L338.3,94.4z"/>
	<path class="st2" d="M224.6,207.1h27.2c2.8,0,5.4,1.2,7.3,3.1l0,0c1.8,1.9,3.1,4.5,3.1,7.3v25.4c0,2.9-1.2,5.5-3.1,7.3l0,0v0.1
		c-1.9,1.8-4.5,3-7.3,3h-27.2c-2.9,0-5.5-1.1-7.3-3v-0.1c-1.9-1.8-3.1-4.5-3.1-7.3v-25.4c0-2.8,1.1-5.4,3.1-7.3
		C219.1,208.3,221.7,207.1,224.6,207.1L224.6,207.1z M251.8,216.3h-27.2c-0.3,0-0.6,0.2-0.9,0.3c-0.2,0.2-0.3,0.5-0.3,0.8v25.4
		c0,0.4,0.2,0.6,0.3,0.9l0,0c0.3,0.2,0.5,0.3,0.9,0.3h27.2c0.3,0,0.6-0.2,0.8-0.3l0,0c0.2-0.3,0.3-0.5,0.3-0.9v-25.4
		c0-0.3-0.2-0.6-0.3-0.8l0,0C252.4,216.5,252,216.3,251.8,216.3L251.8,216.3z M155.3,207.1h27.2c2.9,0,5.5,1.2,7.3,3.1
		c1.9,1.9,3.1,4.5,3.1,7.3v25.4c0,2.9-1.1,5.5-3.1,7.3v0.1c-1.8,1.8-4.5,3-7.3,3h-27.2c-2.8,0-5.4-1.1-7.3-3v-0.1l0,0
		c-1.9-1.8-3.1-4.5-3.1-7.3v-25.4c0-2.8,1.1-5.4,3.1-7.3l0,0C149.9,208.3,152.4,207.1,155.3,207.1L155.3,207.1z M182.5,216.3h-27.2
		c-0.3,0-0.6,0.2-0.8,0.3l0,0c-0.3,0.2-0.3,0.5-0.3,0.8v25.4c0,0.4,0.1,0.6,0.3,0.9l0,0c0.2,0.2,0.4,0.3,0.8,0.3h27.2
		c0.3,0,0.6-0.2,0.8-0.3l0,0c0.3-0.3,0.3-0.5,0.3-0.9v-25.4c0-0.3-0.1-0.6-0.3-0.8C183.1,216.5,182.8,216.3,182.5,216.3L182.5,216.3
		z M293.8,207.1H321c2.9,0,5.5,1.2,7.3,3.1l0,0c1.9,1.9,3.1,4.5,3.1,7.3v25.4c0,2.9-1.1,5.5-3.1,7.3l0,0v0.1c-1.8,1.8-4.5,3-7.3,3
		h-27.2c-2.8,0-5.4-1.1-7.3-3v-0.1c-1.8-1.8-3.1-4.5-3.1-7.3v-25.4c0-2.8,1.2-5.4,3.1-7.3C288.4,208.3,291,207.1,293.8,207.1
		L293.8,207.1z M321,216.3h-27.2c-0.3,0-0.6,0.2-0.8,0.3c-0.2,0.2-0.3,0.5-0.3,0.8v25.4c0,0.4,0.2,0.6,0.3,0.9l0,0
		c0.2,0.2,0.5,0.3,0.8,0.3H321c0.3,0,0.6-0.2,0.9-0.3l0,0c0.2-0.3,0.3-0.5,0.3-0.9v-25.4c0-0.3-0.1-0.6-0.3-0.8l0,0
		C321.6,216.5,321.3,216.3,321,216.3L321,216.3z M363.1,207.1h27.2c2.8,0,5.4,1.2,7.3,3.1l0,0c1.9,1.9,3.1,4.5,3.1,7.3v25.4
		c0,2.9-1.1,5.5-3.1,7.3l0,0v0.1c-1.9,1.8-4.5,3-7.3,3h-27.2c-2.9,0-5.5-1.1-7.3-3v-0.1c-1.9-1.8-3.1-4.5-3.1-7.3v-25.4
		c0-2.8,1.1-5.4,3.1-7.3C357.6,208.3,360.2,207.1,363.1,207.1L363.1,207.1z M390.2,216.3h-27.2c-0.3,0-0.6,0.2-0.8,0.3
		c-0.3,0.2-0.3,0.5-0.3,0.8v25.4c0,0.4,0.1,0.6,0.3,0.9h0.1c0.2,0.2,0.4,0.3,0.8,0.3h27.2c0.3,0,0.6-0.2,0.8-0.3l0,0
		c0.3-0.3,0.3-0.5,0.3-0.9v-25.4c0-0.3-0.1-0.6-0.3-0.8l0,0C390.9,216.5,390.6,216.3,390.2,216.3L390.2,216.3z"/>
	<path class="st2" d="M224.6,281.1h27.2c2.8,0,5.4,1.1,7.3,3.1l0,0c1.8,1.8,3.1,4.5,3.1,7.3v25.4c0,2.9-1.2,5.4-3.1,7.3l0,0l0,0
		c-1.9,1.9-4.5,3.1-7.3,3.1h-27.2c-2.9,0-5.5-1.1-7.3-3.1l0,0c-1.9-1.9-3.1-4.5-3.1-7.3v-25.4c0-2.9,1.1-5.5,3.1-7.3
		C219.1,282.2,221.7,281.1,224.6,281.1L224.6,281.1z M251.8,290.3h-27.2c-0.3,0-0.6,0.1-0.9,0.3c-0.2,0.2-0.3,0.4-0.3,0.8v25.4
		c0,0.3,0.2,0.6,0.3,0.8l0,0c0.3,0.3,0.5,0.3,0.9,0.3h27.2c0.3,0,0.6-0.1,0.8-0.3v-0.1c0.2-0.2,0.3-0.4,0.3-0.8v-25.4
		c0-0.3-0.2-0.6-0.3-0.8l0,0C252.4,290.4,252,290.3,251.8,290.3L251.8,290.3z M293.8,281.1H321c2.9,0,5.5,1.1,7.3,3.1l0,0
		c1.9,1.8,3.1,4.5,3.1,7.3v25.4c0,2.9-1.1,5.4-3.1,7.3l0,0l0,0c-1.8,1.9-4.5,3.1-7.3,3.1h-27.2c-2.8,0-5.4-1.1-7.3-3.1l0,0
		c-1.8-1.9-3.1-4.5-3.1-7.3v-25.4c0-2.9,1.2-5.5,3.1-7.3C288.4,282.2,291,281.1,293.8,281.1L293.8,281.1z M321,290.3h-27.2
		c-0.3,0-0.6,0.1-0.8,0.3c-0.2,0.2-0.3,0.4-0.3,0.8v25.4c0,0.3,0.2,0.6,0.3,0.8l0,0c0.2,0.3,0.5,0.3,0.8,0.3H321
		c0.3,0,0.6-0.1,0.9-0.3v-0.1c0.2-0.2,0.3-0.4,0.3-0.8v-25.4c0-0.3-0.1-0.6-0.3-0.8l0,0C321.6,290.4,321.3,290.3,321,290.3
		L321,290.3z M363.1,281.1h27.2c2.8,0,5.4,1.1,7.3,3.1l0,0c1.9,1.8,3.1,4.5,3.1,7.3v25.4c0,2.9-1.1,5.4-3.1,7.3l0,0l0,0
		c-1.9,1.9-4.5,3.1-7.3,3.1h-27.2c-2.9,0-5.5-1.1-7.3-3.1l0,0c-1.9-1.9-3.1-4.5-3.1-7.3v-25.4c0-2.9,1.1-5.5,3.1-7.3
		C357.6,282.2,360.2,281.1,363.1,281.1L363.1,281.1z M390.2,290.3h-27.2c-0.3,0-0.6,0.1-0.8,0.3c-0.3,0.2-0.3,0.4-0.3,0.8v25.4
		c0,0.3,0.1,0.6,0.3,0.8h0.1c0.2,0.3,0.4,0.3,0.8,0.3h27.2c0.3,0,0.6-0.1,0.8-0.3v-0.1c0.3-0.2,0.3-0.4,0.3-0.8v-25.4
		c0-0.3-0.1-0.6-0.3-0.8l0,0C390.9,290.4,390.6,290.3,390.2,290.3L390.2,290.3z"/>
	<rect x="120.6" y="176.1" class="st3" width="299.8" height="9.3"/>
	<path class="st2" d="M188.8,306.9c-5.3-5.3-11.7-9.6-18.8-12.5c-6.7-2.9-14.2-4.4-22.1-4.4c-7.9,0-15.3,1.5-22.1,4.4
		c-2.5,1.1-5.1,2.3-7.4,3.8l0,0c-2.2,1.1-4.9,0.4-6.2-1.7c-1.2-2.1-0.6-4.9,1.5-6.2c2.7-1.7,5.6-3.1,8.7-4.4
		c8-3.2,16.6-5.1,25.6-5.1c9.1,0,17.7,1.8,25.6,5.1c8.3,3.4,15.6,8.4,21.8,14.6c6.1,6.1,11.1,13.5,14.5,21.8
		c3.3,7.9,5.1,16.5,5.1,25.6c0,9.1-1.7,17.7-5.1,25.6c-3.4,8.2-8.4,15.6-14.5,21.8c-6.2,6.1-13.5,11.1-21.8,14.5
		c-7.9,3.3-16.5,5.1-25.6,5.1c-9,0-17.6-1.7-25.6-5.1c-8.2-3.4-15.6-8.4-21.8-14.5c-6.2-6.2-11.2-13.6-14.6-21.8
		c-3.2-7.9-5.1-16.5-5.1-25.6c0-9,1.8-17.7,5.1-25.6c1.5-3.7,3.3-7.1,5.4-10.4l-11.5,3.5c-2.4,0.8-5.1-0.6-5.9-3.1l0,0
		c-0.7-2.4,0.7-5.1,3.1-5.8l21.8-6.6c0.3,0,0.4-0.1,0.7-0.1c2.4-0.7,4.9,0.7,5.6,3.1l6.6,21.8c0.7,2.5-0.7,5.2-3.1,5.9l0,0
		c-2.4,0.8-5.1-0.6-5.9-3.1l-3.3-11c-1.9,3-3.7,6.1-5,9.4c-2.8,6.8-4.4,14.2-4.4,22.1c0,7.9,1.6,15.3,4.4,22.1
		c2.9,7.1,7.2,13.5,12.5,18.8c5.4,5.3,11.7,9.6,18.8,12.5c6.8,2.9,14.2,4.4,22.1,4.4c7.9,0,15.4-1.5,22.1-4.4
		c7.1-2.9,13.5-7.2,18.8-12.5c5.3-5.3,9.6-11.7,12.6-18.8c2.8-6.8,4.4-14.2,4.4-22.1c0-7.9-1.6-15.3-4.4-22.1
		C198.4,318.6,194.1,312.3,188.8,306.9L188.8,306.9z M187,352.7L187,352.7c0,2.5-2.1,4.6-4.6,4.6h-34.5c-2.5,0-4.6-2.1-4.6-4.6l0,0
		v-0.2v-0.2v-46.1c0-2.6,2.1-4.7,4.6-4.7l0,0c2.6,0,4.7,2.1,4.7,4.7V348h29.8C184.9,348,187,350.1,187,352.7L187,352.7z M119.1,251
		L119.1,251c2.5,0,4.6,2.1,4.6,4.6v16c0,2.5-2.1,4.6-4.6,4.6l0,0c-2.6,0-4.7-2.1-4.7-4.6v-16C114.4,253.1,116.5,251,119.1,251
		L119.1,251z"/>
</g>
<g class="st4">
	<path class="st5" d="M286.8,120.8c42.5,0,81,17.3,109,45.2c27.9,27.8,45.1,66.4,45.1,109c0,42.6-17.2,81.1-45.1,109
		c-27.9,27.9-66.5,45.2-109,45.2c-11.9,0-23.6-1.4-34.8-4h32.5c2.6,0,4.7-2.1,4.7-4.7l0,0c0-0.3,0-0.5,0-0.7
		c39.1-0.7,74.4-16.8,100-42.4c26.3-26.3,42.4-62.4,42.4-102.5c0-40-16.2-76.2-42.4-102.5c-26.2-26.2-62.4-42.4-102.4-42.4
		c-40,0-76.2,16.2-102.5,42.4C159,197.8,143,232.6,142,271.1l0,0c-0.2,2.5-2.3,4.3-4.7,4.2c-2.4-0.1-4.4-2-4.5-4.4
		c1.1-41,18.1-78,45-104.9C205.7,138.1,244.3,120.8,286.8,120.8L286.8,120.8z M251.9,415.5l1.3,0.4h-1.4L251.9,415.5z"/>
	<rect x="282.2" y="102" class="st6" width="9.3" height="26.9"/>
	<path class="st5" d="M266.3,70.9h41c2.9,0,5.4,1.1,7.4,3.1c1.8,1.8,3.1,4.5,3.1,7.4v16.2c0,2.9-1.2,5.5-3.1,7.4l0,0
		c-1.9,1.9-4.6,3.1-7.4,3.1h-41c-2.8,0-5.4-1.1-7.3-3.1h-0.1l0,0c-1.8-1.8-3.1-4.5-3.1-7.4V81.3c0-2.9,1.2-5.4,3.1-7.4l0,0
		C260.8,72,263.5,70.9,266.3,70.9L266.3,70.9z M307.3,80.2h-41c-0.3,0-0.5,0.1-0.8,0.4l0,0c-0.2,0.2-0.4,0.4-0.4,0.8v16.2
		c0,0.4,0.2,0.6,0.4,0.9l0,0c0.2,0.2,0.5,0.3,0.8,0.3h41c0.4,0,0.6-0.1,0.8-0.3l0,0c0.3-0.3,0.4-0.5,0.4-0.9V81.3
		c0-0.4-0.1-0.6-0.4-0.8C307.9,80.3,307.5,80.2,307.3,80.2L307.3,80.2z"/>
	<path class="st5" d="M357.8,101.4l26.3,14.1c1.7,0.9,2.8,2.5,3.3,4.1v0.1h0.1c0.4,1.7,0.4,3.6-0.5,5.3l-6.1,11.2
		c-0.9,1.7-2.5,2.9-4.1,3.4h-0.1l0,0c-1.7,0.5-3.6,0.4-5.3-0.5l-26.3-14.1c-1.7-1-2.8-2.5-3.3-4.2l0,0l0,0c-0.5-1.8-0.4-3.6,0.5-5.4
		l6-11.2c0.9-1.7,2.5-2.9,4.1-3.4h0.1l0,0C354.2,100.4,356.1,100.6,357.8,101.4L357.8,101.4z M377.7,122.7l-22.3-11.9l-3.9,7.2
		l22.3,11.9L377.7,122.7z"/>
	<polygon class="st6" points="364.4,130.7 355.7,146.8 347.5,142.4 356.1,126.3 	"/>
	<path class="st6" d="M343.2,308.5l-2.5-10c-0.6-2.5,0.9-5.1,3.4-5.7l0,0c2.5-0.6,5.1,0.9,5.7,3.4l5.4,22.3c0.4,1.1,0.2,2.4-0.4,3.3
		v0.1l-0.1,0.1c-0.6,0.9-1.7,1.6-2.8,1.8l-22.6,4.4c-2.5,0.5-5-1.1-5.5-3.7l0,0c-0.4-2.5,1.2-5,3.7-5.5l10.2-2l-41.5-30
		c-2.2-1.6-1.5-4.2-1.5-7l0,0c0-2.8,4.7-3.2,7-1.5L343.2,308.5z"/>
	<path class="st5" d="M292.8,269c-0.8-0.8-1.8-1.4-2.7-1.8H290c-1-0.4-2-0.6-3.2-0.6c-1.2,0-2.3,0.2-3.2,0.6l0,0
		c-1.1,0.4-1.9,1.1-2.7,1.8c-1.6,1.5-2.5,3.6-2.5,6c0,1.1,0.2,2.3,0.6,3.2l0,0c0.4,1,1.1,1.9,1.8,2.7c1.5,1.5,3.6,2.5,6,2.5
		c1.1,0,2.2-0.2,3.2-0.6h0.1c1-0.4,1.9-1.1,2.7-1.8c1.5-1.5,2.5-3.6,2.5-6c0-1.1-0.3-2.3-0.6-3.2l0,0
		C294.2,270.7,293.6,269.8,292.8,269L292.8,269z M293.6,258.6c2.2,0.9,4.1,2.2,5.7,3.8c1.7,1.7,3,3.6,3.9,5.8l0,0
		c0.9,2.1,1.4,4.4,1.4,6.8c0,4.9-2,9.3-5.3,12.6c-1.6,1.6-3.5,2.9-5.7,3.8v0.1c-2.1,0.8-4.4,1.3-6.8,1.3c-4.9,0-9.4-2-12.6-5.2
		c-1.7-1.7-2.9-3.6-3.9-5.8l0,0c-0.9-2.1-1.3-4.4-1.3-6.8c0-4.9,1.9-9.3,5.2-12.6c1.6-1.6,3.5-2.9,5.7-3.8v-0.1
		c2.1-0.8,4.4-1.3,6.8-1.3C289.2,257.2,291.5,257.7,293.6,258.6L293.6,258.6z"/>
	<path class="st5" d="M286.8,163.4c30.7,0,58.6,12.5,78.8,32.7c20.1,20.2,32.7,48,32.7,78.8c0,30.8-12.6,58.6-32.7,78.8
		c-20.2,20.2-48.1,32.7-78.8,32.7c-13.1,0-25.5-2.2-37.2-6.3l0.1-0.1c-2-1.4-2.6-4-1.4-6.2c1.1-1.9,3.4-2.8,5.5-2.1h0.1v0.1
		c0.2,0,0.3,0.1,0.4,0.1l0,0c10.2,3.4,21.1,5.3,32.5,5.3c28.2,0,53.7-11.4,72.3-29.9c18.4-18.4,29.9-44.1,29.9-72.3
		c0-28.2-11.5-53.8-29.9-72.3c-18.5-18.5-44.1-29.9-72.3-29.9c-28.3,0-53.8,11.4-72.3,29.9c-18.4,18.4-29.9,44.1-29.9,72.3
		c0,8.9,1.1,17.5,3.2,25.6c0.2,1.5-0.4,2.9-1.5,3.9c-1.2,1.1-3,1.5-4.6,1c-1.3-0.4-2.4-1.3-2.9-2.5c-2.3-9-3.5-18.4-3.5-28
		c0-30.8,12.5-58.6,32.7-78.8C228.1,175.9,256,163.4,286.8,163.4L286.8,163.4z"/>
	<path class="st6" d="M126.1,419.8h165.6c2.6,0,4.7,2,4.7,4.7l0,0c0,2.5-2,4.7-4.7,4.7H126.1c-2.5,0-4.7-2.1-4.7-4.7l0,0
		C121.4,421.8,123.5,419.8,126.1,419.8L126.1,419.8z"/>
	<path class="st6" d="M190.4,393.7h63.5c2.5,0,4.7,2.1,4.7,4.7l0,0c0,2.5-2.1,4.7-4.7,4.7h-63.5c-2.5,0-4.7-2.1-4.7-4.7l0,0
		C185.8,395.8,187.9,393.7,190.4,393.7L190.4,393.7z"/>
	<path class="st6" d="M113.8,369.7h86.9c2.5,0,4.7,2,4.7,4.6l0,0c0,2.6-2.1,4.7-4.7,4.7h-86.9c-2.5,0-4.7-2-4.7-4.7l0,0
		C109.1,371.7,111.2,369.7,113.8,369.7L113.8,369.7z"/>
	<path class="st6" d="M63.7,328.4h145.2c2.5,0,4.7,2.1,4.7,4.7l0,0c0,2.5-2.1,4.7-4.7,4.7H63.7c-2.5,0-4.6-2.1-4.6-4.7l0,0
		C59.1,330.5,61.1,328.4,63.7,328.4L63.7,328.4z"/>
	<path class="st6" d="M102,289.7h61.9c2.5,0,4.7,2.1,4.7,4.7l0,0c0,2.6-2.1,4.7-4.7,4.7H102c-2.5,0-4.7-2-4.7-4.7l0,0
		C97.4,291.8,99.5,289.7,102,289.7L102,289.7z"/>
</g>
</svg>
