<?xml version="1.0" encoding="UTF-8"?><svg id="a" xmlns="http://www.w3.org/2000/svg" viewBox="0 0 511.65 478.54"><defs><style>.b{fill:#2a2523;}</style></defs><path class="b" d="M102.87,38.56h56.57v13.44h-56.57c-8.37,0-15.98,3.42-21.43,8.88-5.58,5.58-9.01,13.19-9.01,21.43v183.53h-13.44V82.31c0-12.05,4.95-22.96,12.93-30.94,7.87-7.87,18.9-12.81,30.95-12.81h0ZM252.66,396.73c-.38,.13-.64,.13-1.02,.13h-27.14c-3.68,0-6.72-3.05-6.72-6.85h0c0-3.67,3.05-6.72,6.72-6.72h27.14c.38,0,.63,0,1.02,.13h215.11c8.37,0,15.98-3.43,21.43-9.01,5.58-5.45,9.01-13.06,9.01-21.43V82.31c0-8.24-3.43-15.85-9.01-21.43-5.45-5.46-13.06-8.88-21.43-8.88h-56.57v-13.44h56.57c12.05,0,22.96,4.95,30.95,12.81,7.99,7.99,12.93,18.9,12.93,30.94V352.98c0,12.05-4.95,22.95-12.93,30.95-7.99,7.99-18.9,12.81-30.95,12.81H252.66ZM213.97,38.56h142.69v13.44H213.97v-13.44Z"/><path class="b" d="M186.71,0h0c9.39,0,17.88,3.81,23.97,9.89h0v.13c6.21,6.09,10.02,14.59,10.02,23.97v30.95c0,9.39-3.81,17.88-10.02,24.1-6.09,6.09-14.59,9.89-23.97,9.89h0c-9.26,0-17.76-3.81-23.97-9.89v-.13c-6.22-6.09-10.02-14.59-10.02-23.97v-30.95c0-9.39,3.81-17.88,10.02-24.1,6.21-6.09,14.71-9.89,23.97-9.89h0Zm0,13.44h0c-5.58,0-10.78,2.28-14.46,5.96-3.8,3.81-6.09,8.88-6.09,14.59v30.95c0,5.71,2.29,10.78,6.09,14.59,3.68,3.68,8.88,5.96,14.46,5.96h0c5.71,0,10.78-2.28,14.59-5.96,3.68-3.81,5.96-8.88,5.96-14.59v-30.95c0-5.71-2.28-10.91-5.96-14.59h0c-3.81-3.68-8.88-5.96-14.59-5.96h0ZM383.93,0h0c9.26,0,17.76,3.81,23.97,9.89,6.09,6.21,10.02,14.71,10.02,24.1v30.95c0,9.39-3.93,17.88-10.02,23.97v.13c-6.21,6.09-14.71,9.89-23.97,9.89h0c-9.39,0-17.88-3.81-24.1-9.89-6.09-6.22-9.89-14.71-9.89-24.1v-30.95c0-9.39,3.81-17.88,9.89-23.97l.13-.13h0c6.09-6.09,14.59-9.89,23.97-9.89h0Zm0,13.44h0c-5.71,0-10.78,2.28-14.59,5.96h0c-3.68,3.68-5.96,8.88-5.96,14.59v30.95c0,5.71,2.28,10.78,5.96,14.59,3.81,3.68,8.88,5.96,14.59,5.96h0c5.58,0,10.78-2.28,14.46-5.96,3.81-3.81,6.09-8.88,6.09-14.59v-30.95c0-5.71-2.41-10.78-6.09-14.59-3.67-3.68-8.87-5.96-14.46-5.96h0Z"/><path class="b" d="M218.92,176.93h39.45c4.05,0,7.86,1.78,10.65,4.44h0c2.66,2.79,4.44,6.6,4.44,10.65v36.91c0,4.19-1.77,7.99-4.44,10.66h0v.12c-2.79,2.66-6.6,4.32-10.65,4.32h-39.45c-4.19,0-7.99-1.65-10.65-4.32v-.12c-2.79-2.67-4.44-6.47-4.44-10.66v-36.91c0-4.06,1.65-7.86,4.44-10.65,2.67-2.66,6.47-4.44,10.65-4.44h0Zm39.45,13.44h-39.45c-.51,0-.89,.25-1.27,.51-.25,.25-.51,.76-.51,1.14v36.91c0,.51,.25,.89,.51,1.27h0c.38,.25,.76,.51,1.27,.51h39.45c.38,0,.89-.25,1.14-.51h0c.25-.38,.51-.76,.51-1.27v-36.91c0-.38-.25-.89-.51-1.14h0c-.25-.25-.76-.51-1.14-.51h0Zm-140.03-13.44h39.45c4.19,0,7.99,1.78,10.65,4.44,2.79,2.79,4.44,6.6,4.44,10.65v36.91c0,4.19-1.65,7.99-4.44,10.66v.12c-2.67,2.66-6.47,4.32-10.65,4.32h-39.45c-4.06,0-7.86-1.65-10.65-4.32v-.12h0c-2.79-2.67-4.44-6.47-4.44-10.66v-36.91c0-4.06,1.65-7.86,4.44-10.65h0c2.79-2.66,6.47-4.44,10.65-4.44h0Zm39.45,13.44h-39.45c-.51,0-.89,.25-1.14,.51h0c-.38,.25-.51,.76-.51,1.14v36.91c0,.51,.13,.89,.51,1.27h0c.25,.25,.63,.51,1.14,.51h39.45c.51,0,.89-.25,1.14-.51h0c.38-.38,.51-.76,.51-1.27v-36.91c0-.38-.13-.89-.51-1.14-.25-.25-.63-.51-1.14-.51h0Zm161.58-13.44h39.44c4.19,0,7.99,1.78,10.65,4.44h0c2.79,2.79,4.44,6.6,4.44,10.65v36.91c0,4.19-1.65,7.99-4.44,10.66h0v.12c-2.66,2.66-6.47,4.32-10.65,4.32h-39.44c-4.06,0-7.87-1.65-10.65-4.32v-.12c-2.67-2.67-4.44-6.47-4.44-10.66v-36.91c0-4.06,1.77-7.86,4.44-10.65,2.79-2.66,6.59-4.44,10.65-4.44h0Zm39.44,13.44h-39.44c-.38,0-.89,.25-1.14,.51-.25,.25-.51,.76-.51,1.14v36.91c0,.51,.25,.89,.51,1.27h0c.25,.25,.76,.51,1.14,.51h39.44c.51,0,.89-.25,1.27-.51h0c.25-.38,.38-.76,.38-1.27v-36.91c0-.38-.13-.89-.38-1.14h0c-.38-.25-.76-.51-1.27-.51h0Zm61.13-13.44h39.44c4.06,0,7.87,1.78,10.66,4.44h0c2.79,2.79,4.44,6.6,4.44,10.65v36.91c0,4.19-1.65,7.99-4.44,10.66h0v.12c-2.79,2.66-6.6,4.32-10.66,4.32h-39.44c-4.19,0-7.99-1.65-10.65-4.32v-.12c-2.79-2.67-4.44-6.47-4.44-10.66v-36.91c0-4.06,1.65-7.86,4.44-10.65s6.47-4.44,10.65-4.44h0Zm39.44,13.44h-39.44c-.51,0-.89,.25-1.14,.51-.38,.25-.51,.76-.51,1.14v36.91c0,.51,.13,.89,.38,1.27h.12c.25,.25,.64,.51,1.14,.51h39.44c.51,0,.89-.25,1.14-.51h0c.38-.38,.51-.76,.51-1.27v-36.91c0-.38-.12-.89-.51-1.14h0c-.25-.25-.63-.51-1.14-.51h0Z"/><path class="b" d="M218.92,284.36h39.45c4.05,0,7.86,1.65,10.65,4.44h0c2.66,2.66,4.44,6.47,4.44,10.65v36.91c0,4.19-1.77,7.86-4.44,10.65h0c-2.79,2.79-6.6,4.44-10.65,4.44h-39.45c-4.19,0-7.99-1.65-10.65-4.44h0c-2.79-2.79-4.44-6.47-4.44-10.65v-36.91c0-4.19,1.65-7.99,4.44-10.65,2.67-2.79,6.47-4.44,10.65-4.44h0Zm39.45,13.44h-39.45c-.51,0-.89,.13-1.27,.51-.25,.25-.51,.63-.51,1.14v36.91c0,.51,.25,.89,.51,1.14h0c.38,.38,.76,.51,1.27,.51h39.45c.38,0,.89-.13,1.14-.38v-.13c.25-.25,.51-.63,.51-1.14v-36.91c0-.51-.25-.89-.51-1.14h0c-.25-.38-.76-.51-1.14-.51h0Zm61.01-13.44h39.44c4.19,0,7.99,1.65,10.65,4.44h0c2.79,2.66,4.44,6.47,4.44,10.65v36.91c0,4.19-1.65,7.86-4.44,10.65h0c-2.66,2.79-6.47,4.44-10.65,4.44h-39.44c-4.06,0-7.87-1.65-10.65-4.44h0c-2.67-2.79-4.44-6.47-4.44-10.65v-36.91c0-4.19,1.77-7.99,4.44-10.65,2.79-2.79,6.59-4.44,10.65-4.44h0Zm39.44,13.44h-39.44c-.38,0-.89,.13-1.14,.51-.25,.25-.51,.63-.51,1.14v36.91c0,.51,.25,.89,.51,1.14h0c.25,.38,.76,.51,1.14,.51h39.44c.51,0,.89-.13,1.27-.38v-.13c.25-.25,.38-.63,.38-1.14v-36.91c0-.51-.13-.89-.38-1.14h0c-.38-.38-.76-.51-1.27-.51h0Zm61.13-13.44h39.44c4.06,0,7.87,1.65,10.66,4.44h0c2.79,2.66,4.44,6.47,4.44,10.65v36.91c0,4.19-1.65,7.86-4.44,10.65h0c-2.79,2.79-6.6,4.44-10.66,4.44h-39.44c-4.19,0-7.99-1.65-10.65-4.44h0c-2.79-2.79-4.44-6.47-4.44-10.65v-36.91c0-4.19,1.65-7.99,4.44-10.65,2.66-2.79,6.47-4.44,10.65-4.44h0Zm39.44,13.44h-39.44c-.51,0-.89,.13-1.14,.51-.38,.25-.51,.63-.51,1.14v36.91c0,.51,.13,.89,.38,1.14h.12c.25,.38,.64,.51,1.14,.51h39.44c.51,0,.89-.13,1.14-.38v-.13c.38-.25,.51-.63,.51-1.14v-36.91c0-.51-.12-.89-.51-1.14h0c-.25-.38-.63-.51-1.14-.51h0Z"/><rect class="b" x="67.99" y="132.03" width="435.17" height="13.44"/><path class="b" d="M166.92,321.9c-7.74-7.74-17-13.95-27.27-18.14-9.76-4.19-20.67-6.34-32.08-6.34s-22.2,2.15-32.09,6.34c-3.67,1.52-7.35,3.3-10.78,5.45h0c-3.17,1.65-7.1,.63-9.01-2.53-1.78-3.04-.89-7.1,2.15-9,3.93-2.41,8.12-4.57,12.56-6.34,11.54-4.69,24.1-7.35,37.16-7.35s25.75,2.66,37.16,7.35c12.05,4.95,22.7,12.18,31.71,21.18,8.88,8.88,16.11,19.66,21.06,31.58,4.82,11.41,7.35,23.97,7.35,37.16s-2.53,25.75-7.35,37.16c-4.95,11.92-12.18,22.7-21.06,31.71-9,8.88-19.66,16.11-31.71,21.05-11.41,4.82-23.97,7.36-37.16,7.36s-25.62-2.53-37.16-7.36c-11.92-4.95-22.7-12.17-31.58-21.05-9-9.01-16.23-19.79-21.18-31.71-4.69-11.41-7.35-23.97-7.35-37.16s2.66-25.75,7.35-37.16c2.15-5.33,4.82-10.28,7.86-15.09l-16.74,5.07c-3.55,1.15-7.35-.89-8.5-4.56H.26c-1.01-3.55,1.01-7.36,4.57-8.37l31.58-9.64c.38,0,.63-.13,1.01-.13,3.43-1.02,7.1,1.01,8.12,4.57l9.64,31.58c1.01,3.68-1.02,7.48-4.57,8.5h0c-3.55,1.14-7.36-.89-8.5-4.57l-4.82-15.98c-2.79,4.31-5.33,8.88-7.23,13.69-4.06,9.9-6.34,20.68-6.34,32.09s2.29,22.2,6.34,32.09c4.19,10.28,10.4,19.53,18.13,27.27,7.87,7.74,17,13.95,27.27,18.14,9.89,4.19,20.67,6.34,32.09,6.34s22.32-2.15,32.08-6.34c10.28-4.19,19.54-10.4,27.27-18.14,7.73-7.74,13.95-16.99,18.26-27.27,4.06-9.89,6.34-20.67,6.34-32.09s-2.28-22.19-6.34-32.09c-4.31-10.27-10.53-19.4-18.26-27.27h0Zm-2.54,66.46h0c0,3.68-3.05,6.72-6.72,6.72h-50.1c-3.68,0-6.72-3.04-6.72-6.72h0v-67.47c0-3.81,3.05-6.85,6.72-6.85h0c3.81,0,6.85,3.04,6.85,6.85v60.62h43.25c3.68,0,6.72,3.05,6.72,6.85h0ZM65.83,240.73h0c3.68,0,6.73,3.05,6.73,6.72v23.21c0,3.68-3.05,6.72-6.73,6.72h0c-3.81,0-6.85-3.05-6.85-6.72v-23.21c0-3.67,3.04-6.72,6.85-6.72h0Z"/></svg>