<?xml version="1.0" encoding="UTF-8"?><svg id="a" xmlns="http://www.w3.org/2000/svg" viewBox="0 0 18 18"><defs><style>.b{fill-rule:evenodd;}</style></defs><path class="b" d="M15.01,10.51c-.29,.77-.7,1.47-1.21,2.1l4.08,4.08c.16,.16,.16,.43,0,.59l-.59,.59c-.16,.16-.43,.16-.59,0l-4.08-4.08c-.63,.51-1.33,.92-2.1,1.21-.86,.33-1.78,.51-2.75,.51-2.14,0-4.08-.87-5.48-2.27C.87,11.84,0,9.9,0,7.76S.87,3.68,2.27,2.27C3.68,.87,5.61,0,7.76,0s4.08,.87,5.48,2.27,2.27,3.34,2.27,5.48c0,.97-.18,1.9-.51,2.75h0Zm-11.55,1.54c1.1,1.1,2.62,1.78,4.3,1.78s3.2-.68,4.3-1.78c1.1-1.1,1.78-2.62,1.78-4.3s-.68-3.2-1.78-4.3c-1.1-1.1-2.62-1.78-4.3-1.78s-3.2,.68-4.3,1.78c-1.1,1.1-1.78,2.62-1.78,4.3s.68,3.2,1.78,4.3Z"/></svg>