<svg width="110" height="89" viewBox="0 0 110 89" fill="none" xmlns="http://www.w3.org/2000/svg">
<path d="M55.4 56H54.1V59H55.4V56Z" fill="#020203"/>
<path d="M65.3 82.1C65.3 82.1 62.9 53.9 62.9 44.4C62.9 35 65.3 6.7 65.3 6.7C65.3 3 61.5 0 56.8 0H52.5C47.8 0 44 3 44 6.7C44 6.7 45.8 34.9 45.8 44.3C45.8 53.7 44 82 44 82C44 85.7 47.8 88.8 52.5 88.8H56.8C61.5 88.8 65.3 85.8 65.3 82.1Z" fill="#020203"/>
<path d="M52 23.8C52.9941 23.8 53.8 22.9941 53.8 22C53.8 21.0059 52.9941 20.2 52 20.2C51.0059 20.2 50.2 21.0059 50.2 22C50.2 22.9941 51.0059 23.8 52 23.8Z" fill="white"/>
<path d="M57.2 23.8C58.1941 23.8 59 22.9941 59 22C59 21.0059 58.1941 20.2 57.2 20.2C56.2059 20.2 55.4 21.0059 55.4 22C55.4 22.9941 56.2059 23.8 57.2 23.8Z" fill="white"/>
<path d="M52 28.8C52.9941 28.8 53.8 27.9941 53.8 27C53.8 26.0059 52.9941 25.2 52 25.2C51.0059 25.2 50.2 26.0059 50.2 27C50.2 27.9941 51.0059 28.8 52 28.8Z" fill="white"/>
<path d="M57.2 28.8C58.1941 28.8 59 27.9941 59 27C59 26.0059 58.1941 25.2 57.2 25.2C56.2059 25.2 55.4 26.0059 55.4 27C55.4 27.9941 56.2059 28.8 57.2 28.8Z" fill="white"/>
<path d="M52 66.8C52.9941 66.8 53.8 65.9941 53.8 65C53.8 64.0059 52.9941 63.2 52 63.2C51.0059 63.2 50.2 64.0059 50.2 65C50.2 65.9941 51.0059 66.8 52 66.8Z" fill="white"/>
<path d="M57.2 66.8C58.1941 66.8 59 65.9941 59 65C59 64.0059 58.1941 63.2 57.2 63.2C56.2059 63.2 55.4 64.0059 55.4 65C55.4 65.9941 56.2059 66.8 57.2 66.8Z" fill="white"/>
<path d="M52 71.8C52.9941 71.8 53.8 70.9941 53.8 70C53.8 69.0059 52.9941 68.2 52 68.2C51.0059 68.2 50.2 69.0059 50.2 70C50.2 70.9941 51.0059 71.8 52 71.8Z" fill="white"/>
<path d="M57.2 71.8C58.1941 71.8 59 70.9941 59 70C59 69.0059 58.1941 68.2 57.2 68.2C56.2059 68.2 55.4 69.0059 55.4 70C55.4 70.9941 56.2059 71.8 57.2 71.8Z" fill="white"/>
<path d="M78.8 61.7H77.7V64.2H78.8V61.7Z" fill="#020203"/>
<path d="M86.9 83.2C86.9 83.2 84.9 59.9 84.9 52.1C84.9 44.3 86.9 21 86.9 21C86.9 17.9 83.8 15.4 79.9 15.4H76.3C72.4 15.4 69.3 17.9 69.3 21C69.3 21 70.8 44.3 70.8 52.1C70.8 59.9 69.3 83.2 69.3 83.2C69.3 86.3 72.4 88.8 76.3 88.8H79.9C83.8 88.8 86.9 86.3 86.9 83.2Z" fill="#020203"/>
<path d="M76 35.1C76.8284 35.1 77.5 34.4284 77.5 33.6C77.5 32.7716 76.8284 32.1 76 32.1C75.1716 32.1 74.5 32.7716 74.5 33.6C74.5 34.4284 75.1716 35.1 76 35.1Z" fill="white"/>
<path d="M80.3 35.1C81.1284 35.1 81.8 34.4284 81.8 33.6C81.8 32.7716 81.1284 32.1 80.3 32.1C79.4716 32.1 78.8 32.7716 78.8 33.6C78.8 34.4284 79.4716 35.1 80.3 35.1Z" fill="white"/>
<path d="M76 39.2C76.8284 39.2 77.5 38.5284 77.5 37.7C77.5 36.8716 76.8284 36.2 76 36.2C75.1716 36.2 74.5 36.8716 74.5 37.7C74.5 38.5284 75.1716 39.2 76 39.2Z" fill="white"/>
<path d="M80.3 39.2C81.1284 39.2 81.8 38.5284 81.8 37.7C81.8 36.8716 81.1284 36.2 80.3 36.2C79.4716 36.2 78.8 36.8716 78.8 37.7C78.8 38.5284 79.4716 39.2 80.3 39.2Z" fill="white"/>
<path d="M76 70.6C76.8284 70.6 77.5 69.9284 77.5 69.1C77.5 68.2716 76.8284 67.6 76 67.6C75.1716 67.6 74.5 68.2716 74.5 69.1C74.5 69.9284 75.1716 70.6 76 70.6Z" fill="white"/>
<path d="M80.3 70.6C81.1284 70.6 81.8 69.9284 81.8 69.1C81.8 68.2716 81.1284 67.6 80.3 67.6C79.4716 67.6 78.8 68.2716 78.8 69.1C78.8 69.9284 79.4716 70.6 80.3 70.6Z" fill="white"/>
<path d="M76 74.8C76.8284 74.8 77.5 74.1284 77.5 73.3C77.5 72.4716 76.8284 71.8 76 71.8C75.1716 71.8 74.5 72.4716 74.5 73.3C74.5 74.1284 75.1716 74.8 76 74.8Z" fill="white"/>
<path d="M80.3 74.8C81.1284 74.8 81.8 74.1284 81.8 73.3C81.8 72.4716 81.1284 71.8 80.3 71.8C79.4716 71.8 78.8 72.4716 78.8 73.3C78.8 74.1284 79.4716 74.8 80.3 74.8Z" fill="white"/>
<path d="M31.8 61.7H30.7V64.2H31.8V61.7Z" fill="#020203"/>
<path d="M39.9 83.2C39.9 83.2 37.9 59.9 37.9 52.1C37.9 44.3 39.9 21 39.9 21C39.9 17.9 36.8 15.4 32.9 15.4H29.3C25.4 15.4 22.3 17.9 22.3 21C22.3 21 23.8 44.3 23.8 52.1C23.8 59.9 22.3 83.2 22.3 83.2C22.3 86.3 25.4 88.8 29.3 88.8H32.9C36.8 88.8 39.9 86.3 39.9 83.2Z" fill="#020203"/>
<path d="M29 35.1C29.8284 35.1 30.5 34.4284 30.5 33.6C30.5 32.7716 29.8284 32.1 29 32.1C28.1716 32.1 27.5 32.7716 27.5 33.6C27.5 34.4284 28.1716 35.1 29 35.1Z" fill="white"/>
<path d="M33.3 35.1C34.1284 35.1 34.8 34.4284 34.8 33.6C34.8 32.7716 34.1284 32.1 33.3 32.1C32.4716 32.1 31.8 32.7716 31.8 33.6C31.8 34.4284 32.4716 35.1 33.3 35.1Z" fill="white"/>
<path d="M29 39.2C29.8284 39.2 30.5 38.5284 30.5 37.7C30.5 36.8716 29.8284 36.2 29 36.2C28.1716 36.2 27.5 36.8716 27.5 37.7C27.5 38.5284 28.1716 39.2 29 39.2Z" fill="white"/>
<path d="M33.3 39.2C34.1284 39.2 34.8 38.5284 34.8 37.7C34.8 36.8716 34.1284 36.2 33.3 36.2C32.4716 36.2 31.8 36.8716 31.8 37.7C31.8 38.5284 32.4716 39.2 33.3 39.2Z" fill="white"/>
<path d="M29 70.6C29.8284 70.6 30.5 69.9284 30.5 69.1C30.5 68.2716 29.8284 67.6 29 67.6C28.1716 67.6 27.5 68.2716 27.5 69.1C27.5 69.9284 28.1716 70.6 29 70.6Z" fill="white"/>
<path d="M33.3 70.6C34.1284 70.6 34.8 69.9284 34.8 69.1C34.8 68.2716 34.1284 67.6 33.3 67.6C32.4716 67.6 31.8 68.2716 31.8 69.1C31.8 69.9284 32.4716 70.6 33.3 70.6Z" fill="white"/>
<path d="M29 74.8C29.8284 74.8 30.5 74.1284 30.5 73.3C30.5 72.4716 29.8284 71.8 29 71.8C28.1716 71.8 27.5 72.4716 27.5 73.3C27.5 74.1284 28.1716 74.8 29 74.8Z" fill="white"/>
<path d="M33.3 74.8C34.1284 74.8 34.8 74.1284 34.8 73.3C34.8 72.4716 34.1284 71.8 33.3 71.8C32.4716 71.8 31.8 72.4716 31.8 73.3C31.8 74.1284 32.4716 74.8 33.3 74.8Z" fill="white"/>
<path d="M102.2 65.3H101.3V67.5H102.2V65.3Z" fill="#020203"/>
<path d="M109.2 84C109.2 84 107.5 63.8 107.5 57C107.5 50.2 109.2 30 109.2 30C109.2 27.3 106.5 25.2 103.1 25.2H100C96.6 25.2 93.9 27.3 93.9 30C93.9 30 95.2 50.2 95.2 57C95.2 63.7 93.9 84 93.9 84C93.9 86.7 96.6 88.8 100 88.8H103.1C106.5 88.8 109.2 86.6 109.2 84Z" fill="#020203"/>
<path d="M99.8 42.3C100.518 42.3 101.1 41.718 101.1 41C101.1 40.282 100.518 39.7 99.8 39.7C99.082 39.7 98.5 40.282 98.5 41C98.5 41.718 99.082 42.3 99.8 42.3Z" fill="white"/>
<path d="M103.5 42.3C104.218 42.3 104.8 41.718 104.8 41C104.8 40.282 104.218 39.7 103.5 39.7C102.782 39.7 102.2 40.282 102.2 41C102.2 41.718 102.782 42.3 103.5 42.3Z" fill="white"/>
<path d="M99.8 45.8C100.518 45.8 101.1 45.218 101.1 44.5C101.1 43.782 100.518 43.2 99.8 43.2C99.082 43.2 98.5 43.782 98.5 44.5C98.5 45.218 99.082 45.8 99.8 45.8Z" fill="white"/>
<path d="M103.5 45.8C104.218 45.8 104.8 45.218 104.8 44.5C104.8 43.782 104.218 43.2 103.5 43.2C102.782 43.2 102.2 43.782 102.2 44.5C102.2 45.218 102.782 45.8 103.5 45.8Z" fill="white"/>
<path d="M99.8 73.1C100.518 73.1 101.1 72.518 101.1 71.8C101.1 71.082 100.518 70.5 99.8 70.5C99.082 70.5 98.5 71.082 98.5 71.8C98.5 72.518 99.082 73.1 99.8 73.1Z" fill="white"/>
<path d="M103.5 73.1C104.218 73.1 104.8 72.518 104.8 71.8C104.8 71.082 104.218 70.5 103.5 70.5C102.782 70.5 102.2 71.082 102.2 71.8C102.2 72.518 102.782 73.1 103.5 73.1Z" fill="white"/>
<path d="M99.8 76.6C100.518 76.6 101.1 76.018 101.1 75.3C101.1 74.582 100.518 74 99.8 74C99.082 74 98.5 74.582 98.5 75.3C98.5 76.018 99.082 76.6 99.8 76.6Z" fill="white"/>
<path d="M103.5 76.6C104.218 76.6 104.8 76.018 104.8 75.3C104.8 74.582 104.218 74 103.5 74C102.782 74 102.2 74.582 102.2 75.3C102.2 76.018 102.782 76.6 103.5 76.6Z" fill="white"/>
<path d="M8.19999 65.3H7.29999V67.5H8.19999V65.3Z" fill="#020203"/>
<path d="M15.2 84C15.2 84 13.5 63.8 13.5 57C13.5 50.2 15.2 30 15.2 30C15.2 27.3 12.5 25.2 9.1 25.2H6C2.7 25.2 0 27.4 0 30C0 30 1.3 50.2 1.3 57C1.3 63.7 0 84 0 84C0 86.7 2.7 88.8 6.1 88.8H9.2C12.5 88.8 15.2 86.6 15.2 84Z" fill="#020203"/>
<path d="M5.8 42.3C6.51797 42.3 7.1 41.718 7.1 41C7.1 40.282 6.51797 39.7 5.8 39.7C5.08203 39.7 4.5 40.282 4.5 41C4.5 41.718 5.08203 42.3 5.8 42.3Z" fill="white"/>
<path d="M9.50001 42.3C10.218 42.3 10.8 41.718 10.8 41C10.8 40.282 10.218 39.7 9.50001 39.7C8.78204 39.7 8.20001 40.282 8.20001 41C8.20001 41.718 8.78204 42.3 9.50001 42.3Z" fill="white"/>
<path d="M5.8 45.8C6.51797 45.8 7.1 45.218 7.1 44.5C7.1 43.782 6.51797 43.2 5.8 43.2C5.08203 43.2 4.5 43.782 4.5 44.5C4.5 45.218 5.08203 45.8 5.8 45.8Z" fill="white"/>
<path d="M9.50001 45.8C10.218 45.8 10.8 45.218 10.8 44.5C10.8 43.782 10.218 43.2 9.50001 43.2C8.78204 43.2 8.20001 43.782 8.20001 44.5C8.20001 45.218 8.78204 45.8 9.50001 45.8Z" fill="white"/>
<path d="M5.8 73.1C6.51797 73.1 7.1 72.518 7.1 71.8C7.1 71.082 6.51797 70.5 5.8 70.5C5.08203 70.5 4.5 71.082 4.5 71.8C4.5 72.518 5.08203 73.1 5.8 73.1Z" fill="white"/>
<path d="M9.50001 73.1C10.218 73.1 10.8 72.518 10.8 71.8C10.8 71.082 10.218 70.5 9.50001 70.5C8.78204 70.5 8.20001 71.082 8.20001 71.8C8.20001 72.518 8.78204 73.1 9.50001 73.1Z" fill="white"/>
<path d="M5.8 76.6C6.51797 76.6 7.1 76.018 7.1 75.3C7.1 74.582 6.51797 74 5.8 74C5.08203 74 4.5 74.582 4.5 75.3C4.5 76.018 5.08203 76.6 5.8 76.6Z" fill="white"/>
<path d="M9.50001 76.6C10.218 76.6 10.8 76.018 10.8 75.3C10.8 74.582 10.218 74 9.50001 74C8.78204 74 8.20001 74.582 8.20001 75.3C8.20001 76.018 8.78204 76.6 9.50001 76.6Z" fill="white"/>
</svg>
