<?xml version="1.0" encoding="UTF-8"?><svg id="a" xmlns="http://www.w3.org/2000/svg" viewBox="0 0 197.79 298.78"><defs><style>.b{fill:#3c3c3b;fill-rule:evenodd;}</style></defs><path class="b" d="M44.75,132.13c-8.72,6.08-10.57,14.53-12.41,24.37-.99,5.08-1.98,10.1-4.03,14.86-2.18,4.82-2.97,10.7-3.23,15.98-.27,6.54,.26,13.73,1.78,20.14,1.65,7.07,2.84,14.46,2.77,21.79-.07,7.66-1.45,15.19-5.22,21.92-2.25,4.09-4.49,8.06-6.87,12.02-2.84,4.75-5.68,9.44-8.52,14.13-.86,1.59-2.44,2.51-4.16,2.51-1.78,.07-3.5-.92-4.29-2.51-.86-1.58-.73-3.5,.26-4.95,2.84-4.69,5.75-9.31,8.52-14.06,2.38-3.9,4.49-7.73,6.73-11.69,2.91-5.35,3.96-11.42,4.03-17.43,0-6.54-1.12-13.21-2.58-19.55-1.72-7.26-2.31-15.32-1.98-22.78,.26-6.41,1.32-13.47,4.03-19.41,1.72-3.96,2.51-8.52,3.37-12.74,2.44-12.81,5.08-22.58,16.44-30.51h.07l.13-.07c1.85-1.19,3.7-2.44,5.55-3.76,1.39-.92,2.71-1.98,3.96-3.04V14.39c0-3.83,1.52-7.46,4.23-10.17,2.71-2.71,6.34-4.23,10.17-4.23h92.71c3.9,0,7.53,1.52,10.23,4.23,2.71,2.71,4.16,6.34,4.16,10.17v50.32c3.5-2.18,7.73-3.04,11.82-2.51,4.69,.66,8.85,3.1,11.75,6.87,2.84,3.7,4.09,8.39,3.43,13.07-.66,4.69-3.1,8.92-6.87,11.75l-3.43,2.64c2.58,1.19,4.82,3.04,6.54,5.28,2.84,3.76,4.09,8.52,3.43,13.14-.59,4.69-3.04,8.91-6.8,11.75l-4.82,3.63c1.85,.92,3.57,2.11,5.02,3.57,.79,.79,1.52,1.65,2.11,2.58,.4,.6,.79,1.19,1.12,1.85h.07l.46,1.06c1.52,3.63,1.78,7.66,.79,11.49-.99,3.83-3.24,7.2-6.34,9.58l-2.38,1.85c1.91,.92,3.63,2.11,5.15,3.63,.79,.79,1.52,1.65,2.11,2.58,.59,.86,1.12,1.85,1.58,2.9,1.58,3.63,1.85,7.66,.79,11.49-.99,3.83-3.17,7.2-6.34,9.64l-12.28,9.44c-2.05,1.58-4.42,2.71-6.93,3.24v16.05c0,3.83-1.45,7.46-4.16,10.17-2.77,2.71-6.41,4.23-10.23,4.23h-8.58c-3.5,8.52-8.58,16.05-15.25,22.39-7.53,7.06-16.51,12.08-26.15,15.58l-.26,.13h-.07c-2.71,.79-5.35,1.98-7.73,3.57-7,4.56-13.21,12.28-17.7,19.35-1.45,2.11-4.29,2.71-6.41,1.39-2.18-1.25-2.91-4.09-1.72-6.34h0v-.07c5.15-8.19,12.48-17.04,20.6-22.32,3.17-2.05,6.6-3.63,10.17-4.69,8.39-3.1,16.18-7.46,22.71-13.6,4.69-4.42,8.45-9.58,11.36-15.39h-50.05c-.07,5.48-.46,10.96-1.06,16.38v.13c-.46,2.44-2.77,4.09-5.22,3.83-2.51-.33-4.36-2.44-4.29-4.89v-.13c1.45-12.61,1.52-24.89-1.45-37.24-2.91-12.08-8.52-23.38-14.46-34.27-1.19-2.11-2.25-4.29-3.17-6.47-1.06-2.44-1.98-4.95-2.84-7.46-.4-1.06-.79-2.18-1.19-3.3-.99-2.58-2.18-5.35-1.65-8.19,.53-2.71,2.11-4.29,3.96-6.14,.86-.99,1.78-1.85,2.64-2.84,3.9-4.42,7.73-9.77,9.58-15.45,1.25-3.83,1.65-7.92,.13-11.75-.26-.59-.73-1.72-1.39-2.18-.2-.2-.53-.2-.79-.13-1.59,.07-4.82,3.57-5.94,4.69-1.25,1.32-2.58,2.71-4.03,3.9-1.72,1.39-3.5,2.71-5.28,4.03-1.92,1.39-3.9,2.71-5.94,3.96h0Zm118.07,36.45l5.48-4.23,.2-.13,14.53-11.29c1.45-1.12,2.51-2.64,2.97-4.42,.46-1.78,.33-3.7-.33-5.35-.2-.46-.53-.92-.73-1.32-.33-.4-.66-.86-.99-1.19-1.39-1.45-3.3-2.31-5.28-2.44-1.85-.13-3.7,.4-5.22,1.45l-.53,.4-19.74,15.25c-1.65,1.25-2.77,3.04-3.1,5.08-.4,1.98,0,4.09,1.06,5.81l.07,.07c.07,.13,.2,.33,.33,.4v.07l.07,.07c.13,.13,.2,.33,.33,.46h.07v.07c1.39,1.52,3.3,2.51,5.35,2.71,1.98,.2,3.96-.33,5.48-1.45h0Zm-3.04,23.64c.13,.13,.26,.33,.4,.53l.07,.07h0c.13,.2,.26,.4,.46,.59,1.39,1.52,3.3,2.51,5.35,2.64,2.05,.2,4.03-.33,5.68-1.58l12.28-9.51c1.45-1.12,2.51-2.71,2.97-4.49,.46-1.72,.33-3.63-.4-5.28-.2-.46-.46-.92-.79-1.39-.26-.4-.6-.79-.86-1.12-1.45-1.45-3.3-2.31-5.35-2.44-1.92-.13-3.83,.4-5.35,1.52l-12.41,9.64c-1.59,1.26-2.71,3.04-3.04,5.09-.4,1.98,0,4.03,.99,5.75h0Zm1.32-173.54v-4.29c0-1.25-.53-2.51-1.45-3.43-.86-.86-2.11-1.39-3.43-1.39H63.5c-1.25,0-2.51,.53-3.37,1.39-.92,.92-1.45,2.18-1.45,3.43v4.29h102.42Zm-9.24,159.74c-2.64-.99-5.09-2.58-7-4.75-.33-.33-.59-.79-.92-1.19-.33-.4-.59-.79-.86-1.26-2.38-3.7-3.17-8.25-2.38-12.55,.79-4.36,3.17-8.25,6.67-10.96l7.59-5.88c-2.58-1.19-4.89-3.04-6.67-5.35-2.84-3.76-4.03-8.45-3.43-13.14,.66-4.62,3.1-8.85,6.8-11.69l9.44-7.2V28.26H58.68V108.56c1.92-1.32,4.09-2.38,6.54-2.58,2.71-.2,5.22,.53,7.4,2.18,2.05,1.58,3.43,3.83,4.42,6.21,2.31,6.01,2.05,12.28,.07,18.29-2.31,6.87-6.73,13.34-11.56,18.75-.92,1.06-1.92,2.05-2.91,3.1-.33,.4-.92,.92-1.32,1.39,.26,.92,.86,2.38,1.06,3.1,.46,1.12,.86,2.31,1.25,3.43,.79,2.31,1.65,4.56,2.64,6.74,.79,1.98,1.72,3.9,2.71,5.75,4.95,8.91,9.58,18.09,12.88,27.8h75.21c-1.25-.86-2.44-1.85-3.43-2.97-.4-.4-.73-.79-1.06-1.26-.26-.4-.59-.79-.86-1.19-2.31-3.77-3.17-8.25-2.38-12.55,.46-2.24,1.25-4.42,2.51-6.34h0Zm-67.29,33.88c1.06,4.56,1.78,9.18,2.18,13.8h69.47c1.32,0,2.58-.46,3.43-1.39,.92-.92,1.45-2.18,1.45-3.43v-8.98H84.56Zm82.48-79.77l.33-.2c.13-.2,.33-.33,.53-.46l16.84-12.74c1.72-1.32,2.84-3.3,3.1-5.41,.33-2.18-.27-4.36-1.59-6.08-1.32-1.72-3.23-2.84-5.41-3.17-2.18-.26-4.36,.26-6.08,1.59l-17.3,13.21c-1.78,1.32-2.84,3.24-3.17,5.42-.26,2.18,.26,4.29,1.58,6.08,1.32,1.72,3.3,2.84,5.41,3.1,2.05,.33,4.09-.2,5.75-1.32h0Zm3.57-35.26l14.39-10.96c1.72-1.32,2.84-3.3,3.17-5.42,.26-2.18-.26-4.36-1.58-6.08-1.39-1.72-3.3-2.84-5.42-3.17-2.18-.26-4.36,.26-6.08,1.58l-4.49,3.37v20.67Z"/></svg>