<?xml version="1.0" encoding="UTF-8"?><svg id="a" xmlns="http://www.w3.org/2000/svg" viewBox="0 0 20.34 20.34"><defs><style>.b{stroke:#000;stroke-miterlimit:10;stroke-width:.34px;}</style></defs><path class="b" d="M8.21,12.13c-.47-.44-.9-.91-1.28-1.4-.41-.52-.78-1.07-1.1-1.63-.43-.74-.43-1.33-.22-1.83,.19-.47,.55-.81,.89-1.13l.03-.02c.13-.12,.3-.28,.48-.46,.17-.17,.34-.33,.51-.49,.14-.13,.2-.2,.2-.2,0-.07-.15-.23-.41-.52L4.26,1.17c-.54,.17-.98,.33-1.37,.57-.44,.27-.83,.67-1.26,1.32h0c-.24,.42-.41,.72-.48,1.04-.07,.32-.06,.69,.05,1.25,.3,1.53,1.03,3,1.98,4.39,.97,1.41,2.18,2.74,3.44,3.97h0c1.23,1.27,2.56,2.48,3.97,3.45,1.39,.96,2.86,1.68,4.39,1.98,.56,.11,.93,.13,1.25,.05,.32-.07,.62-.24,1.04-.49,.65-.43,1.05-.82,1.32-1.26,.24-.38,.4-.83,.57-1.37l-3.27-3.04c-.28-.26-.44-.4-.52-.41,0,0-.07,.07-.2,.2-.16,.17-.33,.33-.49,.51-.19,.2-.36,.37-.49,.51h0c-.32,.35-.66,.7-1.13,.89-.5,.21-1.09,.2-1.83-.22-.56-.32-1.11-.69-1.63-1.1-.49-.38-.96-.81-1.4-1.28h0Zm-.55-1.98c.37,.47,.77,.91,1.19,1.31l.03,.03c.4,.43,.84,.83,1.31,1.2,.49,.38,.99,.72,1.52,1.02,.45,.26,.77,.27,1.02,.17,.29-.12,.55-.39,.8-.66h0c.2-.21,.36-.38,.49-.52,.16-.17,.33-.34,.5-.51,.36-.36,.62-.53,1-.48,.31,.05,.59,.26,1.02,.65l3.46,3.22c.14,.12,.21,.31,.15,.5-.22,.74-.42,1.32-.76,1.87-.35,.56-.82,1.04-1.6,1.55h-.02c-.5,.31-.87,.51-1.32,.61-.45,.1-.94,.09-1.64-.05-1.66-.33-3.25-1.11-4.74-2.13-1.47-1.01-2.84-2.26-4.11-3.56-1.3-1.26-2.55-2.64-3.56-4.11C1.39,8.77,.62,7.18,.28,5.52c-.14-.7-.15-1.18-.05-1.64,.1-.44,.3-.81,.59-1.29,0-.01,.02-.03,.02-.04,.51-.78,.99-1.25,1.55-1.6,.55-.34,1.13-.54,1.87-.76h0c.16-.05,.35,0,.48,.13l3.24,3.49c.4,.43,.61,.71,.65,1.02,.06,.38-.11,.65-.48,1-.17,.17-.34,.33-.51,.5-.14,.13-.29,.28-.49,.47l-.03,.03c-.27,.25-.55,.52-.66,.8-.1,.25-.09,.57,.17,1.02,.3,.52,.64,1.03,1.02,1.52h0Z"/></svg>