<?xml version="1.0" encoding="UTF-8"?><svg id="a" xmlns="http://www.w3.org/2000/svg" viewBox="0 0 18.1 18.76"><defs><style>.b{stroke:#000;stroke-miterlimit:10;stroke-width:.76px;}</style></defs><path class="b" d="M9.05,.38c1.3,0,2.47,.53,3.32,1.38,.85,.85,1.38,2.03,1.38,3.32s-.53,2.47-1.38,3.32c-.85,.85-2.03,1.38-3.32,1.38s-2.47-.53-3.32-1.38c-.85-.85-1.38-2.03-1.38-3.32s.53-2.47,1.38-3.32c.85-.85,2.03-1.38,3.32-1.38h0Zm2.65,2.05c-.68-.68-1.62-1.1-2.65-1.1s-1.97,.42-2.65,1.1c-.68,.68-1.1,1.62-1.1,2.65s.42,1.97,1.1,2.65c.68,.68,1.62,1.1,2.65,1.1s1.97-.42,2.65-1.1c.68-.68,1.1-1.62,1.1-2.65s-.42-1.97-1.1-2.65h0ZM1.33,17.94c-.02,.26-.25,.46-.51,.44-.26-.02-.46-.25-.44-.51,.18-2.24,1.22-4.25,2.78-5.68,1.55-1.43,3.62-2.3,5.89-2.3s4.34,.87,5.89,2.3c1.56,1.44,2.6,3.44,2.78,5.68,.02,.26-.17,.49-.44,.51-.26,.02-.49-.17-.51-.44-.16-2-1.09-3.78-2.48-5.06-1.38-1.27-3.22-2.04-5.24-2.04s-3.87,.77-5.24,2.04c-1.39,1.28-2.31,3.06-2.48,5.06h0Z"/></svg>