<?xml version="1.0" encoding="UTF-8"?><svg id="a" xmlns="http://www.w3.org/2000/svg" viewBox="0 0 21.2 18"><defs><style>.b{fill-rule:evenodd;}</style></defs><path class="b" d="M17.69,.31c.59,.22,1.09,.55,1.51,.91,.82,.69,1.39,1.54,1.71,2.5,.32,.97,.39,2.05,.2,3.2-.37,2.21-2.85,4.34-5.66,6.74-1.52,1.3-3.14,2.69-4.54,4.19l-.02,.02c-.17,.16-.44,.15-.6-.02-1.39-1.5-3-2.88-4.51-4.18C2.96,11.28,.48,9.14,.11,6.93-.08,5.77-.02,4.68,.29,3.71c.31-.95,.87-1.79,1.69-2.48h0c.42-.37,.92-.7,1.52-.92,.52-.2,1.1-.31,1.74-.31,.96,0,2.04,.27,3.11,.93,.76,.48,1.52,1.16,2.24,2.1,.71-.94,1.47-1.62,2.24-2.1,1.08-.67,2.16-.94,3.13-.94,.64,0,1.21,.12,1.73,.31h0Zm-2.83,11.62c2.29-1.95,4.3-3.66,4.54-5.14,.14-.87,.11-1.71-.13-2.46-.22-.69-.6-1.3-1.16-1.78l-.03-.03c-.3-.26-.63-.47-.99-.6-.35-.13-.73-.2-1.13-.2-.6,0-1.41,.15-2.27,.7-.66,.42-1.36,1.08-2.04,2.07l-.7,1.04s-.07,.09-.12,.12c-.2,.13-.46,.08-.59-.12l-.71-1.04c-.68-1-1.37-1.66-2.03-2.08-.86-.55-1.65-.7-2.25-.7h0c-.4,0-.79,.07-1.14,.21-.36,.14-.7,.34-.98,.59h0c-.58,.49-.96,1.11-1.18,1.8-.23,.75-.27,1.6-.12,2.48,.25,1.5,2.28,3.23,4.6,5.22l.4,.34c.69,.59,1.39,1.19,2.06,1.78,.58,.52,1.15,1.05,1.71,1.6,.56-.55,1.14-1.09,1.71-1.6,.66-.59,1.37-1.19,2.06-1.78l.49-.42Z"/></svg>